<?xml version="1.0" standalone="no"?>
<!DOCTYPE svg PUBLIC "-//W3C//DTD SVG 1.1//EN" "http://www.w3.org/Graphics/SVG/1.1/DTD/svg11.dtd" >
<svg xmlns="http://www.w3.org/2000/svg">
<metadata></metadata>
<defs>
<font id="toneanddebsregular" horiz-adv-x="520" >
<font-face units-per-em="2048" ascent="1638" descent="-410" />
<missing-glyph horiz-adv-x="585" />
<glyph horiz-adv-x="2048" />
<glyph horiz-adv-x="2048" />
<glyph unicode="&#xd;" horiz-adv-x="585" />
<glyph unicode=" "  horiz-adv-x="585" />
<glyph unicode="&#x09;" horiz-adv-x="585" />
<glyph unicode="&#xa0;" horiz-adv-x="585" />
<glyph unicode="!" horiz-adv-x="432" d="M45 6l2 264q16 6 24.5 37t26.5 39l58 -6l-23 37q-43 287 -86 575v37q4 25 4 37l15 16l-15 5q-4 25 -1 50t7 52q0 33 -12 49q14 51 32.5 86t59.5 53q16 -4 59.5 -27.5t67.5 -17.5q20 23 37.5 35t36.5 12q6 0 18 -4q16 -10 25.5 -25.5t30.5 -70.5l-17 -414 q-68 -260 -108 -473q20 -6 40.5 -38.5t47.5 -32.5l2 -299l-311 -13q-12 2 -15.5 14.5t-5.5 22.5zM76 1219q6 -23 16 -48.5t33 -29.5q16 -37 33 -72q0 -14 -11 -25q6 -18 15.5 -36.5t25.5 -24.5q4 6 14.5 74.5t53.5 77.5q12 -16 16 -37t4 -45q0 -27 -5 -73t-5 -54h8 q-6 47 30 87t73 79q14 43 14 98q0 45 -12 82t-39 37q-18 0 -36 -12.5t-36 -32.5q-16 -12 -28 -13q-16 0 -46 26t-44 30q-6 -6 -44 -29t-30 -59zM98 283q0 -20 36 -49t40 -39q8 20 22.5 25t51.5 11q29 0 37 -43t26 -49l15 135q-8 27 -24.5 36t-45.5 9q-23 0 -39.5 -3 t-34.5 -5q-14 -10 -28 -10q-10 0 -22.5 6t-18.5 8q-14 -16 -15 -32z" />
<glyph unicode="&#x22;" horiz-adv-x="827" d="M51 621l4 147q57 74 117 150q-12 8 -45 8h-25q-41 0 -41 37q8 41 9 98q0 25 -1 51.5t-1 52.5q0 88 20 141.5t88 86.5q2 0 27.5 -39t52.5 -39l23 4q25 14 49 29q10 0 18 -9q29 -18 36 -61t17 -57v-121v-25q0 -76 -10 -174q-156 -150 -311 -297q-12 4 -20.5 6t-6.5 11z M94 1270q0 -18 10 -29q-6 -12 -6 -24q0 -20 16.5 -44t32.5 -45q18 -10 35 12.5t21 24.5q29 -4 42 -41t31 -43q33 20 58.5 50t30.5 65q-2 8 -9.5 56t-38.5 61q-23 -33 -71 -33q-27 0 -46.5 21.5t-29.5 54.5q-14 4 -27.5 -3t-31.5 -38q-16 -20 -17 -45zM430 621l6 147 q57 74 115 150q-12 8 -43 8h-25q-43 0 -43 37q6 20 8.5 43.5t2.5 56.5q0 25 -1 51.5t-1 52.5q0 88 20 140.5t88 85.5q23 -31 39 -54.5t41 -23.5l22 4q25 14 50 29q10 0 18 -9q27 -18 34 -60t19 -58v-121v-25q0 -84 -12 -174q-156 -150 -309 -297q-12 4 -21.5 6t-7.5 11z M475 1268q0 -16 8 -27q-6 -12 -6 -24q0 -20 16.5 -44t32.5 -45q16 -8 27 0q14 18 31 37q27 -4 41 -41t32 -43q35 23 59.5 51.5t28.5 63.5q-4 10 -9 57t-38 60q-10 -16 -30.5 -24.5t-42.5 -8.5q-23 0 -40.5 15.5t-35.5 60.5q-14 4 -27.5 -3t-30 -34t-16.5 -51z" />
<glyph unicode="$" horiz-adv-x="765" d="M27 358q31 43 63 88q47 57 88 52q12 18 31 18q39 -12 80 -22q8 -14 12 -22.5t16 -10.5q18 8 39 17t43 11l4 7q-25 14 -106.5 32.5t-110.5 34.5q-131 51 -131 193q18 27 19 63q0 20 -5.5 56t-5.5 45q0 18 4.5 35.5t18.5 33.5q12 35 74.5 49.5t77.5 57.5q23 4 29.5 21.5 t6.5 45.5v51q4 29 25 43q23 8 39 14.5t29 6.5q12 0 26 -8q10 2 39 20.5t43 18.5q20 0 29 -31l4 -199q8 -8 18 -8q10 4 19.5 5t17.5 -3q33 -20 73 -80.5t69 -83.5q-10 -33 -21.5 -50t-69.5 -85q-27 -2 -41 -2q-20 0 -18 23q-68 55 -164 55q-43 0 -64.5 -9.5t-21.5 -27.5 q0 -27 -4 -33q31 -14 241 -68.5t210 -224.5q0 -80 -42 -151.5t-118 -104.5l-90 -30q-6 -16 -6 -39q2 -25 2 -37q0 -27 -7.5 -41t-29.5 -14q-10 0 -19 2l-155 10l-17 135q-66 27 -135 58.5t-108 82.5zM92 903q23 -25 47 -22q27 27 45 26q20 0 42 -51t38 -57q14 10 19.5 27.5 t5.5 72.5q12 2 12 19v32q10 10 21 11q14 0 37.5 -24t37.5 -24q20 33 43 68q61 6 94 -74t44 -90q2 23 -7.5 70t-9.5 49q10 25 47 25q14 0 35 -5q-33 51 -56.5 73t-49.5 32q-23 -2 -39.5 -18.5t-34.5 -45.5l-10 13q16 6 19 39.5t9 42.5q12 29 13 53q0 20 -9.5 57t-9.5 51 q0 15 6 33q-10 -4 -32.5 -20.5t-36.5 -16.5q-10 0 -23 6q0 -27 -16 -26q-29 10 -43 10q-12 0 -21 -12q-8 -25 -8 -60q0 -61 37 -98q16 0 36.5 20.5t41.5 18.5q25 -12 24 -47q0 -16 -6 -29q-4 6 -9 30.5t-22 29.5q-10 -4 -20 -20.5t-18 -24.5q-16 -8 -28.5 1t-25.5 27 q-20 14 -35 15q-12 0 -46.5 -35t-59.5 -35q-10 0 -23 6q-35 -8 -45 -30.5t-10 -67.5v-25zM190 469q0 -29 27 -65.5t51 -67.5l27 43q23 10 50.5 -13.5t43.5 -13.5q12 14 25 15q12 0 38.5 -29t30.5 -31q12 18 15.5 41t3.5 53q-4 18 -24.5 24.5t-31.5 10.5q-14 35 -38 35 q-12 0 -45 -15.5t-48 -15.5q-16 0 -26 9q0 31 -30.5 36t-61.5 9q-6 -12 -7 -25zM301 567q-2 -12 3 -16t13 -6q10 -6 14.5 2t2.5 20q-6 10 -17.5 6t-15.5 -6zM307 551q0 6 7.5 12t9.5 -2v-12zM358 1196l35 -14q-4 8 -17.5 9t-17.5 5zM436 1032l6 4l13 -14zM436 1241l15 6z M453 483q4 -16 17 -26.5t26 0.5q-6 26 -43 26z" />
<glyph unicode="&#x26;" horiz-adv-x="1046" d="M61 319q0 33 2.5 51.5t10.5 68.5t49 101.5t96 84.5q-68 37 -96.5 98t-28.5 139q0 29 2 43q-6 31 12.5 76t18.5 57q0 23 -16 41q27 -27 67 -26q20 0 56 5t45 5q29 0 49 -10l53 84q27 4 64.5 -32t54.5 -36l14 27q23 6 39 6q29 0 61.5 -16.5t79.5 -65.5q16 6 16.5 51 t39.5 35q55 -104 112 -207q-4 -6 -1 -12t7 -10q29 8 29 34q0 10 -9 41t-9 43q-2 16 -1 42t3 50q0 37 -8.5 58.5t-34.5 36.5q-6 51 -44 75.5t-82 40t-59 15.5q-27 0 -76 -45t-55 -47q-14 23 -41 22q-25 -4 -35 -4q-25 0 -40 27q-14 -8 -35 -9q-29 4 -43 5q-33 0 -49 -31 q-4 0 -10.5 7t-14.5 3q10 -10 -1 -18.5t-22 -14.5q-25 0 -59.5 -29.5t-42.5 -33.5q-16 -16 -16 -47q-4 12 0 36.5t16 36.5q25 33 86 61t82 50q20 -4 61 5t52 9q35 0 51 -34q29 4 41 4q20 0 30 -19q25 16 53 36t44 38q61 0 100 -16.5t82 -40.5q14 -14 32.5 -63.5t47.5 -63.5 q-6 -25 -6 -50q0 -37 21.5 -116.5t21.5 -112.5t-13 -70q-25 -6 -64.5 -8t-72.5 -2h-87t-75 -4l-18 12q-2 8 -2 29q0 23 2 48.5t4 51.5q0 37 -9 60.5t-29.5 32t-29 8.5h-12.5q-29 0 -47 -9.5t-29 -33.5q-4 -25 -6 -47.5t-2 -55.5q0 -49 15 -79q2 12 20 12q12 0 25 -4l18 -23 q-10 12 -18 12t-19.5 -7t-19.5 -13q-14 -27 -15 -55q0 -18 5.5 -52t5.5 -43q12 4 17 26t18.5 27t18.5 23.5t5 42.5q4 -2 8 8v13h10q8 -35 9 -84q0 -41 -5.5 -104.5t-5.5 -71.5q-31 -8 -62.5 -19.5t-33.5 -42.5q-8 -51 -16 -100q0 -20 8 -37q10 16 21.5 24.5t21.5 8.5 q14 0 45 -21.5t43 -21.5q16 0 31 14l4 232q39 6 33 30q8 33 16 39q-4 -25 -6 -38t-2 -23q0 -25 12 -47q16 -18 44 -39t69 -21q8 0 24 4q16 25 41 25q14 0 21.5 -3t24 -21.5t28.5 -34t27 -23.5q6 41 11 70.5t17 56.5q0 41 -34 59q-53 8 -119 34t-125 50q20 10 49 11 q31 0 87 -26t87 -28q29 -8 49.5 -24.5t26.5 -42.5q4 -4 20.5 -6t14.5 -17l-9 -252q-6 -4 -22 -4h-23q-23 0 -28 -18q-8 -82 -46 -148.5t-108 -95.5q-66 -20 -137.5 -31.5t-145.5 -11.5q-106 0 -187 21.5t-148 76.5q-49 51 -71 117t-22 145zM428 166q0 -43 23 -80 q8 10 35.5 18.5t29.5 8.5q10 -8 15.5 -35t21.5 -29q0 6 5 23.5t-1 23.5q18 18 18 47q-4 47 -8 95l-18 20q-35 16 -70 33q-18 0 -33 -25q-6 -20 -12 -51t-6 -49zM735 1024q-4 -20 19 -45q31 -27 41 -37l8 6q-6 25 -21.5 40.5t-46.5 35.5z" />
<glyph unicode="'" horiz-adv-x="432" d="M51 621l4 147q57 74 117 150q-12 8 -45 8h-25q-41 0 -41 37q8 41 9 98q0 25 -1 51.5t-1 52.5q0 88 20 141.5t88 86.5q2 0 27.5 -39t52.5 -39l23 4q25 14 49 29q10 0 18 -9q29 -18 36 -61t17 -57v-121v-25q0 -76 -10 -174q-156 -150 -311 -297q-12 4 -20.5 6t-6.5 11z M94 1270q0 -18 10 -29q-6 -12 -6 -24q0 -20 16.5 -44t32.5 -45q18 -10 35 12.5t21 24.5q29 -4 42 -41t31 -43q33 20 58.5 50t30.5 65q-2 8 -9.5 56t-38.5 61q-23 -33 -71 -33q-27 0 -46.5 21.5t-29.5 54.5q-14 4 -27.5 -3t-31.5 -38q-16 -20 -17 -45z" />
<glyph unicode="," horiz-adv-x="440" d="M59 129q0 29 2 86t2 86q29 68 54.5 101t56.5 51q6 -4 23 -4q27 2 36 2q29 0 37 -23v-39q0 -37 31 -37q10 4 28.5 27.5t37.5 19.5l26 -43l6 -358q-74 -90 -158.5 -184.5t-152.5 -157.5h-12l-4 164q4 8 59 72.5t66 91.5q-20 4 -44 4h-36h-47q-6 33 -8.5 82t-2.5 59z M102 338q-10 -37 23 -75t37 -48q18 27 37 27q10 0 41.5 -51.5t54.5 -51.5q6 10 18.5 66.5t44.5 70.5q4 6 -3 17.5t-7 15.5q0 6 10 13q6 8 1 20t-5 14q-29 -29 -36 -33t-25 -4q-8 0 -30.5 11.5t-22.5 52.5q0 12 6 25q-8 10 -27.5 13t-48.5 3q-23 -16 -32 -28.5t-36 -57.5z " />
<glyph unicode="-" d="M25 623q0 96 20 161.5t88 100.5q29 2 48.5 -19.5t33.5 -52.5q-2 -6 2 -11t10 -11q23 0 41.5 19t36.5 38q31 -4 66 -7t49 -26q-8 -16 -8 -29q0 -16 33.5 -34.5t33.5 -44.5v-153t2 -146q-88 -8 -190 -9q-45 0 -106.5 1t-141.5 3q-10 23 -12 41.5t-2 51.5v36.5t2 36.5 q0 29 -6 54zM63 756q14 -57 30 -87t57 -46q4 -4 11 -6.5t11 -2.5q18 0 49 40t60 32q27 -37 41 -92t28 -105q6 41 47 120t43 87q-23 27 -39 50.5t-16 60.5q-18 6 -37 6q-57 0 -102 -55q-16 -4 -23 -4q-25 0 -45 49t-53 49q-23 -10 -36 -34.5t-26 -61.5z" />
<glyph unicode="." horiz-adv-x="458" d="M78 123v79t2 81q12 47 23.5 78.5t48.5 39.5q12 0 41.5 -19.5t46.5 -19.5q27 16 45 24.5t39 8.5q27 0 49 -20q14 -8 14 -33q-2 -20 -2 -29q0 -27 27 -26v-37v-35v-31v-24q0 -45 -1 -88t-1 -86h-163t-161 -2q-8 59 -8 139zM111 324q0 -14 12 -51t12 -58q0 -14 -6 -31 q2 -2 33 -57t59 -55q10 18 10 45q0 18 -2 36.5t-4 36.5q0 16 2 25q14 16 29 16q10 0 34.5 -26.5t45.5 -26.5q27 45 26 103q0 12 -2 29.5t-2 27.5q-27 27 -53 29q-12 -16 -25.5 -22.5t-29.5 -6.5q-23 0 -50.5 13.5t-52.5 27.5q-37 -20 -36 -55z" />
<glyph unicode="0" horiz-adv-x="1073" d="M49 651v123q8 102 20.5 214t49.5 183q8 70 18 140q20 82 76 121q16 -6 31 -7q18 0 49 10.5t43 10.5q35 0 53 -43q20 6 52 42t55 44l188 -19q33 -33 68 -63q37 -39 47 -84q16 -4 42.5 16.5t41.5 20.5q8 0 18 -6q14 -16 25.5 -54t25.5 -81q-6 -16 -6 -31q0 -20 18.5 -63.5 t18.5 -67.5q18 -111 29.5 -226.5t11.5 -222.5q0 -113 -11.5 -196.5t-41 -178t-122.5 -152.5t-174 -69.5t-143 -11.5q-131 0 -236.5 47t-170.5 148q-35 66 -55.5 169t-20.5 287zM156 1208l6 4q49 0 76 -55q20 -10 38 -10q27 0 55.5 52t55.5 61q66 -6 98 -62q6 -6 9.5 -30.5 t27.5 -18.5q18 86 23.5 98.5t29.5 36.5q43 -8 77 -25.5t53 -48.5q12 16 28.5 35t34.5 12q16 -2 25.5 -16t15.5 -33q51 -16 72 -67q18 -80 39 -160q6 37 6 80q0 74 -21 133q6 10 6 18q-14 31 -14 45q0 12 14 25q-6 39 -30 39q-14 0 -45 -16.5t-43 -14.5q-23 10 -39.5 64.5 t-51.5 60.5q-14 27 -41.5 36t-66.5 9h-45q-10 0 -22.5 2t-18.5 2q-29 0 -57.5 -45t-57.5 -45q-12 0 -28 6q-10 37 -39 37q-12 0 -42 -9t-42 -9q-18 0 -29 8q-43 -25 -51 -90q-4 -78 -6 -109zM440 799q0 -53 2 -157.5t2 -152.5q4 -90 9 -178q8 -57 39 -94q23 -12 47 -12 q49 0 71 41q14 94 19.5 185t5.5 224q0 109 -2 213.5t-4 206.5q-7 66 -62 82q-10 -10 -14 -37.5t-16 -36.5q-20 -10 -35 15.5t-29 27.5l-12 -12q-12 -72 -16.5 -148.5t-4.5 -166.5z" />
<glyph unicode="1" horiz-adv-x="681" d="M31 1190q0 41 8 75.5t29 57.5q8 4 23 7t32 3q31 0 49 -16q25 51 43 87t57 46q12 6 21 6q16 0 37.5 -19.5t31.5 -19.5q12 0 27 15q-8 -23 -15 -34.5t-18 -15.5q-23 18 -39 34t-34 16q-10 0 -27 -13q-39 -12 -55.5 -77.5t-26.5 -79.5q-16 -2 -35.5 26.5t-32.5 28.5 q-8 0 -24 -12q-14 -43 -18.5 -63.5t-4.5 -45.5q0 -35 15 -57q0 -31 11 -56.5t36 -50.5q35 59 54.5 89t41.5 46q12 -41 23.5 -67.5t44.5 -30.5q20 -10 45.5 10.5t34.5 22.5q12 16 25 76.5t63 60.5q10 -33 41.5 -76t48.5 -65v49t2 49q0 88 -12.5 154.5t-49.5 119.5l-77 -14 q6 25 49 28t47 5q10 -10 14 -39t11.5 -38t11.5 -31.5t16 -28.5q16 4 25 4q12 0 22 -2t33 -15q0 -174 1 -421.5t3 -470t4 -441.5l-362 -6l-5 887l-14 14q-18 10 -50 14.5t-60 4.5q-25 0 -49.5 -1t-49.5 -1q-12 135 -22 272z" />
<glyph unicode="2" horiz-adv-x="1120" d="M51 39q2 12 2 27.5v23.5q0 25 -1 50.5t-1 52.5q0 66 14.5 110.5t59.5 75.5q37 47 285.5 233.5t248.5 362.5q0 14 -2 31.5t-2 27.5q-14 61 -21 83t-33 33t-36 11q-16 0 -38.5 -10t-32.5 -14q-35 -47 -41.5 -175t-8.5 -145l-378 12q-6 41 -7 80q0 37 6.5 113t6.5 113 q0 39 -6 79q23 119 63.5 175.5t99.5 74.5q12 6 25 6q18 0 50 -13t40 -13q14 0 42 23.5t81 23.5q19 0 35 -6l106 -66q18 0 41 22.5t65 32t95 9.5h25q14 -23 87.5 -80t65.5 -119q2 -20 42 -149t40 -183q0 -31 -6 -65q0 -182 -171 -281.5t-327 -189.5q18 -6 77.5 -6t74.5 -52 q57 33 72.5 39t35.5 6q16 0 39 -12q16 -23 84 -33t82 -53q8 2 15.5 -5t3.5 -15v-72v-29q0 -98 -13 -184l-966 10zM109 1163l71 -80q37 14 69 77t44 77q8 -2 23.5 8t23.5 -4q51 -59 102 -119q-4 16 -4 23q0 35 52.5 89t60.5 77q41 0 92 -48.5t59 -52.5q31 4 50.5 32t38.5 56 q86 -10 111.5 -136t47.5 -150q-2 25 7.5 86t9.5 67q0 37 -15 66q20 10 21 37q0 12 -6 36.5t-6 34.5q-8 18 -29 36t-43 28q-16 27 -37 36t-53 9h-78l-78 -49q-18 -8 -37 -8q-27 0 -71.5 34.5t-73.5 34.5q-29 2 -59.5 -19.5t-57.5 -41.5q-18 -10 -30.5 6t-22.5 33q-10 6 -21 6 q-8 0 -28.5 -5t-26.5 -5q-74 -35 -87 -123t-19 -148zM414 236q0 -25 14 -41l55 45q25 8 45 -7q23 -20 35 -28q14 -45 27 -45q8 0 41 48t65 48q12 0 35 -13.5t41.5 -67.5t22.5 -66q14 10 22 36.5t17.5 40t27.5 37.5q18 16 37 17q10 0 16 -2q12 -12 20.5 -34t16.5 -40 q0 23 12.5 61.5t12.5 61.5q0 12 -7 26.5t-56.5 20.5t-65.5 28q-12 6 -25 7q-39 0 -69 -41q-14 -8 -33 -9q-33 0 -47 21q-6 29 -24.5 39t-45.5 10q-20 0 -47 -2t-31 -2q-16 0 -24 2q-18 -14 -40 -31.5t-32 -50.5t-13 -44t-3 -25z" />
<glyph unicode="3" horiz-adv-x="1095" d="M51 498q16 53 40 96t65 65q29 6 69.5 -28.5t61.5 -34.5q14 0 28 8q6 6 19.5 1t27.5 -11q2 16 2.5 37.5t0.5 34.5v116q4 66 22 111q-31 10 -68.5 13t-93.5 3h-53q-43 -6 -66 -6q-35 0 -42 10.5t-7 36.5v33q0 53 26 153.5t26 147.5q0 29 -3 43q57 98 70.5 114.5t46.5 37.5 q14 -2 78 -28t84 -26q20 29 42.5 41.5t59.5 22.5q43 0 88 -23q31 -18 46 -26q47 10 84 10q33 0 51 -3t55 -17q0 -51 70.5 -98.5t70.5 -100.5q35 -100 47.5 -141t12.5 -97q0 -27 -7.5 -74t-47 -100t-99.5 -86q188 -113 189 -327q0 -27 -3 -41q0 -94 -41.5 -174t-125.5 -128 q-88 -31 -174.5 -47t-184.5 -16q-178 0 -323 63q-98 66 -121 164.5t-23 270.5zM74 528q0 -33 47 -87t53 -74q25 10 39 59t47 59q27 -29 37 -107.5t41 -105.5q0 25 16.5 72t14.5 68q16 16 16 37q0 14 -23.5 58t-23.5 62q-16 -6 -31 -6q-31 0 -60.5 17.5t-47.5 44.5 q-14 14 -29 14q-16 0 -30.5 -13.5t-40 -41t-25.5 -56.5zM125 1311q-4 -25 4 -52.5t25 -52.5q18 2 44.5 -22.5t49.5 -18.5q25 4 33 37t24.5 61.5t38.5 28.5q16 0 60.5 -52t82.5 -40q18 25 36 57.5t34 63.5q35 -10 66.5 -70.5t62.5 -74.5q23 14 23 54t26 52q4 -2 34 -10 t40 -29l106 -229q8 8 9 18q-6 29 -6 39q0 14 18 16q2 12 2 37q0 27 -4 53.5t-19 90.5q-43 29 -77.5 65.5t-51.5 77.5q-16 0 -45.5 5t-33.5 5q-18 0 -35 -7t-33 -7q-25 0 -76 26.5t-76 26.5q-47 -23 -77 -63q-23 -12 -39 -13q-25 0 -73 29t-75 33q-68 -57 -98 -135zM377 580 q6 -51 57 -70l15 -229q8 -29 32.5 -42.5t61.5 -13.5h20q33 18 46.5 50t13.5 77q0 33 -10.5 105.5t-10.5 89.5q-20 23 -53 32t-76 9q-27 0 -41 -1t-55 -7zM406 860q0 -18 28.5 -48t30.5 -42q14 20 31 21q16 0 39.5 -23t35.5 -20q4 29 8.5 53t12.5 43q-6 4 -12.5 24.5 t-18.5 20.5q-18 -20 -35 -21q-18 0 -32.5 17t-26.5 37q-18 16 -28.5 -6.5t-20.5 -24.5q-12 -18 -12 -31zM434 1071q0 -12 2 -38.5t2 -39.5q0 -16 -2 -22q61 0 90 -56l19 23q14 6 30.5 -3t22.5 -9q8 49 8 121v30q-4 20 -6 35.5t-20.5 32t-38.5 16.5q-23 1 -35 -24 q-10 -2 -35 12q-20 -10 -28.5 -30.5t-8.5 -47.5z" />
<glyph unicode="4" horiz-adv-x="1187" d="M51 432q0 35 2 69l4 68q160 160 256.5 351.5t96.5 388.5q-14 23 -15 47q0 25 13.5 52.5t35.5 57.5q12 6 35 15.5t41 9.5t35 -12q18 -20 39.5 -40t46.5 -20l61 58q57 -10 105.5 -49t87.5 -97q-74 -147 -174 -280t-234 -267l-100 -84l21 -18q31 -10 60.5 -13t72.5 -3h43 q10 25 12 78t8 75q98 104 183 214t167 237q8 -41 12.5 -95.5t4.5 -103.5q0 -45 -4 -154.5t-4 -123.5q0 -63 6 -131q12 -8 77.5 -19.5t57.5 -77.5l31 -24l-5 -217q-18 -8 -77.5 -8.5t-89.5 -22.5q-4 -37 -5 -55q0 -27 4.5 -87.5t4.5 -62.5q0 -47 -11 -80q-53 -6 -108 -6 q-43 0 -144.5 4t-105.5 4q-6 35 -6 68q0 27 4 89t4 64q0 25 -2 44.5t-10 39.5l-516 9q-12 18 -16.5 44.5t-4.5 63.5zM291 461q23 6 36 13t27 20q8 2 21 2q20 0 39.5 -16.5t38.5 -30.5l55 67q12 6 24 6q23 0 46.5 -22.5t44.5 -42.5l6 6q0 43 -8.5 69.5t-36.5 47.5 q0 31 -25 49q-16 -6 -31 -6q-25 0 -68.5 10t-53.5 10q-37 0 -64 -29q-31 2 -41 -12t-10 -43q0 -10 2 -34.5t2 -35.5q0 -20 -4 -28zM436 1405q0 -18 9.5 -57t9.5 -54q0 -20 -9 -34q0 -23 19 -41q27 -20 37 -29q18 57 73 102q33 12 49.5 -35t22.5 -51q25 39 51.5 65.5 t65.5 26.5h14q10 -8 18.5 -31.5t12.5 -27.5q27 27 33 51.5t6 75.5q-23 6 -63 42t-70 36q-16 -2 -30.5 -32t-33.5 -34q-31 0 -87 37t-64 39q-37 -2 -50.5 -14.5t-13.5 -34.5zM588 907v11v-11zM971 563q20 -6 29.5 -17t9.5 -44v-25q0 -18 7 -30.5t30 -16.5q16 29 26 49.5 t10 40.5q0 14 -6 31q0 35 -18.5 45.5t-71.5 26.5q-12 -8 -16 -60z" />
<glyph unicode="5" horiz-adv-x="1085" d="M49 387l4 72q-4 20 27 49t31 41q0 14 -25 31q0 143 4 458.5t4 339.5q29 49 53.5 73t46 31t27.5 7q27 0 72 -38t69 -36q29 25 58 51q33 25 65 25q14 0 31 -6q8 2 29 2q18 0 24 -2q14 -33 49 -50.5t68 -31.5q41 16 85 25.5t85 9.5q20 -63 44 -87t56 -18q6 -33 8.5 -53 t2.5 -61t-5.5 -80t-9.5 -64q-10 -4 -37 -4q-33 0 -45 -4q0 -35 -10 -56.5t-41 -29.5q-23 4 -34 49t-46 45l-293 -4q-16 -14 -16 -45q0 -14 2 -32.5t2 -20.5q6 -14 21 -15q10 0 20 11q14 4 29.5 32.5t32.5 28.5q8 0 20 -6q6 -10 18.5 -19.5t34.5 -9.5q33 4 49 4 q18 0 30.5 -10t17.5 -37q37 -8 59 -12t27 -37q18 -6 48.5 2t35.5 8q12 0 35.5 -9t43 -30.5t19.5 -52.5q0 -12 -2 -18q-6 -33 18.5 -86t33.5 -111.5t9 -150.5q0 -123 -35.5 -217.5t-126.5 -159.5q-66 -39 -148.5 -58.5t-174.5 -19.5q-174 0 -332 59q-86 47 -127 134.5 t-41 193.5zM119 496q-2 -25 6 -41.5t31 -42.5q16 6 28 6q35 0 56.5 -58.5t52.5 -62.5q2 25 12 46.5t33 55.5q47 0 39 47q0 29 -33 36t-47 10q-18 -20 -45 -21q-39 0 -64 33q-12 12 -36 12q-25 0 -33 -20zM131 1376q0 -29 40 -68.5t48 -58.5q18 -6 37 -6q23 0 64.5 9.5 t44.5 9.5q18 16 32.5 29.5t28.5 13.5q25 -41 49 -80q35 -45 80 -56q4 -6 8 -19t12 -13q0 10 18.5 66.5t125.5 72.5q33 -35 54.5 -118t45.5 -116l17 -2l8 56q18 35 29.5 80t11.5 84q0 86 -54 145q-16 4 -24 4q-25 0 -72 -24.5t-67 -24.5q-18 0 -32.5 8t-31.5 33 q-12 27 -30.5 36t-45.5 9q-47 -4 -94 -6q-18 -27 -39.5 -46.5t-50.5 -19.5q-10 0 -27 6q-12 8 -25 21.5t-11 28.5q-20 14 -41.5 21t-44.5 5q-31 -12 -41 -31q-23 -25 -23 -49zM217 547q10 -8 22.5 -16.5t26.5 -4.5q20 23 39 23q16 0 57 -26.5t47.5 -38t10.5 -53.5t8 -91 l64 22q25 6 57.5 -25.5t48.5 -31.5q14 0 31 14q6 47 6 87q0 47 -5 123.5t-5 95.5q-10 31 -37 40t-66 9h-24q-37 -6 -54 -47q-12 -51 -18 -72zM438 291q0 -12 18.5 -38t19.5 -30t21.5 -24.5t14.5 -36.5q18 -27 29.5 -38t23.5 -11q35 14 35 37q0 10 -14.5 34.5t-14.5 38.5 q0 16 15 31q-27 0 -48.5 36t-43.5 36q-15 -1 -31 -9q-25 -8 -25 -26zM459 887q0 -20 19.5 -40t37.5 -38q14 6 42 1t32 -5q29 0 43 33q20 4 26 4q35 0 55.5 -61.5t37.5 -73.5q6 18 14 82.5t43 89.5l-117 32q-8 35 -27.5 41t-64.5 6q-25 0 -39.5 2.5t-28.5 14.5l-65 -62 q-8 -14 -8 -26zM475 1327q4 4 20.5 -7t22.5 -5l-22 31l77 -5q-4 -25 -8 -43t-28 -18q-18 -4 -31.5 4t-30.5 43zM850 821q27 -23 42 -77t23 -68q6 33 13 65q0 6 -4 19q31 16 30 49q0 6 -4 18q-14 18 -26 39q-18 23 -41 17q-29 -31 -33 -62z" />
<glyph unicode="6" horiz-adv-x="1093" d="M43 541q0 80 9 212t9 160q0 45 32 144.5t32 140.5q0 43 -16 82q12 14 30.5 75.5t55.5 74.5q31 0 83 -11.5t68 -11.5q20 31 53 46t70 15q25 0 67 -8t91 -16q25 -8 62.5 18.5t47.5 26.5q25 0 41 -35q57 0 83 -73.5t63 -84.5q0 -33 38.5 -94t43 -84.5t6.5 -81t2 -114.5 q-121 -14 -246 -15q20 -31 134 -123t130 -180q10 -96 10 -174q0 -92 -16 -156.5t-70.5 -134t-150.5 -104.5t-219 -35q-154 0 -307 49q-137 66 -186.5 191t-49.5 301zM139 1280q-12 -16 2.5 -28.5t14.5 -24.5l-2 -6q12 -33 44.5 -41.5t80.5 -8.5v19q14 23 32.5 38t40.5 13 q49 -70 82 -119t76 -73q-6 -10 -20.5 -14.5t-28.5 -8.5v-69.5t4 -55.5q6 8 14 16.5t17 14.5q12 -2 45.5 3t44.5 5q27 0 39 -10t18 -31q6 -4 29 -4q6 0 12 1t4 7l-39 10q-2 14 -4 111.5t-38 116t-48 18.5q-45 0 -37 -57q-12 14 -26.5 54t-18.5 46q12 41 29.5 73t48.5 52 q43 -4 108.5 -57t73.5 -58q-2 18 17.5 35t21.5 27q47 -25 79 -80t40 -113l33 97q6 18 6 32q0 43 -54.5 103.5t-54.5 103.5q-12 8 -52 17.5t-54 25.5l-68 -47q-14 -10 -30 -10q-20 0 -33 18q-14 0 -57.5 4.5t-51.5 4.5q-37 0 -58.5 -9.5t-37.5 -40.5q-25 -23 -51 -22 q-18 0 -60.5 20.5t-64.5 20.5q-37 -8 -41 -59.5t-27 -59.5zM229 1286v14q18 -4 47 -32q-10 -8 -21 -2t-26 20zM442 440q0 -45 4.5 -70.5t18.5 -86.5l6 22q20 23 44 46.5t50 23.5q12 0 25 -6q20 -4 37.5 -22.5t13.5 -37.5q12 53 12 109q0 74 -22 145q-18 27 -38.5 42t-49.5 9 q-31 -10 -47.5 -17t-35 -44t-18.5 -113zM481 842q0 -49 40 -87t100 -65q20 23 34.5 36t36.5 5q29 -23 72 -98.5t63 -93.5q0 41 11.5 126t11.5 107q-14 39 -58 61.5t-71 36.5q-8 -20 -39 -20h-51q-37 53 -92 53q-10 0 -39 -4q-10 -6 -11 -27q0 -27 -8 -30zM487 252 q0 -25 29 -77t29 -73q12 -14 35 -14q8 0 24 4q20 74 43 150q0 16 -2 26q-25 18 -43.5 35t-32.5 33q-35 6 -57 -29q-25 -25 -25 -55z" />
<glyph unicode="7" horiz-adv-x="1091" d="M51 1057v110q0 98 5 156.5t26 140.5q27 27 68 27q12 0 49 -7t57 -7l59 -39q12 -12 26.5 -18.5t27.5 -6.5q23 0 73 24.5t68 24.5q16 0 61 4t50 4q33 0 53 -9t37 -40q18 -6 37 -6q23 0 72.5 20.5t68.5 20.5q25 0 51 -14q59 -20 80.5 -66.5t21.5 -118.5q0 -27 -4 -80t-4 -77 q-176 -184 -270 -417.5t-94 -492.5q0 -88 12 -180l-18 -6l-449 -4q0 281 124 531.5t347 502.5l-24 19q-98 0 -304 2t-307 2zM78 1370q6 -27 41 -41t59 -22q29 -20 58.5 -81t54.5 -83q8 -2 14 -2h8q35 0 61.5 56t69.5 56q27 29 54 29q23 0 84 -53t90 -53l61 53 q23 -10 38 18.5t40 18.5q39 -25 75 -98.5t72 -94.5q10 8 14.5 20.5t8.5 26.5q-2 10 -2 33q0 20 6 71.5t6 75.5q0 41 -13 69t-50 42q-29 23 -58 23q-25 0 -69.5 -24t-67.5 -24t-41 11q-12 29 -31.5 39t-46.5 10q-23 0 -74 -11.5t-65 -11.5q-43 -45 -90 -45q-33 0 -116 43 t-115 43q-11 0 -31 -4q-25 -10 -33 -30.5t-12 -59.5z" />
<glyph unicode="8" horiz-adv-x="1103" d="M51 383q0 55 12.5 109.5t56.5 105.5t101 80q-63 47 -106 106.5t-43 128.5q-4 18 -6.5 43t-2.5 43q0 43 7.5 83t20.5 102.5t28.5 120t48.5 94.5q18 27 45 26q12 0 39 -8t39 -8q25 0 43 18q20 29 48 40.5t64 11.5q25 0 79.5 -8.5t70.5 -8.5q47 0 80 25q23 6 41 -17.5 t31 -25.5q59 10 101 -62.5t83 -81.5q18 -10 18 -40v-41q74 -102 74 -238q0 -66 -17.5 -118t-50 -87t-79.5 -65q76 -47 126 -131t50 -177q0 -113 -48.5 -200.5t-142.5 -139.5q-84 -29 -175 -46t-181 -17q-115 0 -206 30.5t-146.5 91t-79 128t-23.5 133.5zM147 1311 q0 -31 43 -74t50 -59q37 -4 68.5 44t58.5 48q12 0 30 -6q16 -10 26.5 -25.5t29.5 -62.5q10 -2 35.5 -20.5t41.5 -10.5q-2 6 -2 22q0 23 13.5 54.5t25.5 60.5q10 8 27 8q33 0 49 -30q16 -18 39 -19q20 0 37 19q12 6 24 6q10 0 25.5 -7.5t22.5 -9.5q27 -41 52 -126t48 -122 q20 111 41 222q-10 8 -10 28q0 10 -1 21.5t-27 18.5t-61.5 71.5t-78.5 64.5q-8 0 -29 -4q-12 4 -27.5 23.5t-31.5 17.5q-14 -14 -35 -22t-53 -8q-14 0 -60.5 7t-68.5 7q-33 0 -55.5 -9t-47.5 -36q-23 -16 -42 -24.5t-40 -8.5q-27 0 -49 21q-18 0 -28.5 -10.5t-25 -32 t-14.5 -37.5zM449 991q0 -39 8 -65h14t8 -6q6 -10 -6 -21.5t-12 -19.5q-10 -20 -10 -37q0 -29 37.5 -81t39.5 -59l4 5q-2 25 30 53t30 47q6 18 6 31q0 31 -52 55.5t-63 44.5l13 10q23 -4 36 -24q23 0 45.5 -12.5t43.5 -22.5q10 66 10 127q0 41 -8 71q-16 33 -27.5 48.5 t-36.5 7.5q0 -35 -27 -35q-14 0 -34.5 4t-28.5 2q-20 -61 -20 -123zM453 457q0 -16 2 -51t2 -52q-6 -37 18 -35q25 41 45 41q18 0 52 -42t59 -42q18 55 18 134q0 63 -15.5 121.5t-84.5 58.5q-20 0 -47 -10q-31 -20 -40 -49t-9 -74zM473 297q14 -27 29.5 -51.5t40.5 -48.5 q0 -25 5 -45.5t21 -36.5q16 -2 35 39q4 25 4 41q0 27 -6 52t-22 46l-7 -6l-51 49q-29 -12 -36 -17.5t-13 -21.5z" />
<glyph unicode="9" horiz-adv-x="1064" d="M49 913q0 143 47 250q-8 23 -8 51q0 45 17.5 85t50.5 79q37 16 88 44t67 36q57 2 96 5t74 26h64q37 0 39 -25v-16q8 4 12 -12q-14 27 -59 26q-18 0 -38 -2t-38 -4q-25 -25 -58 -24q-10 0 -36.5 4t-40.5 4q-25 0 -80.5 -39t-95 -79t-39.5 -101q0 -16 6 -39 q14 -27 41.5 -37t66.5 -10q37 2 54 2q10 10 27.5 47t45.5 41q25 -2 64 -51.5t53 -55.5q25 4 29 10q2 20 0 40l-4 40q0 25 9 41.5t38 24.5q49 0 74.5 -6t41.5 -35q12 14 25 14q25 -4 33 -4q10 0 18 8q43 -37 65.5 -73.5t88.5 -190.5h10l8 139q6 4 8 15.5t2 27.5v25 q-4 14 -4 20q2 8 2 21q0 27 -32.5 61.5t-36.5 59.5q-8 6 -55.5 18t-57.5 43q-31 -2 -41 -2t-18 8q4 8 24.5 11.5t40.5 7.5q6 -37 65.5 -51.5t67.5 -49.5q25 -39 40.5 -65.5t15.5 -52.5q0 -12 -2 -19q49 -86 69.5 -188.5t20.5 -224.5q0 -74 -10.5 -241t-10.5 -218 q-16 -90 -75.5 -171t-143.5 -116q-66 -20 -134.5 -32.5t-139.5 -12.5q-90 0 -166 19.5t-139 64.5q-74 57 -98.5 143t-24.5 203l10 16l344 7l14 -11l6 -116q16 25 33 24q12 0 41 -24.5t49 -20.5q8 -12 14.5 -19t16.5 -5q6 31 8 80t2 90v114q-12 6 -24 6q-16 0 -57.5 -13 t-59.5 -13q-49 -6 -98 -6q-78 0 -142.5 22.5t-113.5 73.5q-33 53 -49.5 126t-16.5 152zM434 975q0 -29 5 -70t12 -76l43 72q18 0 34.5 -17.5t30.5 -31.5q14 -2 34.5 13.5t31.5 15.5v55q0 53 -2 86t-15 72q-14 25 -32.5 38t-43.5 5q-6 -8 -12 -38t-22 -36l-37 24 q-14 -25 -20.5 -53t-6.5 -59zM461 264q0 -23 35.5 -71t35.5 -74q31 12 31 41q-4 31 -4 45q0 10 4 18t19 17q-10 16 -51.5 38.5t-47.5 28.5q-23 -20 -22 -43zM461 762q4 -20 21.5 -35.5t49.5 -36.5q10 10 21.5 20.5t24.5 16.5q-8 20 8 45t16 31t-6 16q-8 -10 -15.5 -14 t-13.5 -4q-12 0 -34.5 24.5t-38.5 24.5q-33 -39 -33 -88z" />
<glyph unicode=":" horiz-adv-x="458" d="M78 123v79t2 81q12 47 23.5 78.5t48.5 39.5q12 0 41.5 -19.5t46.5 -19.5q27 16 45 24.5t39 8.5q27 0 49 -20q14 -8 14 -33q-2 -20 -2 -29q0 -27 27 -26v-37v-35v-31v-24q0 -45 -1 -88t-1 -86h-163t-161 -2q-8 59 -8 139zM80 721q0 86 18.5 146.5t75.5 113.5q35 6 74 -35 t61 -41q10 0 23 6q20 2 35.5 -10t29.5 -37q-4 -16 5.5 -33.5t17.5 -31.5l-4 -285q-41 -8 -97 -8q-39 0 -116.5 6t-114.5 6q0 35 -4 102.5t-4 100.5zM111 324q0 -14 12 -51t12 -58q0 -14 -6 -31q2 -2 33 -57t59 -55q10 18 10 45q0 18 -2 36.5t-4 36.5q0 16 2 25q14 16 29 16 q10 0 34.5 -26.5t45.5 -26.5q27 45 26 103q0 12 -2 29.5t-2 27.5q-27 27 -53 29q-12 -16 -25.5 -22.5t-29.5 -6.5q-23 0 -50.5 13.5t-52.5 27.5q-37 -20 -36 -55zM113 805q12 -2 27.5 -25.5t27.5 -23.5q8 0 20 6q16 0 26.5 -14.5t2.5 -30.5q14 -45 27.5 -77t52.5 -32 q43 92 60.5 137.5t17.5 96.5q-8 45 -41 45q-16 -23 -37 -23q-12 0 -57 42t-72 42q-55 -55 -55 -143z" />
<glyph unicode=";" horiz-adv-x="440" d="M59 129q0 29 2 86t2 86q29 68 54.5 101t56.5 51q6 -4 23 -4q27 2 36 2q29 0 37 -23v-39q0 -37 31 -37q10 4 28.5 27.5t37.5 19.5l26 -43l6 -358q-74 -90 -158.5 -184.5t-152.5 -157.5h-12l-4 164q4 8 59 72.5t66 91.5q-20 4 -44 4h-36h-47q-6 33 -8.5 82t-2.5 59zM66 637 q0 55 3 139t3 86l75 121q23 -2 53.5 -33.5t43.5 -31.5q16 0 39 24q10 -12 47 -20.5t41 -32.5v-31q0 -31 28 -35v-297l-16 -12l-311 4q-6 59 -6 119zM76 817q8 -8 31.5 -45t48.5 -43q12 8 18 14q12 6 23 7q16 0 37.5 -30t35.5 -38q27 -4 45.5 1t26.5 30l-4 168q-25 23 -66 22 q-18 -25 -39 -24q-16 0 -48 31.5t-42 31.5q-18 -25 -31.5 -51.5t-35.5 -73.5zM102 338q-10 -37 23 -75t37 -48q18 27 37 27q10 0 41.5 -51.5t54.5 -51.5q6 10 18.5 66.5t44.5 70.5q4 6 -3 17.5t-7 15.5q0 6 10 13q6 8 1 20t-5 14q-29 -29 -36 -33t-25 -4q-8 0 -30.5 11.5 t-22.5 52.5q0 12 6 25q-8 10 -27.5 13t-48.5 3q-23 -16 -32 -28.5t-36 -57.5z" />
<glyph unicode="?" horiz-adv-x="966" d="M29 792.5v38.5q0 37 4 130.5t4 101.5q0 51 -6 104q2 25 21.5 42.5t47.5 29.5q14 -2 33 6t23 8q12 0 20 -20q23 8 58.5 59t82.5 45q59 6 82 -37l127 23q10 -2 38 -34t42 -32t28.5 15.5t29 27t26.5 11.5q16 0 29 -15q57 -8 77.5 -93t73.5 -95q8 -10 21.5 -26.5t13.5 -41.5 q0 -8 -6 -20q41 -86 41 -184q0 -70 -19.5 -126.5t-54.5 -89t-159.5 -98t-124.5 -176.5q-8 -16 -9 -29q0 -25 23 -41l31 -20v-283l-17 -16l-307 2l-10 16l2 289q-8 6 -8 17q0 6 16 32q18 0 14 17q-6 31 -6 59q0 86 71 169t140 159q25 53 25 123q0 68 -25 116 q-14 16 -26.5 22.5t-30.5 2.5q-12 -31 -27 -35q-12 6 -24 6q-23 0 -27 -22l-14 -185l-342 3q-2 20 -2 44.5zM49 1122q0 -14 6 -44.5t6 -45.5q45 -45 117 -55q14 18 53 46t48 60q16 4 24 4q51 0 71.5 -29.5t32 -62t33.5 -22.5q6 6 -1 21.5t-1 19.5h11v16t-5 8q25 43 42.5 71 t52.5 15q4 -4 50 -52t68 -46q-6 20 7.5 38.5t21.5 29.5q49 6 62.5 -52.5t33.5 -70.5q0 -53 32 -139.5t36 -116.5q0 35 13.5 127t13.5 125q0 41 -5.5 64.5t-21.5 53.5q-43 12 -62 60q-16 59 -24 86q-12 20 -40 29.5t-54 17.5q-29 -61 -58 -61q-14 0 -60 39.5t-71 39.5 q-23 0 -41 -16q-14 -31 -34 -31q-16 0 -35 20t-29 38q-14 2 -40 -1t-28 -3q-27 -6 -40 -41t-27 -45q-25 -12 -37 -13q-12 0 -25 15q-51 0 -75 -39q-20 -20 -21 -58zM305 768l12 -10v10h-12zM313 276q4 -6 25.5 -38.5t50.5 -42.5q18 12 33 12q25 0 53.5 -44t46.5 -52l62 98 q8 31 -11.5 57.5t-31.5 44.5q-18 4 -37 -2t-43 -12q-6 10 -15.5 3t-19.5 -3q-6 8 -10 16q-25 4 -45 4q-25 0 -41.5 -9t-16.5 -32z" />
<glyph unicode="A" horiz-adv-x="1083" d="M49 2q139 635 281 1270q-29 12 -29 45q0 8 7 36.5t7 41.5q29 43 80 43q14 0 29.5 -8.5t25 -12.5t17.5 -2q6 25 42 33t40 37q16 6 31 6q14 0 42.5 -6t45.5 -6q16 0 24 2l35 -39q0 -35 35 -104.5t35 -106.5q0 -18 -6 -37l-7 -141q47 -170 94.5 -342t88.5 -347.5t67 -340.5 q-33 -8 -64.5 -10.5t-74.5 -2.5h-117q-45 0 -67 -2q-35 111 -70 223q-18 -6 -43 -6q-27 0 -75 5.5t-54 5.5q-41 0 -58.5 -12.5t-17.5 -51.5v-18q-14 -55 -23.5 -90t-29.5 -64zM328 1358q0 -18 23.5 -52t23.5 -53q2 -12 3 -21t1 -26q0 -16 -1 -32.5t-1 -32.5q0 -51 14 -70 q25 20 25 66q-2 35 -2 51q0 20 4 35.5t33 15.5q16 -29 36.5 -89t22.5 -69q6 6 1 17.5t-1 19.5q18 12 18 35q0 10 -5 28.5t-5 22.5q0 14 17 21q23 -76 38 -124t21 -57.5t20 -9.5q-6 23 14.5 54.5t20.5 41.5q0 14 -10 25q-4 27 -6 53q6 -10 23.5 -34.5t19.5 -40.5 q29 -27 36 -101t21 -100q16 154 35 309q0 51 -8 90q-31 10 -38 55.5t-20 59.5q-12 0 -26 11t-19 11q-6 0 -13 -8t-15 -8q-2 0 -28 16q-19 11 -30 11q-4 0 -8 -2q-14 -4 -14 -25q0 -23 -6 -29q-16 4 -23 4q-31 0 -47 -43q-25 -4 -33 15q-12 2 -33.5 7t-29.5 5 q-31 0 -40 -18.5t-9 -34.5zM457 426q0 -35 28 -57q10 16 27.5 32.5t24.5 22.5q12 4 30.5 -9.5t22.5 -4.5q2 6 2 13q0 22 -19 52q-16 -6 -33.5 7.5t-29.5 19.5q-18 2 -28.5 -15.5t-17.5 -33t-7 -27.5zM492 541q18 5 38 -15q16 -16 32 -17q3 0 7 1q-10 91 -49 152zM586 1382 q-3 3 -3 6q0 4 4 10q7 10 7 17h29q16 0 22 -4v-8q-12 4 -22 4q-33 0 -37 -25z" />
<glyph unicode="B" horiz-adv-x="1073" d="M57 1298q0 33 7.5 57.5t23.5 42t41 17.5q23 0 41 -6q10 -12 16.5 -18.5t14.5 -1.5q6 35 39 61q43 29 61 41q5 2 11 2q22 1 40 -25q24 -32 47 -26q12 -25 66.5 -28t58.5 -5q84 0 129 -7t68 -42q-68 12 -150 21.5t-153 9.5l-12 -19q-12 18 -48 54t-43 42q-25 0 -42 -14 t-35 -43l-15 -72q-20 -6 -51 27t-51 33q-10 0 -23 -6q-28 -38 -28 -89q0 -15 4 -40q0 -94 8 -157t39 -118q4 41 44 111.5t40 118.5q29 16 35 19t16 -3q37 -47 47 -61.5t21 -47.5q16 0 27 11.5t20 29.5q6 6 6 31t10 33q20 -6 34.5 -16.5t41.5 -36.5q20 31 35.5 51t38.5 24 q6 1 12 1q27 0 63 -14q46 -17 58 -17q20 -11 38 -57q16 -41 49 -41q4 0 9 1q18 6 28.5 33t14.5 33l-6 47q49 -8 74.5 -81t33.5 -83q2 12 2 35q0 121 -48 158t-82.5 44t-39.5 25q86 -16 131.5 -37.5t55.5 -80.5q39 -47 56.5 -107.5t17.5 -136.5q0 -109 -35 -197 q-14 -20 -39 -37.5t-47 -33.5q57 -43 84.5 -69t40.5 -69q-2 -16 -2 -35.5v-29.5q0 -35 4 -120t4 -91q0 -98 -25.5 -160.5t-105.5 -101.5q-66 -16 -142.5 -23.5t-171.5 -7.5q-86 0 -171 2t-167 4q-12 12 -22 2q-2 8 -4 10q-12 -14 -41 -14q-14 0 -29.5 2t-30.5 4l-12 19 q0 84 2 260t2 266q0 193 -5 309.5t-25 263.5q2 12 2 37t-5.5 73t-5.5 60zM442 387l9 -6zM459 950q0 -51 14 -67q14 8 43 -2.5t31 -10.5q20 0 31 29q14 0 29.5 -6t25.5 -8q6 25 6 49q0 31 -6 53.5t-19 52.5q-12 14 -32.5 20.5t-42.5 6.5q-39 0 -76 -18q0 -14 -2 -48t-2 -51z M467 426q0 -41 6 -72q20 27 43 27q14 0 51 -39q29 -31 58 -31q7 0 14 2q14 41 14 90q0 35 -6 69t-16 75l-27 16q-16 4 -34.5 6t-47.5 2q-37 0 -51 -12q0 -18 -2 -64t-2 -69zM467 813q0 -12 6 -43t2 -47q12 -12 21 -12q8 0 20 19.5t22.5 23.5t16.5 4q12 0 26.5 -25.5 t28.5 -25.5q-2 8 6 10q10 31 11 57q0 55 -35 84l-25 -33q-10 -6 -18 -6q-10 0 -30.5 18.5t-37.5 12.5q-14 -16 -14 -37zM469 186q0 -18 16 -28q37 0 71 27.5t65 54.5q8 -14 17 -27.5t24 -28.5q0 12 -11.5 33t-5.5 35q-14 16 -68.5 35.5t-64.5 52.5q-20 -8 -31.5 -39 t-11.5 -33q4 -4 7 -12t3 -16q0 -10 -5 -31t-5 -23z" />
<glyph unicode="C" horiz-adv-x="1036" d="M47 537q0 59 2 117.5t4 117.5q0 59 -6 119q0 61 23.5 202.5t23.5 200.5q45 61 123 68q25 45 54.5 78t70.5 49q57 0 103.5 -15.5t89.5 -48.5q35 12 69 13q66 0 117 -39q8 -16 39 -52t31 -65q16 -23 28 -27q12 2 44 16.5t38 14.5q23 0 45.5 -42t22.5 -105q0 -47 -19 -88 q12 -49 17.5 -109.5t5.5 -128.5q-55 0 -150.5 -5t-113.5 -5h-52q-23 4 -30 4q-4 23 -8.5 139.5t-63.5 167.5q-25 4 -41 4q-41 0 -59 -24q-12 -45 -17.5 -90.5t-5.5 -106.5q0 -29 2 -88t2 -88q0 -176 15 -320q16 43 51 43q14 0 45 -12t43 -15t16 -30t25 -25q8 27 10 64t2 84 v51q63 8 150 8q31 0 95 -2t95 -2q2 -35 5 -64.5t3 -72.5q0 -129 -36.5 -224t-133.5 -147q-133 -57 -291 -57q-104 0 -197 27.5t-165 85.5q-70 78 -95.5 183t-25.5 241zM88 1040q14 -96 20.5 -112.5t38.5 -30.5q6 12 12.5 35.5t2.5 52.5q12 53 26 107q14 33 48 43 q23 -10 25.5 -39t6.5 -56q27 14 39 93t45 98h76q2 25 37 36t37 13q12 -8 28.5 -30.5t36.5 -49.5q6 -2 12 -2q21 0 45 24q32 32 42 35q23 -35 44 -105.5t31 -92.5q14 -14 27 -15q12 0 34.5 18.5t37.5 16.5q37 -78 73 -155l13 -6q-8 16 -8 40q0 18 2 36l4 36q0 16 -2 25 q14 6 14 28q0 31 8 37l-8 82q-12 49 -55 62q-31 -8 -40.5 -29t-9.5 -51q0 -41 -8 -60q-29 -10 -28 15q6 31 6 47q0 20 -17 26q0 39 -16 67t-66.5 82t-72.5 54q-16 0 -50 -13t-49 -13l-69 59q-27 6 -48.5 10t-37.5 4q-23 0 -47.5 -11t-57.5 -54q-33 -49 -43 -66q-10 2 -26 2 q-94 0 -94.5 -130t-18.5 -163zM270 1325q13 44 53 44q10 0 23 -3zM422 260q0 -25 10 -59.5t21 -63.5l67 51q12 -33 51 -48t54 -19q16 18 19 54t7 71q-18 33 -30.5 56.5t-38.5 33.5l-21 43q-25 27 -43 27q-20 0 -44.5 -41t-35.5 -50q-16 -25 -16 -55zM494 268q-1 3 -1 6 q0 8 6 14q9 10 21 9q10 4 12.5 -3t4.5 -15q-7 3 -19 -7q-7 -6 -15 -6q-4 0 -9 2zM545 1323l4 6l20 -10zM647 1294q-1 3 -1 6q0 11 20 11q25 0 30 -11v-12h-2q-6 0 -20 9q-16 11 -27 -3z" />
<glyph unicode="D" horiz-adv-x="1136" d="M55 1376q4 37 24.5 56.5t74.5 56.5q61 -23 96 -40t63 -54q18 -2 33.5 18.5t28 24.5t31.5 4q25 0 71.5 -16.5t69.5 -16.5q45 0 69 55q14 8 34 16.5t40 8.5q25 0 39 -14q33 -16 56.5 -39t31.5 -54q14 -14 35 -14q6 0 28.5 6t37.5 4q37 -16 76.5 -104t45.5 -94 q18 -150 28.5 -304.5t10.5 -310.5q0 -227 -22 -413q-35 -74 -48.5 -90.5t-43.5 -30.5l-95 -27h-720l-21 19q0 186 -4 616t-4 446q0 70 -22.5 145t-43.5 146zM104 1341q0 -37 29 -108.5t29 -99.5q0 -18 -6 -37q6 23 13 39t24 30q8 -4 34.5 -6t34.5 -12q2 25 22.5 47.5 t47.5 42.5q20 23 39 23q16 0 35.5 -18.5t39.5 -37.5q16 16 37 34.5t41 18.5q18 -18 36 -29t104 -61q20 43 31.5 65.5t27.5 37.5q8 -10 32.5 -26.5t30.5 -29.5l45 27q51 0 92.5 -74.5t47.5 -81.5q-2 12 -2 41q0 23 3 62t3 41q0 33 -9.5 59.5t-33.5 48.5q-14 25 -35 25 q-12 0 -35.5 -10.5t-32.5 -10.5q-8 0 -18 7q-49 81 -133 120q-35 -10 -58.5 -29.5t-54.5 -58.5h-37q-39 0 -55 3t-37 20q-31 -2 -55.5 -4t-15.5 -35q-25 -12 -41 -12q-29 0 -80 52q-44 45 -82 45q-6 0 -12 -1q-16 -8 -24.5 -26.5t-15 -39t-6.5 -41.5zM492 1090 q0 -127 6 -377t6 -369l39 18q27 -10 61 -10q20 0 42 2l44 4q0 152 -7 388.5t-7 306.5q-14 33 -44 41t-54 8q-20 0 -44 -4t-42 -8zM508 223q0 -23 16.5 -47t32.5 -45q35 6 48 44t16 42q16 -6 50 -45t54 -45q-4 14 0 42t4 32q0 23 -25.5 48t-63.5 46.5t-85 21.5 q-20 -6 -20 -24q2 -18 2 -27q0 -18 -23 -18q-6 -12 -6 -25z" />
<glyph unicode="E" horiz-adv-x="1132" d="M61 1356v24q4 16 5 23q25 4 64.5 40t72.5 36q2 -2 59 -34t96 -32q27 0 50 14q8 16 41.5 38t39.5 28q14 -8 77 -27.5t87 -50.5h39q86 0 146.5 12.5t105.5 57.5q72 0 94 -53q-8 -82 -10 -159t-2 -183l-25 -17l-333 -4q-14 -31 -45 -31q-12 0 -25 6q-6 25 -47 25 q-33 0 -47 6l-23 -24q8 -102 17 -205l61 59q41 0 70.5 -7t58.5 -26q16 -2 31.5 18.5t28.5 20.5q6 0 18 -6q14 -23 19.5 -45t5.5 -57q0 -27 -6.5 -82t-6.5 -84q0 -27 2 -39q-8 -2 -24 -2q-41 0 -49.5 -3t-17.5 -40t-23 -92q-29 10 -42.5 64.5t-20.5 61.5t-40 7 q-20 0 -35.5 -1t-25.5 -1q-8 -31 -8 -72q0 -33 4 -59.5t6 -42.5q20 20 67 20q16 0 49 -4t50 -4q25 -18 45 -32.5t39 -14.5q14 0 22 2q12 14 29 14q10 0 30.5 -10t30.5 -10q45 -10 90 -19q51 -16 52 -61q4 -10 20 -10q25 0 31 -6q0 -41 2 -85t4 -87q0 -63 -10 -105h-117h-100 h-90h-80h-68h-61h-54h-45h-43h-37h-30h-25h-24h-71t-71 2h-18l-10 17q0 274 -2.5 541.5t-4.5 535.5q-23 127 -43 254zM96 1354l90 -404q0 18 -4 59.5t-4 65.5q0 31 7.5 56.5t20.5 41t23 15.5q6 0 23.5 -12.5t30.5 -6.5q5 12 37 44q26 27 27 52q0 5 -1 9q6 8 25 8q25 0 30 4 q33 -25 38 -87t14 -79q12 16 28.5 61.5t32.5 63.5q35 -6 53 -49q12 -41 27 -80q20 -20 33 -20q12 0 27.5 59t45.5 72q23 12 50 -6q29 -27 38 -35q0 20 11.5 48t27.5 62q16 4 25 4q25 0 45.5 -10t40.5 -30q10 20 28.5 40.5t30 31.5t15.5 40t4 33q0 20 -2 29q-33 28 -68 28 q-45 -55 -132 -62t-165 -14q-31 25 -55.5 39.5t-56.5 16.5q-16 4 -25 4q-27 0 -65.5 -30t-54 -34t-21.5 -4q-25 0 -83.5 28t-86.5 28q-16 0 -27 -2q-34 -20 -58 -33q-20 -11 -21 -36q0 -4 1 -9zM512 328q2 -47 4 -92q8 -53 51 -62q33 -6 48.5 9.5t50.5 62.5 q35 -4 61.5 -55.5t40.5 -63.5q12 -6 23 -6q23 0 57 51q28 41 55 41q6 0 12 -2l60 -119q18 16 18 41q-4 33 -4 47q0 23 27 37q5 11 5 20q0 10 -6 17q-11 14 -42 37q-10 47 -80 54t-86 13q-29 -14 -70 -14q-35 0 -65 12q-4 35 -30 41t-77 6q-25 -2 -37 -36.5t-16 -38.5z M518 748l86 -62q12 -18 25.5 -74.5t32.5 -72.5q8 35 51 123t43 147q4 5 4 16q0 5 -1 11q-3 20 -11 28q-18 -35 -46 -35q-16 -1 -53 21q-34 20 -53 20h-4q-53 0 -61.5 -58t-12.5 -64z" />
<glyph unicode="F" horiz-adv-x="1034" d="M49 1319q0 16 4 45q33 37 57.5 63.5t47.5 40.5q27 -16 111.5 -22t117.5 -41q43 0 117 42t110 42q29 0 52 -10q8 -4 71.5 -17.5t71.5 -58.5q31 12 54.5 17t51.5 5q20 0 43 -6q20 -12 27 -39q4 -35 6 -49q-8 -20 -12 -54t-4 -60v-43.5t2 -40.5q0 -45 -8 -78 q-100 -8 -185.5 -11.5t-222.5 -3.5q-14 -12 -14 -41v-26v-12q-4 -8 -4 -11q-29 -14 -44.5 11.5t-24.5 42t-13 23.5t-10 7q-8 -18 -10.5 -33.5t-2.5 -37.5q0 -25 3 -63t3 -40q18 20 50 21q20 0 59 -14.5t45 -16.5t17.5 -20.5t27.5 -14.5q16 18 33 19q16 0 37 -11l20 -37 l-6 -258l-270 -2l-8 -16v-131v-49q0 -127 -3.5 -177.5t-13.5 -146.5h-352l-17 33v403.5t1.5 407.5t3.5 410q-12 14 -15.5 28.5t-3.5 30.5zM74 1333q18 -25 41.5 -39t72.5 -37q18 -18 40 -37.5t40 -19.5q10 10 29.5 14.5t38.5 4.5q33 -2 47 -2l88 -115q20 -49 41 -98 q12 18 14 65t9 66q8 10 15 60t42 58q12 -8 22.5 -28.5t18.5 -28.5q18 6 78.5 7.5t74.5 41.5q14 8 29 8q23 0 58.5 -49.5t41.5 -54.5l7 2q-2 10 -2 31q0 27 17 85t17 76q0 31 -14 54q-8 -4 -50 -9.5t-63 -21.5q-12 -6 -20 -6q-18 0 -35.5 29.5t-23.5 42.5h-62q-34 22 -65 22 h-3q-33 0 -106.5 -43t-110.5 -43q-16 0 -24 2q-29 37 -109 39t-110 29q-49 -43 -64.5 -58.5t-19.5 -46.5zM451 733q0 -14 19 -27.5t30 -19.5q18 12 32 12q23 0 53.5 -46t61.5 -46q10 39 18.5 65.5t39.5 41.5q6 12 6 28q0 41 -33 47q-25 -18 -45 -18q-23 0 -59.5 35t-61.5 35 l-23 -4l-30 -78q-8 -14 -8 -25z" />
<glyph unicode="G" horiz-adv-x="1116" d="M51 1028q25 57 36 129t24 143q39 51 50 59.5t38 2.5q18 -8 39 -8q43 0 94 61.5t92 71.5q6 1 12 1q30 0 54 -34q30 -41 57 -41q18 0 37 8q16 16 37 17q20 0 55 -18.5t43 -20.5q18 -25 51 -33t66 -14q84 -98 135 -198.5t51 -209.5q0 -33 -6 -67q-35 -6 -72 -7q-20 0 -61 2 t-62 2q-33 0 -56.5 -2t-45.5 -10q20 -20 44.5 -29.5t55.5 -9.5q25 0 60.5 7.5t68.5 15.5q92 -51 111 -148q6 -16 6 -28q0 -18 -18.5 -51t-18.5 -54q0 -10 6 -26l-16 -37l-4 -484q-12 -10 -47 -10q-29 0 -45.5 3t-22.5 3q-8 8 -27.5 50t-44.5 53q-53 -61 -127.5 -89 t-164.5 -28q-53 0 -113 10t-151 44t-134 141.5t-43 273.5q0 35 2 108.5t2 110.5q0 49 -2 85t-10 73q-16 23 -18 89t-17 93zM72 1028q18 -18 20 -77.5t33 -71.5q84 184 170 368q20 10 37.5 -1t23.5 -38q8 -16 9 -45q-2 -37 -3 -53q0 -16 3 -25q35 6 58 56.5t33.5 58.5t24.5 8 q16 0 42 -29.5t42 -31.5q18 16 51 74.5t70 78.5q49 -12 71.5 -56t33.5 -107q12 -23 47.5 -53.5t44.5 -55.5q24 38 24 88q0 51 -16.5 95t-38 79t-78.5 47.5t-69 44.5q-16 0 -45 13.5t-37 13.5q-16 0 -31 -14q-18 -6 -37 -6q-76 0 -94 61q-9 2 -18 2q-43 0 -81 -40 q-47 -48 -86 -91l-90 14q-43 -10 -57 -80.5t-29 -87.5v-24q0 -66 -28 -115zM399 1378q2 8 4.5 14.5t12.5 8.5q12 -4 24 -6q0 -12 -18.5 -12.5t-22.5 -4.5zM461 1053q0 -135 6 -387t6 -385q4 -25 22.5 -42.5t63.5 -17.5h25q43 12 59 48t16 89q0 23 -1 46.5t-1 46.5q0 25 2 36 q-12 23 -60 25t-62 10q-2 12 -2 29.5v28.5v92q0 27 -3 35l7 24q29 12 65.5 68.5t61.5 64.5q-4 16 -6.5 46t-2.5 32v36.5t2 37.5q0 45 -7 71.5t-38 57.5q-14 -31 -43 -31q-32 0 -57 41q-29 -12 -39 -37.5t-14 -64.5zM604 707q18 -51 28.5 -77t26.5 -34q4 4 14.5 30.5 t33.5 35.5q29 -4 47 -25t29.5 -66t18.5 -85t25 -64q8 20 16.5 93t49.5 110q7 2 14 2q27 0 49 -31q27 -39 41 -45q6 43 13.5 66.5t25.5 37.5q1 10 1 20q0 37 -19 70q-23 41 -66 66q-29 -10 -88 -12t-71 -4q-8 4 -45 25q-34 20 -58 20h-4q-39 -16 -54.5 -47t-27.5 -86z" />
<glyph unicode="H" horiz-adv-x="1038" d="M47 1319v18q8 47 35 83t70 67q9 2 18 2q28 -1 52 -19q32 -24 63 -47q25 4 37 4q68 0 88 -55q12 -55 18 -229t8 -189q25 16 68 17q14 0 39 -4q51 -29 67 -78q0 70 7.5 220.5t7.5 197.5q16 66 86 90q86 18 125 30q53 0 80.5 -6t52.5 -32l20 -52l-5 -1308l-9 -23 q-49 -6 -98 -6q-51 0 -142.5 5t-109.5 5q0 100 -4.5 345t-4.5 253q-4 10 -18 11.5t-27 3.5q-25 -20 -24 -60q2 -31 2 -45q0 -23 -4 -35t-23 -24q-14 31 -23.5 58.5t-9.5 53.5q0 18 7 37q-8 10 -23.5 11.5t-28.5 3.5l-12 -23q0 -94 -6 -284.5t-6 -290.5q-29 -4 -67 -6.5 t-72 -2.5q-111 0 -232 19v166v141v123v110v99v86v74v61v55v49v43v37v31v31v24q0 37 -1 76t-1 78zM76 1360q0 -68 21.5 -130.5t58.5 -115.5q14 37 26.5 61.5t40.5 22.5q25 -31 37 -78q14 -74 31 -145q12 35 55 131t57 139q-4 43 -8 90t-55 58q-23 -12 -39 -13q-27 0 -69 45 q-36 38 -69 38q-6 0 -11 -1q-25 -12 -37.5 -31.5t-38.5 -70.5zM252 1323q2 0 29.5 -15.5t46.5 -9.5q8 -8 -1.5 -20t-9.5 -16q-14 -4 -32.5 13t-26.5 25zM422 791q0 -27 16 -50q39 -10 61.5 -48t30.5 -81v19q31 23 44.5 53.5t13.5 69.5q0 33 -8.5 72.5t-14.5 76.5 q-10 23 -32.5 30t-55.5 7q-12 2 -24.5 -13.5t-18.5 -17.5q2 -8 2 -24q0 -12 -7 -45t-7 -49zM664 1288q0 -36 36 -116q31 -69 32 -110q0 -7 -1 -13h17q8 51 22 72.5t39 33.5l55 -59q27 8 39 63t35 69.5t25 50.5t4 69q-16 33 -46 48t-67 15t-70.5 -9.5t-72.5 -25.5 q-47 -39 -47 -88zM803 1212l47 45l-37 -53z" />
<glyph unicode="I" horiz-adv-x="505" d="M55 33l2 1288q14 12 20.5 49t14.5 47q35 66 117 72q16 -8 43 -8q20 0 42.5 2t45.5 4q47 0 74 -39q10 -45 14 -112.5t4 -131.5v-112v-136v-118v-105v-92v-80v-67v-62v-55v-47v-43v-37v-31v-24v-25q0 -35 -1 -71t-1 -70v-19q-29 -6 -74 -8t-53 -2q-41 0 -119 4t-112 4z M102 1331q0 -25 2 -37q18 -20 24.5 -77.5t25.5 -77.5q8 -16 8 -41q0 -14 -6 -43t-6 -43q0 -20 9 -35.5t31 -28.5q8 14 12.5 39t4.5 41v45q0 37 7 58.5t34 39.5q25 -10 42 -61t48 -51l68 155l6 199q-6 29 -28 41t-52 12q-25 0 -49.5 -6t-32.5 -8q-12 -2 -27.5 6t-17.5 8 q-10 0 -19 -10q37 -18 23 -37q-6 2 -20.5 -2t-20.5 -2q-8 8 -4 20.5t6 18.5h-10q-31 -18 -44.5 -52t-13.5 -71zM246 1335q-2 10 12 13.5t18 9.5q10 0 28 -8.5t30 -28.5l-37 2z" />
<glyph unicode="J" horiz-adv-x="1005" d="M47 567v7q0 20 11 31q12 13 50.5 35t55.5 22q20 0 43 -13q16 -51 65 -51q18 0 47 5t33 5q33 0 52.5 -26.5t30.5 -65.5t11 -121v-106q4 -53 17.5 -82t37 -31t25.5 -2q25 14 35 21.5t12 19.5q0 244 5.5 624t5.5 441q-8 14 -9 29q0 12 4.5 21t23 43t90.5 52.5t95 59.5 q18 6 35 6q35 0 63.5 -20.5t45.5 -53.5l18 -182l2 -989q0 -66 -42 -118t-109.5 -75.5t-147.5 -38t-159 -14.5q-117 0 -219.5 35t-172.5 110q-31 70 -35 216.5t-20 205.5zM70 567q-1 -6 -1 -13q0 -50 56 -98q63 -55 74 -87q27 -8 46 11l38 38q37 0 64.5 -47t35.5 -54l10 11 q10 41 18.5 75.5t8.5 63.5q0 33 -8.5 58.5t-32.5 47.5q-14 8 -35 9q-18 0 -35 -9q-20 -4 -30 -4q-53 1 -84 58q-10 2 -20 2q-27 0 -52 -13q-33 -18 -53 -49zM156 481q16 -4 36.5 -7t30.5 -1v-14q-10 -6 -18 -6q-14 0 -23.5 6t-25.5 22zM600 1319q16 -57 28.5 -94t37.5 -60 q20 25 43 19q29 -16 47 -56q12 -35 26 -69q2 -37 4 -78t33 -49q57 174 115 348q0 49 -21 98l-36 76q-25 10 -50 10q-8 0 -24 -4q-20 -39 -104.5 -62.5t-98.5 -78.5zM795 1386q-2 4 8 12.5t18 8.5t15 -10q-12 2 -23.5 1.5t-17.5 -12.5z" />
<glyph unicode="K" horiz-adv-x="1169" d="M53 1296q0 29 19.5 69t43 82t91.5 42q16 0 24 -2q16 -39 97.5 -75t97.5 -77q27 6 23 -35q8 -35 8 -75q0 -27 -4 -76t-4 -72q0 -33 6 -67q8 35 69.5 67.5t69.5 67.5q23 70 45.5 110.5t59 104t50 70t33.5 6.5q14 0 42 -5.5t34 -5.5q29 0 39 10t18 33q20 14 43 15 q53 0 78 -53q10 -10 18 -60q8 -45 45 -46q4 0 9 1q-12 -37 -88 -172t-76 -223l-18 -23h-7q-43 1 -75 -69q-35 -76 -49 -90q82 -184 173 -385t148 -355q-70 0 -138.5 -2t-135.5 -4q-70 0 -144 6q-121 268 -241 537q-8 -31 -11.5 -218.5t-3.5 -240.5v-59.5v-14.5l-352 -6 l-14 17v1214q-23 25 -23 59zM84 1315q0 -41 55.5 -121t57.5 -90q25 12 43 12q39 0 59 -74.5t35 -87.5q47 53 66.5 125t19.5 156v49q-4 20 -4 29q-16 41 -80 57t-80 47l-35 51q-8 2 -20 2q-37 0 -62.5 -53t-48.5 -65q-6 -18 -6 -37zM174 1401q2 8 19 8q27 0 30 -20 q-24 6 -49 12zM467 920q0 -27 12 -43q-6 -10 -6 -19q0 -12 9.5 -35.5t13.5 -40t8 -35t26 -18.5q55 156 111 311q6 6 12 8.5t11 2.5q10 0 32.5 -12.5t34.5 -4.5q27 63 47.5 106.5t71.5 43.5q6 -57 30.5 -123t41.5 -109q16 35 31.5 119t47.5 123q0 23 23 66t23 67q0 18 -13 41 q-6 31 -18 54.5t-35 31.5q-61 0 -84 -28.5t-45 -28.5q-12 0 -36.5 8t-37.5 8q-23 0 -56.5 -50t-70.5 -123t-55 -146q0 -43 -37 -43q-20 2 -31 2q-31 0 -41 -31q0 -16 -10 -51t-10 -51zM870 983l4 14zM887 1378q4 6 8 15q14 8 18 -7q-13 -8 -23 -8h-3zM944 1417q0 9 9 9h1 q10 -1 13 -5q-2 -4 -10.5 -4h-12.5z" />
<glyph unicode="L" horiz-adv-x="1046" d="M51 45l17 1356q18 41 60 65.5t85 24.5q66 0 98 -53q35 -4 59.5 -11.5t32.5 -44.5q20 -37 26.5 -78.5t6.5 -97.5q0 -25 -2 -74t-2 -73l2 -617q12 -8 29.5 3.5t34.5 23.5q12 -4 83.5 -9t94.5 -44q37 8 120 52t136 44q20 0 31 -2q37 -35 44 -94.5t11 -98.5l-2 -305l-17 -14 q-82 0 -165.5 2t-167.5 4q-23 -33 -62 -33q-12 0 -24 6l-15 23h-506zM88 1391q0 -18 26.5 -87t24.5 -96q10 -35 25 -34q8 0 35.5 23.5t48.5 16.5q6 -10 17 -103t59 -116q29 29 30.5 75t3.5 75q0 31 26 90t26 84q0 43 -41 70l-74 20q-23 20 -47.5 43t-52.5 23q-16 0 -33 -9 q-39 -12 -56.5 -31.5t-17.5 -43.5zM152 1425q24 25 56 25q8 0 17 -2q-6 -6 -33.5 -11t-39.5 -12zM434 324q0 -53 76 -131q69 -71 69 -131q0 -6 -1 -13q6 -25 12 -40t26 -15q31 53 62 108q37 57 90 86q16 6 29 7q31 0 71.5 -49.5t67.5 -49.5q27 41 38 89t11 108q0 29 -4 67.5 t-8 69.5q-1 27 -23 43q-15 11 -35 11q-10 0 -22 -3q-37 0 -104.5 -49t-100.5 -49q-37 0 -67 37l-127 18q-20 -12 -31.5 -29.5t-20 -43t-8.5 -41.5zM567 276q10 -16 51 -40.5t48 -51.5q-29 0 -57 28.5t-42 63.5zM866 330l23 41q18 -2 27.5 -13.5t9.5 -42.5q0 -37 8 -49 q-6 4 -24.5 36t-43.5 28z" />
<glyph unicode="M" horiz-adv-x="1376" d="M63 1305q0 35 34 78.5t42 60.5q35 45 82 45q35 0 62 -27q29 -12 46 -55t36 -55l118 102q36 24 69 24q7 0 13 -1q35 -8 54.5 -35t29.5 -68q-8 -31 -8 -67q0 -27 8 -82.5t8 -81.5q12 -6 21 -6h39q18 29 32.5 106.5t41.5 104.5q0 39 34.5 78t79.5 59q16 4 25 4q33 0 89 -44 t83 -44q25 0 47 16q27 10 43 15.5t29 5.5q12 0 33.5 -10.5t33.5 -45.5q12 -53 27 -106l-4 -1262l-8 -10q-35 0 -100.5 -2t-98.5 -2q-45 0 -80 2t-78 10q0 90 -2 328t-2 352l-12 -18q-29 -141 -57.5 -297t-63.5 -361q-27 -8 -52.5 -10t-60.5 -2q-25 0 -76 2t-75 2l-17 27 q-61 309 -120 620l-9 -12v-80v-67v-62v-51v-45v-43v-37v-31v-24v-25q0 -35 -1 -70.5t-1 -72.5v-19q-49 0 -100 -2l-102 -4q-55 0 -105 6l-12 37l4 1198q-10 14 -14.5 27.5t-4.5 26.5zM102 1317q0 -14 7.5 -37t7.5 -33q16 -25 43 -24q18 0 48 11t34 11q27 -10 50 -34.5 t46 -59.5q16 6 49 8t57 6q31 -18 54.5 -78.5t56.5 -74.5q4 33 9 53t22 37q12 33 12 72q0 18 -1 38.5t-1 40.5q29 12 29 50q0 14 -5.5 42.5t-5.5 34.5q-4 34 -34 52q-23 14 -48 13q-8 0 -16 -1q-12 -4 -65.5 -58.5t-79.5 -54.5q-14 0 -31 6q-4 10 -26.5 23.5t-22.5 25.5 q0 8 6 19q-16 23 -38.5 37t-51.5 22q-33 -8 -51.5 -34.5t-36 -62.5t-17.5 -50zM176 1415q12 16 29 17q20 0 31 -19v-8q-4 14 -33 14q-19 0 -27 -4zM508 1382q2 10 20 11q17 -1 27 -7l-2 -10q-8 2 -25 2q-14 0 -20 4zM659 1044q0 -43 23 -80.5t57 -72.5l4 131l-22 41 q-8 4 -8 16q0 25 -15 31q-6 2 -19 -4t-13 -19q-6 -23 -7 -43zM807 1239q0 -35 16 -61q2 2 16.5 28.5t30.5 34.5l27 -22q45 -39 59 -113q8 -88 15 -123q10 96 16 161.5t43 110.5q33 0 41 -6q10 -27 15.5 -45t5.5 -41q0 -16 -2 -24q4 -31 32 -49q23 -15 50 -16q6 0 12 1 q41 27 56 65t40 126q8 18 8 39q0 27 -13 51t-36 47q-12 6 -25 6q-16 0 -41.5 -11.5t-45 -19.5t-33.5 -8q-31 0 -82 45t-88 45q-13 0 -21 -2q-29 -10 -49 -37.5t-35 -46.5q2 -10 2 -31q0 -18 -7 -55t-7 -49zM891 1401q20 20 35 20q10 0 16 -10zM1163 1370q3 6 10 6q3 0 5 -1 q12 -3 30 -7z" />
<glyph unicode="N" horiz-adv-x="1019" d="M47 47l4 1253q20 6 21 25q-4 25 -6 37q10 66 18 90.5t49 24.5q25 8 52.5 -21t43.5 -26q4 2 37 30.5t56 28.5q39 -12 85 -64.5t60 -62.5q14 -72 30.5 -152t53.5 -127q23 14 36 23.5t23 9.5q14 0 33 -18q20 10 16 18q4 16 4.5 33.5t0.5 28.5q0 14 -2.5 48t-2.5 50 q0 47 11.5 80t48.5 61q16 23 33 45q6 1 12 1q61 0 100 -56q4 -27 21 -29q14 -2 26.5 0t26.5 6q8 0 18 -6q0 -176 4 -424.5t8.5 -499.5t4.5 -444l-21 -10h-346q-113 279 -225 559l-6 -18l-6 -521l-13 -14q-47 0 -147 2t-152 2zM84 1348q0 -41 16.5 -126t18.5 -108 q20 18 36.5 40t16.5 44q14 14 27 14q16 0 35.5 -43t41.5 -51q6 18 19.5 70.5t23.5 81.5q27 0 48.5 -19.5t34 -32t16.5 -45t22 -36.5q10 33 23 65q14 20 14 43q0 18 -13 51t-28 72q-27 0 -58.5 47t-60.5 47q-18 -4 -38.5 -22.5t-30.5 -26.5t-19 -8q-16 0 -46.5 27.5 t-45.5 27.5q-18 0 -37 -16q-8 -18 -12 -45t-4 -51zM205 1335q12 16 25.5 21.5t25.5 1.5q-10 -10 -24.5 -22.5t-26.5 -0.5zM561 936q0 -14 4 -24.5t4 -26.5q0 -14 -2 -29.5t-4 -30.5q0 -29 21 -39q-6 33 5 43.5t36 10.5q25 -2 34 -2q33 0 33 30q0 109 -51 201q-14 20 -37 21 q-18 0 -29 -19q6 -16 7 -31q0 -18 -10.5 -56t-10.5 -48zM686 1305q47 -35 72.5 -73t111.5 -198q8 18 17 37q0 41 29.5 119t29.5 108q0 27 -12 58q-23 -14 -39 -15q-18 0 -48.5 44.5t-55.5 46.5q-5 1 -9 1q-39 1 -65 -59q-29 -66 -31 -69z" />
<glyph unicode="O" horiz-adv-x="1046" d="M49 596q0 68 6 197t6 186q29 55 29 129q0 39 -5 72.5t-17 85.5q18 35 50 62.5t77 57.5q10 -8 24 -8q16 0 54 20.5t51 20.5q23 0 37 -18.5t26 -30.5q20 4 53 40t58 36q14 4 40.5 -13.5t39.5 -17.5q16 0 26 17q23 23 49.5 40t51.5 17q28 0 53 -23q25 0 51.5 -19.5 t42.5 -43.5q31 -88 68.5 -191.5t54 -257t16.5 -333.5v-31v-31v-24q0 -39 -1 -77t-1 -75v-18q-12 -115 -90 -213.5t-186 -128.5q-68 -12 -115 -17.5t-102 -5.5q-98 0 -181.5 26.5t-142.5 86.5q-72 90 -97.5 208.5t-25.5 274.5zM90 1249q8 -43 14.5 -70.5t24.5 -50.5 q18 -6 33 -6q39 0 63 35q20 -14 41 -14q33 0 61.5 37t47.5 59q12 6 20 6q18 0 44 -18.5t34 -20.5q12 -20 51 -20h31q-1 8 -1 16q0 35 28 68q5 1 11 1q54 0 93 -76q43 -83 72 -99q8 6 11 44t32 38q49 -57 75.5 -190.5t36.5 -160.5q2 12 2 26.5v20.5q0 33 -2 64t-4 61 q0 39 3 55.5t16 47.5q-14 14 -23.5 70.5t-48.5 62.5q-6 23 -10 78t-18.5 83.5t-77 48t-72.5 25.5l-96 -94q-18 -4 -37 27q-16 14 -37 14q-23 0 -43 -18q-31 -35 -59 -68q-23 0 -35.5 10.5t-30.5 34.5q-12 6 -25 6q-14 0 -49 -22.5t-51 -22.5t-29 11q-33 -6 -57.5 -35 t-38.5 -64zM203 1266l6 8q10 0 21.5 -6t25.5 -25q-12 -10 -23.5 -3t-29.5 26zM434 639q0 -104 3 -147t14 -132q31 18 51 13q10 -18 53 -36t51 -42v774l-22 59q-14 0 -26.5 -24.5t-29.5 -24.5q-12 8 -21.5 35t-27.5 27q-12 -8 -21 -25.5t-14 -25.5q0 -111 -5 -273t-5 -178z M453 180q0 -18 12 -18q27 10 37 12q18 -51 37 -102l28 2q4 23 13.5 60.5t9.5 51.5q0 35 -23 60q1 6 1 11q0 27 -34 49q-41 26 -45 32q-34 -12 -34 -51q0 -16 3 -41t3 -27q0 -23 -8 -39zM643 1339l4 9q14 -29 43 -29q14 0 31 12q-4 -29 -27 -37q-23 0 -34 15.5t-17 29.5z" />
<glyph unicode="P" horiz-adv-x="1050" d="M51 1305q33 14 68 78.5t74 64.5q12 0 25 -4t44 -27.5t57 -13.5q27 35 58 60.5t65 25.5q29 0 58 -25q27 -12 47 -41.5t39 -56.5q20 0 76 32q46 26 75 26q6 0 11 -1q74 -16 120.5 -74.5t59.5 -136.5q45 -57 59 -131.5t14 -175.5q0 -92 -33.5 -169t-109.5 -113 q-100 -37 -210.5 -41t-217.5 -4l-10 -19q8 -92 8 -221q0 -61 -1 -141t-3 -179l-16 -18h-336l-17 12zM86 1284q0 -55 45 -90q18 -6 27.5 24.5t27.5 32.5q63 -16 75.5 -114.5t19.5 -108.5q10 47 40.5 91t75.5 91q25 47 52 47q18 0 64 -43t69 -43q41 18 58 28.5t32 33.5 q29 14 53 14q53 0 89 -103.5t73 -123.5q10 -10 18 -42t23 -38q-6 41 -15.5 153.5t-15.5 166.5q-51 96 -143 135q-16 4 -25 4q-25 0 -68 -31t-69 -35q-27 14 -41 28.5t-14 35.5l-41 45q-23 14 -47 14q-39 0 -84 -41q-31 -33 -46 -45q-4 -1 -8 -1q-26 1 -70 23q-51 26 -65 25 l-82 -90q-8 -18 -8 -43zM426 1001q0 -55 14 -67q23 39 45 39q14 0 52 -39q30 -31 54 -31q6 0 11 2q10 18 10 51q0 16 -3 38t-7 48q-14 23 -40.5 34t-61.5 11q-23 0 -35 -2t-35 -8q-2 -23 -3 -42t-1 -34zM438 813q0 -78 33 -133q25 0 36 23.5t21 46.5q12 10 25 10 q14 0 23.5 -26.5t15.5 -31.5q0 18 11 56.5t11 52.5q0 29 -16 47q-16 -6 -25 -6q-20 0 -34.5 33t-28.5 39q-4 4 -11 6t-12 2q-14 0 -28 -21q-20 -41 -21 -98zM440 1325l2 12l29 -4v-18q-4 -4 -9 -4q-2 0 -5 1q-8 3 -17 13z" />
<glyph unicode="Q" horiz-adv-x="1034" d="M49 541q0 86 5 231.5t5 167.5q25 59 27 177t23 173q23 31 45 64q31 37 63 37q12 6 23 6q12 0 45.5 -13.5t54.5 -5.5q10 8 48 51.5t75 49.5q39 2 59 2q31 0 49.5 -7.5t26.5 -33t11 -41t9 -21.5q2 2 37 21.5t58 19.5q16 0 24 -2q-2 -8 2 -11t11 -5l12 6l102 -143 q31 -12 55.5 -64.5t30.5 -60.5q18 -113 25.5 -230.5t7.5 -263.5v-37v-35v-30v-25q0 -39 -1 -77t-1 -76v-25q-12 -94 -65.5 -171t-139.5 -118l-135 -49q20 -41 46 -77t138 -183l-4 -18h-366q-16 55 -27.5 125.5t-21.5 136.5q-12 14 -50.5 18t-85.5 19.5t-112.5 78t-81 132 t-21.5 151.5t-6 156zM104 1169q0 -20 2 -30q72 -29 98 -38q19 -6 45 -6q12 0 25 1q23 41 38.5 61.5t45.5 44.5q20 -6 44 -39t35.5 -41t22.5 -39.5t34 -35.5q12 23 27.5 90t64.5 88q33 -12 67.5 -82t42.5 -76q10 18 11 45q0 12 -2.5 28.5t-2.5 24.5q6 33 31 33q27 0 55 -29 q8 -49 38 -111.5t38 -73.5t16.5 -60.5t22.5 -69.5q8 14 10 30.5t2 37.5v43t5 34q18 47 18 82q0 74 -88 177.5t-102 132.5q-8 2 -25 2q-59 0 -92 -45q-31 -4 -44.5 37.5t-21.5 56.5q-29 12 -53 12q-47 0 -85 -29t-91 -86q-20 -8 -56 8.5t-49 16.5q-12 0 -69.5 -30.5 t-57.5 -164.5zM383 1286q9 28 25 28q7 0 16 -7q2 1 4 1q8 0 8 -14zM428 801q0 -74 4 -246t4 -186q20 12 43 24q11 4 21 4q27 0 46 -29q27 -38 52 -73q0 178 5 445.5t5 314.5q-10 25 -22 37t-39 18q-2 -8 -2 -27q0 -31 -3 -44t-26 -23q-25 -6 -36 0t-42 28q-6 -57 -8 -144 t-2 -99zM446 242q0 -43 48.5 -127t48.5 -115q0 106 65 182q2 8 2 14q0 14 -8 24q-12 16 -33 30q-27 53 -43 79.5t-32 26.5h-1q-20 0 -42 -32q-6 -6 -1 -21.5t5 -17.5q-8 -18 -9 -43z" />
<glyph unicode="R" horiz-adv-x="1052" d="M51 1335q4 6 29.5 61.5t50.5 73.5q39 2 57 3q31 0 49.5 -9.5t31 -41t30.5 -25.5q5 -1 11 -1q36 0 92 34q64 38 90 38q41 0 67 -49q8 -25 22.5 -42t32.5 -25q14 14 51 71.5t76 65.5q49 0 77 -47t52 -90q8 10 21 10q33 0 41 -35q12 -31 20.5 -58.5t9.5 -58.5v-20 q23 -57 31 -123t8 -147q0 -74 -45 -137.5t-118 -92.5q78 -33 104.5 -111.5t26.5 -199.5q0 -33 -2 -100.5t-2 -100.5q0 -51 3 -81.5t11 -59.5q-18 -25 -35 -29q-25 -2 -49 -8l-227 8q-6 6 -31 11.5t-27 23.5t-4 60t-2 110v92q0 84 -5 139.5t-21 108.5q-8 8 -28 12t-34 4h-76 l-14 -22q0 -66 4 -210t4 -149v-112q-6 -47 -8 -70l-352 -6l-13 8q0 301 -5 778.5t-5 548.5zM76 1307q0 -33 33 -58q39 0 54 -15t15 -46q0 -14 -4 -48t-4 -36q0 -25 10 -37l19 8q4 31 58 84t60 80q16 14 35 14q27 0 65 -43t50 -49q12 -12 35.5 -55t50.5 -51q8 55 27.5 95 t62.5 103q25 -35 51.5 -68.5t57.5 -62.5l45 72q76 0 103.5 -106.5t41.5 -122.5q6 14 8 27.5t2 27.5q0 12 -2 36.5t-2 39.5q0 25 8 49q-27 23 -28.5 92.5t-32.5 91.5q-20 -4 -27 -4q-33 0 -54 62.5t-54 72.5q-51 0 -87 -64.5t-59 -78.5q-37 0 -61.5 41t-44.5 78q-6 1 -12 1 q-40 0 -94 -33q-64 -38 -101 -38q-16 0 -31.5 4t-29 35t-31.5 39q-20 4 -44 -4t-44 -15q-23 -59 -45 -118zM238 1300q-1 2 -1 5q0 5 3 12l32 -4q-2 -2 -13 -10.5t-15 -8.5t-6 6zM430 981q0 -29 1 -46t7 -69q6 8 15.5 16.5t20.5 20.5t28 12q10 0 31.5 -9t29.5 -13q8 8 19 8 q6 0 32 -16q6 35 7 63q0 49 -23 101q-18 -47 -35 -48q-2 0 -39 40t-61 40q-11 0 -23 -6q-6 -20 -8 -55t-2 -39zM451 803q0 -20 4 -37.5t6 -28.5q18 0 33.5 23.5t27.5 21.5q14 -10 31 -34q14 12 14 34q0 39 11 47l-5 15q-12 2 -38.5 12t-38.5 10q-25 0 -35 -21.5t-10 -41.5z " />
<glyph unicode="S" horiz-adv-x="1265" d="M57 236q20 45 65.5 105t102.5 134q33 -4 66 -6q16 20 35 41q12 -10 91 -26.5t91 -69.5q18 6 58 31.5t61.5 29.5t29.5 4q31 0 65 -42t62 -42l23 4q14 25 -4.5 41.5t-52.5 34.5q-231 53 -461 109q-139 59 -175 156.5t-36 156.5q0 41 3 60.5t21 93.5q-26 51 -26 112 q0 39 10 86q20 49 46 82t71 47q18 -6 30 -6q33 0 65 56q29 51 67 52q4 0 8 -1q18 12 33 12q20 0 47.5 -25.5t38.5 -25.5q18 0 40 33q86 -25 173 -50q27 12 61.5 23.5t71.5 17.5q45 -27 71.5 -51t91.5 -94q25 -68 95 -107q-8 -12 -6 -18q4 -6 13 0t11 4q-16 -53 -74.5 -136 t-68.5 -104q-12 4 -23 5q-33 -4 -49 -5q-20 0 -31.5 9.5t-11.5 40.5q-63 29 -127.5 48t-124.5 19q-39 0 -72.5 -10t-62.5 -35q6 -10 6 -18t-6 -28.5t-6 -31.5l63 -32q207 -47 416 -93q233 -84 250.5 -209.5t17.5 -154.5q0 -98 -43 -185.5t-120 -160.5q-72 -61 -169.5 -89 t-213.5 -28q-82 0 -162 14.5t-152 38.5q-96 41 -167.5 83t-125.5 100zM92 1155q6 -29 9 -42t14 -15q8 18 24 18q12 0 27.5 -6t36.5 -12q0 27 27.5 42t60.5 15q14 -10 23.5 -41t17.5 -41q33 -63 46 -82.5t40 -23.5q-4 18 12 22l14 232q20 37 39 36q17 0 63 -44q36 -34 63 -34 q8 0 16 3q0 39 13 70.5t44 47.5q100 0 149.5 -135t75.5 -157q0 33 -8 76.5t-14 86.5q-12 18 -13 46q0 29 15 40q16 4 22 5q29 0 65 -30t50 -42l-4 8q8 8 8 19q0 20 -27 38q-12 55 -63 103q-51 39 -100 80q-16 0 -38 -8.5t-40 -14.5q-28 -26 -60 -26h-2q-23 0 -81 26.5 t-80 26.5q-18 -16 -30.5 -24.5t-27.5 -8.5q-8 0 -20 6q-8 27 -49 30t-43 5q-18 -8 -37 -16q-14 -10 -17 -25q0 -47 -51 -59q-43 -6 -84 -13q-47 -27 -66.5 -73.5t-19.5 -108.5zM297 399q41 -37 71.5 -90t59.5 -104h16q2 2 19.5 47t42.5 45q14 0 33.5 -11.5t26.5 -27.5 t22 -63q33 -8 42 31.5t21 47.5q43 0 100.5 -72.5t63.5 -74.5q-8 27 -8 61q0 25 8 74t8 76q-10 18 -29.5 27.5t-45.5 13.5q-26 0 -50 37q-21 31 -47 31q-5 0 -10 -1q-2 -2 -38 -16t-48 -35q-14 -8 -31 -8q-10 0 -27.5 5t-27.5 7q-6 49 -53 56.5t-90 13.5q-14 -12 -20.5 -34.5 t-8.5 -35.5zM317 1239q5 -10 21 1q11 7 16 7q3 0 6 -2q-2 -6 -14 -12q-5 -3 -10 -3l-14 5z" />
<glyph unicode="T" horiz-adv-x="1210" d="M55 1354q0 -29 27 -41l-10 86q-16 -23 -17 -45zM72 1399l10 -86q-8 -66 -8 -144q0 -74 14 -139h154q49 0 99 -2t99 -8q0 -92 -1 -184.5t-1 -184.5q0 -174 4 -322.5t19 -297.5l10 -29l320 -2l20 18l-14 983l12 33l209 8q20 -16 36.5 -48.5t32.5 -61.5q27 4 31 56t33 61 l6 217q-6 41 -35.5 76.5t-77.5 66.5q-27 10 -53 10q-41 0 -69 -28q-12 -6 -21 -7q-23 0 -44 27t-46 62q-6 2 -23 2h-30q-29 0 -41 8q-33 -12 -62.5 -44t-42 -45.5t-22.5 -13.5t-22.5 13.5t-22.5 25.5q-23 12 -47.5 28.5t-36.5 39.5q-12 2 -22 2q-15 0 -27 -5 q-20 -9 -66.5 -43t-66.5 -34q-18 0 -55.5 29.5t-57.5 29.5q-14 0 -37 -12q-14 -4 -29.5 -20.5t-27.5 -34.5zM88 1362q0 18 9 31.5t30 29.5q12 6 25 7q16 0 38.5 -15.5t34.5 -23.5q23 -6 41 -7q35 0 68.5 16.5t60.5 43.5q14 14 27 14q10 0 25.5 -12t29.5 -23h3q28 0 52 -40 q26 -42 43 -42q12 0 31 13q49 43 82 70.5t68 27.5q23 0 41 -8q41 -55 55 -69.5t53 -14.5q20 2 54 15.5t51 13.5q14 0 30 -7q4 -4 40 -51t36 -71q0 -23 -16 -46q6 -16 -7.5 -30.5t-13.5 -22.5t8 -16q2 -23 5.5 -42.5t3.5 -41.5q0 -31 -9 -53q-25 25 -49 80t-53 120 q8 18 -4 30.5t-31 21.5q-31 -8 -58.5 -30t-39.5 -50q8 -8 8 -19q-8 -29 -8 -41q-6 2 -37 20.5t-51 18.5t-37 -14q-31 -37 -39 -129t-22 -123q-39 41 -74 147.5t-82 149.5q-14 6 -34.5 11t-31.5 5q-16 0 -30 -8l-35 -31q-25 10 -67 60.5t-66 50.5q-25 0 -49 -23 q-16 -4 -21 -4q-31 0 -53.5 48.5t-34.5 62.5zM551 1290l74 -24q12 0 34 12q0 -29 -53 -39h-4q-22 1 -32 23q-11 24 -19 28zM678 1305h14q-2 -14 -6 -15zM748 1374q23 -10 37 -18t24 -27q-3 -4 -9 -4q-9 0 -26 10q-14 19 -26 39z" />
<glyph unicode="U" horiz-adv-x="991" d="M45 1298q8 70 17.5 119t50.5 72q25 -4 51 -8t33 -27v-27q0 -23 10 -32q14 8 18 0v-9q-16 -4 -20 -4q-25 0 -27 48.5t-31 48.5q-8 0 -24 -6q-18 6 -27.5 -8.5t-15.5 -26.5q0 -20 -1 -41t-1 -39q0 -41 12 -66q-14 -12 -14 -28t13 -43t13 -31l11 -12q14 16 14 32 q0 10 -4 27.5t0 32.5q14 -6 31.5 6t21.5 12q8 0 32.5 -24.5t47.5 -59.5t27 -80q10 -8 26.5 -38.5t32.5 -34.5q14 20 19.5 43.5t5.5 60.5q-2 45 -2 66q0 35 8 59q-4 16 1 35.5t5 25.5q-23 8 -47.5 39t-44.5 60q-18 -2 -30.5 -7.5t-20.5 -17.5q-8 8 4 22.5t26.5 18.5t22.5 4 q23 0 49.5 -39t54.5 -39l13 -45q0 -170 1 -350t7 -327.5t24 -321.5q6 6 21.5 45t32 42t23.5 3h9q33 0 56.5 -47t40.5 -57q0 188 1 436t3 555q4 4 32.5 66.5t67.5 78.5q18 -4 39 -8q23 -8 37 -27q0 -23 3 -36t15 -25q18 -2 33.5 25.5t38.5 19.5q29 -43 33 -116.5t8 -139.5 q0 -104 8 -303t8 -295q0 -106 -6 -195.5t-24 -191.5q-45 -98 -134.5 -137t-218.5 -39q-51 0 -134 7t-126 11q-72 0 -125 34t-82.5 82t-39 69.5t-9.5 48.5q0 219 -1 435t-1 417.5t-2 201.5zM256 1323q12 2 21.5 -5t19.5 -13q-2 -4 -12.5 -4.5t-14.5 -0.5zM444 279 q10 -31 24.5 -64t43.5 -47q14 -30 24 -50q8 -16 22 -15q4 0 9 1q13 54 23 94q7 28 7 52q0 10 -1 20q-35 72 -74 127q-37 0 -51 -41t-27 -77zM664 1323q74 -88 105.5 -138t31.5 -118q6 -6 23.5 -27.5t21.5 -29.5q20 31 24 117.5t18.5 106t17.5 27t3 15.5q0 16 -14 46t-12 48 q-14 0 -30.5 -21.5t-33.5 -17.5q-23 8 -36 27.5t-5 42.5q-4 20 -21 25.5t-48 5.5q-18 -25 -31.5 -52.5t-13.5 -56.5z" />
<glyph unicode="V" horiz-adv-x="1064" d="M49 1329q0 59 23.5 102.5t74.5 57.5q29 0 57.5 -22.5t55.5 -45.5q10 0 30.5 14.5t33.5 14.5q12 0 22 -10q47 -14 53 -60q0 -55 29 -73l70 -322q12 -6 33.5 3t29.5 9t21 -6l22 -57q37 88 64.5 223t52.5 258q0 27 18.5 41t42.5 14q9 3 18 3q26 -1 44 -23q24 -30 47 -57 q20 2 45 35.5t53 33.5q27 -16 27 -53q0 -23 -4 -33t-8.5 -20t-8.5 -27q20 -6 21 -26q-2 -23 -4 -43q-47 -190 -97.5 -409.5t-105.5 -466.5t-88 -384l-393 6q-55 264 -99.5 461t-93.5 424t-86 438zM80 1372q0 -70 27.5 -124t87.5 -91q8 2 16 26.5t29 22.5q39 -49 63.5 -106.5 t24.5 -114.5h10q0 35 18.5 118t18.5 116q14 20 14 43q0 18 -10 56t-10 48q-12 23 -24.5 37t-35.5 10q-20 -31 -43 -31q-18 0 -61 39t-47 41q-20 0 -39 -11t-35 -30q-4 -33 -4 -49zM512 940q8 -8 8 -39q0 -45 10 -57q10 -39 11 -92q0 -37 -2 -76t-4 -76q0 -41 7 -71.5 t27 -65.5q18 23 27.5 51.5t9.5 56.5q0 27 -11 94.5t-11 90.5q-6 12 -6 26q0 16 2 34l4 36q0 12 -2 18q-10 10 -15 53.5t-28 49.5q-27 -18 -27 -33zM727 1307q14 -16 22.5 -38t8.5 -59q0 -31 -5 -78t-5 -53q0 -27 4 -46t18 -38l25 168q16 14 25 58.5t30 54.5q0 -37 35 -90 t39 -76q27 49 43 159.5t26 143.5l-22 23l-51 -66q-16 -10 -33 -10q-23 0 -46.5 40t-35.5 48q-20 4 -27 4q-27 0 -34 -19.5t-7 -54.5q0 -25 -1 -42t-9 -29z" />
<glyph unicode="W" horiz-adv-x="1792" d="M87 1312.5q5 8.5 20.5 63t50.5 64.5q20 6 50 -10.5t66 -34.5q23 0 31 51q37 6 53.5 -10.5t42.5 -53.5q8 -6 13.5 -36.5t34.5 -24.5q25 -59 62.5 -219t45.5 -182q12 2 37 2q18 0 34.5 -1t30.5 -1l93 409q-16 10 -17 37q0 23 19.5 51.5t50.5 48.5q25 0 47 -12t43 -33 q12 4 45.5 36t60.5 32q63 0 82 -74t40.5 -174t78.5 -307q10 6 30.5 26.5t33.5 20.5l41 -8q25 84 51 179t26 167q0 31 -2 45q18 33 34 60.5t38 37.5q6 1 11 1q33 0 41 -45q10 -52 26 -52q10 0 33 12q16 25 37.5 41.5t48.5 16.5q12 0 18 -2q43 -43 43 -105q0 -37 -22.5 -114.5 t-22.5 -114.5q-39 -152 -81 -341.5t-90 -414.5t-75 -334q-63 -8 -149 -8q-37 0 -111 2t-106 2l-13 14l-131 594l-20 -22l-119 -582h-364q-35 125 -76 297t-79 338t-75 303q-6 2 -23.5 -4t-22.5 18.5t-5 61.5q0 20 2 62t2 63q0 41 -5 64.5t-22 54.5q-22 0 -22 22q0 14 5 22.5 zM113 1323q53 -113 53 -250q0 -31 -2 -45q35 31 43 70t8 106q8 31 20.5 40t28.5 1q45 -178 92 -354q20 94 33.5 142t27 69.5t14.5 33t3 19.5q0 16 -12 49t-12 51q0 12 6 25q-18 18 -36 69.5t-46 71.5q-16 -4 -38 -31.5t-24 -29.5q-7 -2 -13 -2q-25 0 -48 30q-24 33 -51 34 q-4 0 -8 -1q-23 -12 -27 -50t-12 -48zM582 885q8 -98 15 -167t42 -120q20 18 31.5 45t11.5 55q0 35 -15.5 87.5t-27.5 99.5q-10 8 -31 8q-18 0 -26 -8zM772 1378q0 -39 48 -114.5t48 -116.5q18 2 35 39t43 37q45 -119 90 -236q14 29 19.5 64.5t5.5 85.5v75q0 31 1 62t11 63 q-14 49 -24 82t-43 43q-29 0 -43.5 -15t-44.5 -61q-10 -6 -19 -6q-18 0 -44 28t-42 28q-12 0 -27 -9q-14 -23 -14 -49zM1210 874q33 -117 68 -231q8 41 15 61.5t7 38.5q0 23 -9 58t-9 47q0 14 6 31q-12 14 -16 37.5t-12 35.5q-18 -8 -30.5 -35.5t-19.5 -42.5zM1411 1356 q0 -20 10 -47q-8 -10 -8 -25q0 -16 15.5 -43t15.5 -37q16 2 16 29q6 10 15 10q12 -4 20 -4q31 -20 23 -51q16 -31 20 -106.5t21 -106.5q0 68 60 188.5t60 179.5q0 16 -9 41t-28 25q-10 0 -41.5 -31.5t-58.5 -31.5q-12 0 -18 2h-6q-30 0 -37 41q-8 45 -33 45q-37 -35 -37 -78 z" />
<glyph unicode="X" horiz-adv-x="1202" d="M53 12q156 324 314 647v31q-154 303 -306 606q-6 35 -6 68q0 58 25 111q12 14 41 14h55q14 -35 25.5 -57.5t38.5 -28.5q25 12 47 15t61 3h19q9 -4 39 -41q26 -33 52 -33q3 0 7 1q-2 -10 -2 -31q0 -43 25.5 -90t50.5 -90q33 16 51 16t31 -10q20 31 46.5 89t39.5 81 q-16 18 -17 47v41q10 29 18.5 47t28.5 27q8 2 15 2q28 0 50 -36q28 -46 38 -46q16 0 41 45q16 8 30 8q20 0 51 -34t56 -34q10 -27 21.5 -57.5t11.5 -52.5q0 -29 -17 -47q6 -80 13 -158q0 -63 -17 -113q-20 -10 -31.5 9.5t-19.5 37.5q-4 27 -7 46.5t-11 35.5l-33 -32 l-154 -322l8 -37q186 -315 367 -674q-70 0 -233.5 -4t-176.5 -4q-27 37 -87 158t-77 147l-32 -34l-121 -269q-39 -6 -100.5 -8t-69.5 -2h-25h-73.5t-73.5 2h-19zM84 1395q0 -84 53 -135q16 10 31 10q16 0 28.5 -45t41.5 -49q25 -4 35 26.5t36 26.5q37 -27 74 -68t72 -88 q-10 25 -12.5 45.5t-2.5 57.5v37.5t2 39.5q0 41 -8 72q-23 8 -55.5 42t-36.5 36q-18 0 -34.5 -1t-31.5 -18q-12 -6 -26 -6q-18 0 -36.5 9.5t-37.5 27.5q0 18 -11 39t-40 21q-17 -1 -33 -13q-8 -31 -8 -67zM555 1061q0 -35 15.5 -81t21.5 -69q0 31 7 67t19 71q-8 23 -17 47 t-36 24q-6 -14 -8 -35.5t-2 -23.5zM711 1386v-8q0 -23 10 -41q12 -22 35 -43q-8 -10 -8 -24q0 -12 16 -37t14 -41q10 8 40 21.5t54 25.5q84 -23 98.5 -104.5t24.5 -133.5l19 -18q2 10 7 27.5t3 27.5q8 23 8 54q0 29 -11 83t-11 74q0 31 12 56q0 29 -43 63.5t-47 48.5 q-10 3 -19 3q-21 0 -41 -18q-28 -24 -38 -34h-3q-31 0 -47 42q-16 40 -46 40h-5q-12 -8 -16 -27.5t-6 -36.5z" />
<glyph unicode="Y" horiz-adv-x="1202" d="M55 1257q0 20 5.5 35t19.5 35q25 51 40 78t44 43q43 0 63 -35q20 -49 29 -70q14 4 38.5 41t44 43.5t28.5 6.5q16 0 40.5 -28t34.5 -30q49 -104 99 -207q10 -12 18 -12q6 0 22.5 12.5t28.5 12.5q6 1 12 1q28 0 44 -24q18 -43 26 -59q35 25 57.5 74t43.5 94q-8 20 -9 41 q1 16 9 24q25 14 63.5 85t67.5 71q25 0 57 -35q6 -23 12 -36t21 -19q20 10 35.5 17t29.5 1q35 -10 44.5 -57t25.5 -55q-20 -41 -38.5 -163t-25.5 -138q-14 -8 -32.5 9t-28.5 15l-221 -422l-12 -598q-35 -6 -91.5 -8t-64.5 -2q-29 0 -89.5 2t-90.5 2q-8 51 -10.5 99.5 t-2.5 113.5v110.5t2 112.5v43q0 63 -6 123q-45 92 -115.5 217t-156.5 281q-10 2 -25.5 -12.5t-27.5 -10.5q-4 16 -31 81t-27 97zM86 1260q0 -68 33 -125h12q10 18 14.5 27t4.5 24q0 8 -7 18q16 20 28.5 32.5t29.5 14.5q20 -23 42.5 -46t45.5 -29q22 32 63 32h2q18 0 41 -10 t35 -66.5t33 -70.5q6 33 10 60.5t4 56.5q0 39 -8 69.5t-33 63.5q8 27 -26.5 49t-34.5 43q-16 4 -23 4q-27 0 -47 -44t-45 -48q-25 -6 -31 18.5t-9 47t-17.5 32.5t-32.5 10q-51 0 -57 -49q-27 -53 -27 -114zM575 1098q47 -29 61.5 -129.5t70.5 -124.5q8 49 12 84t4 63 q0 20 -2 31q-20 14 -51 71.5t-70 61.5q-25 -18 -25 -57zM821 1286q0 -20 23.5 -76.5t23.5 -74.5q41 51 84 104q37 -10 59.5 -62.5t51.5 -115.5q10 10 15 32.5t12 43.5q-4 16 -5 24q0 23 12.5 68t12.5 67q0 29 -14 56q-6 33 -33 32q-12 0 -28.5 -6t-24.5 -8q-33 0 -48 47 q-13 43 -45 43h-6q-59 -43 -65 -121q-25 -23 -25 -53z" />
<glyph unicode="Z" horiz-adv-x="1163" d="M51 156v62.5t2 64.5q119 166 269.5 364.5t293.5 388.5q0 20 -25.5 24.5t-27.5 4.5l-166 2q-14 -6 -26.5 -38t-28.5 -38q-12 6 -26 47q-13 37 -44 37h-6h-147q-8 39 -8 92q0 39 2 79t4 81q25 53 41 92t37 68q4 1 9 1q22 0 50 -26q32 -30 53 -30q12 0 30.5 11t46.5 21.5 t52 10.5q29 0 49.5 -9.5t24.5 -37t12 -37.5q92 47 187 94q32 0 61 -31q23 4 41 -14.5t37 -34.5q25 20 53.5 29.5t95.5 9.5h37q41 -49 55.5 -106.5t14.5 -135.5q0 -37 -1 -67.5t-1 -55.5q-41 -39 -49.5 -117.5t-14.5 -150.5q-14 6 -25.5 31.5t-21.5 48.5q-51 -53 -132 -161.5 t-175 -237.5q-6 -14 11.5 -21.5t19.5 -13.5v-7q1 -32 33 -48q36 -16 71 -31q25 14 56.5 23t58.5 5q40 -35 70 -56q21 -15 46 -15q9 0 19 2q25 -23 34 -55.5t9 -79.5q0 -33 -2 -68l-4 -70q0 -29 2 -43l-25 -14l-1017 14q-10 33 -12.5 62.5t-2.5 79.5zM164 1337q0 -27 18 -39 q59 -18 88 -90q20 -63 43 -127q18 -20 37 -20q18 0 35 14q-14 29 -14 64q0 33 10 66.5t31 72.5q18 8 34 8q25 0 57 -34.5t48 -43.5q14 -14 27 -14q12 0 36.5 28.5t44.5 22.5q18 -20 66.5 -28.5t65.5 -24.5q0 16 29.5 37.5t35.5 38.5q41 -20 61.5 -67.5t36.5 -115.5 q29 -25 37 -82t35 -75q10 96 16.5 142t16.5 87q-4 20 -4 27q0 16 4 26.5t26 46.5q6 16 7 31q0 20 -16.5 45t-37.5 58q-6 29 -34 28q-6 0 -19 -4q-14 8 -31 8q-18 0 -63 -26.5t-51 -28.5q-31 39 -57.5 52.5t-96.5 33.5l-121 -72q-10 4 -31.5 -4t-27.5 -8q-14 0 -23 14 q8 14 9 25q0 16 -19.5 25.5t-38.5 13.5q-7 3 -15 3q-25 0 -53 -33q-36 -42 -49 -44q-27 -8 -49 21.5t-32 36.5q-10 6 -19 6q-20 0 -39 -27q-8 -37 -14 -74zM543 268q37 -37 54 -50t44 -13q8 29 14.5 40t26.5 15h5q35 0 59 -48q24 -52 47 -60q18 8 27 21t17.5 39t31 37 t55.5 11h24q16 -4 25 -4q9 -60 62 -60q6 0 12 1q8 35 16 71q0 25 -19 35q-8 -2 -17 -2q-29 1 -61 25q-42 32 -61 39q-7 3 -14 3q-21 0 -47 -20q-36 -26 -43 -26q-23 0 -39 38q-8 -2 -14 -2q-36 0 -52 44q-20 52 -49 53l-22 -4q-37 -29 -59.5 -79t-22.5 -104z" />
<glyph unicode="a" horiz-adv-x="1067" d="M49 2q139 635 281 1270q-29 12 -29 45q0 8 7 36.5t7 41.5q29 43 80 43q14 0 29.5 -8.5t25 -12.5t17.5 -2q6 25 42 33t40 37q16 6 31 6q14 0 42.5 -6t45.5 -6q16 0 24 2l35 -39q0 -35 35 -104.5t35 -106.5q0 -18 -6 -37l-7 -141q47 -170 94.5 -342t88.5 -347.5t67 -340.5 q-33 -8 -64.5 -10.5t-74.5 -2.5h-117q-45 0 -67 -2q-35 111 -70 223q-18 -6 -43 -6q-27 0 -75 5.5t-54 5.5q-41 0 -58.5 -12.5t-17.5 -51.5v-18q-14 -55 -23.5 -90t-29.5 -64zM328 1358q0 -18 23.5 -52t23.5 -53q2 -12 3 -21t1 -26q0 -16 -1 -32.5t-1 -32.5q0 -51 14 -70 q25 20 25 66q-2 35 -2 51q0 20 4 35.5t33 15.5q16 -29 36.5 -89t22.5 -69q6 6 1 17.5t-1 19.5q18 12 18 35q0 10 -5 28.5t-5 22.5q0 14 17 21q23 -76 38 -124t21 -57.5t20 -9.5q-6 23 14.5 54.5t20.5 41.5q0 14 -10 25q-4 27 -6 53q6 -10 23.5 -34.5t19.5 -40.5 q29 -27 36 -101t21 -100q16 154 35 309q0 51 -8 90q-31 10 -38 55.5t-20 59.5q-12 0 -26 11t-19 11q-6 0 -13 -8t-15 -8q-2 0 -28 16q-19 11 -30 11q-4 0 -8 -2q-14 -4 -14 -25q0 -23 -6 -29q-16 4 -23 4q-31 0 -47 -43q-25 -4 -33 15q-12 2 -33.5 7t-29.5 5 q-31 0 -40 -18.5t-9 -34.5zM457 426q0 -35 28 -57q10 16 27.5 32.5t24.5 22.5q12 4 30.5 -9.5t22.5 -4.5q2 6 2 13q0 22 -19 52q-16 -6 -33.5 7.5t-29.5 19.5q-18 2 -28.5 -15.5t-17.5 -33t-7 -27.5zM492 541q18 5 38 -15q16 -16 32 -17q3 0 7 1q-10 91 -49 152zM586 1382 q-3 3 -3 6q0 4 4 10q7 10 7 17h29q16 0 22 -4v-8q-12 4 -22 4q-33 0 -37 -25z" />
<glyph unicode="b" horiz-adv-x="1054" d="M57 1298q0 33 7.5 57.5t23.5 42t41 17.5q23 0 41 -6q10 -12 16.5 -18.5t14.5 -1.5q6 35 39 61q43 29 61 41q5 2 11 2q22 1 40 -25q24 -32 47 -26q12 -25 66.5 -28t58.5 -5q84 0 129 -7t68 -42q-68 12 -150 21.5t-153 9.5l-12 -19q-12 18 -48 54t-43 42q-25 0 -42 -14 t-35 -43l-15 -72q-20 -6 -51 27t-51 33q-10 0 -23 -6q-28 -38 -28 -89q0 -15 4 -40q0 -94 8 -157t39 -118q4 41 44 111.5t40 118.5q29 16 35 19t16 -3q37 -47 47 -61.5t21 -47.5q16 0 27 11.5t20 29.5q6 6 6 31t10 33q20 -6 34.5 -16.5t41.5 -36.5q20 31 35.5 51t38.5 24 q6 1 12 1q27 0 63 -14q46 -17 58 -17q20 -11 38 -57q16 -41 49 -41q4 0 9 1q18 6 28.5 33t14.5 33l-6 47q49 -8 74.5 -81t33.5 -83q2 12 2 35q0 121 -48 158t-82.5 44t-39.5 25q86 -16 131.5 -37.5t55.5 -80.5q39 -47 56.5 -107.5t17.5 -136.5q0 -109 -35 -197 q-14 -20 -39 -37.5t-47 -33.5q57 -43 84.5 -69t40.5 -69q-2 -16 -2 -35.5v-29.5q0 -35 4 -120t4 -91q0 -98 -25.5 -160.5t-105.5 -101.5q-66 -16 -142.5 -23.5t-171.5 -7.5q-86 0 -171 2t-167 4q-12 12 -22 2q-2 8 -4 10q-12 -14 -41 -14q-14 0 -29.5 2t-30.5 4l-12 19 q0 84 2 260t2 266q0 193 -5 309.5t-25 263.5q2 12 2 37t-5.5 73t-5.5 60zM442 387l9 -6zM459 950q0 -51 14 -67q14 8 43 -2.5t31 -10.5q20 0 31 29q14 0 29.5 -6t25.5 -8q6 25 6 49q0 31 -6 53.5t-19 52.5q-12 14 -32.5 20.5t-42.5 6.5q-39 0 -76 -18q0 -14 -2 -48t-2 -51z M467 426q0 -41 6 -72q20 27 43 27q14 0 51 -39q29 -31 58 -31q7 0 14 2q14 41 14 90q0 35 -6 69t-16 75l-27 16q-16 4 -34.5 6t-47.5 2q-37 0 -51 -12q0 -18 -2 -64t-2 -69zM467 813q0 -12 6 -43t2 -47q12 -12 21 -12q8 0 20 19.5t22.5 23.5t16.5 4q12 0 26.5 -25.5 t28.5 -25.5q-2 8 6 10q10 31 11 57q0 55 -35 84l-25 -33q-10 -6 -18 -6q-10 0 -30.5 18.5t-37.5 12.5q-14 -16 -14 -37zM469 186q0 -18 16 -28q37 0 71 27.5t65 54.5q8 -14 17 -27.5t24 -28.5q0 12 -11.5 33t-5.5 35q-14 16 -68.5 35.5t-64.5 52.5q-20 -8 -31.5 -39 t-11.5 -33q4 -4 7 -12t3 -16q0 -10 -5 -31t-5 -23z" />
<glyph unicode="c" horiz-adv-x="1019" d="M47 537q0 59 2 117.5t4 117.5q0 59 -6 119q0 61 23.5 202.5t23.5 200.5q45 61 123 68q25 45 54.5 78t70.5 49q57 0 103.5 -15.5t89.5 -48.5q35 12 69 13q66 0 117 -39q8 -16 39 -52t31 -65q16 -23 28 -27q12 2 44 16.5t38 14.5q23 0 45.5 -42t22.5 -105q0 -47 -19 -88 q12 -49 17.5 -109.5t5.5 -128.5q-55 0 -150.5 -5t-113.5 -5h-52q-23 4 -30 4q-4 23 -8.5 139.5t-63.5 167.5q-25 4 -41 4q-41 0 -59 -24q-12 -45 -17.5 -90.5t-5.5 -106.5q0 -29 2 -88t2 -88q0 -176 15 -320q16 43 51 43q14 0 45 -12t43 -15t16 -30t25 -25q8 27 10 64t2 84 v51q63 8 150 8q31 0 95 -2t95 -2q2 -35 5 -64.5t3 -72.5q0 -129 -36.5 -224t-133.5 -147q-133 -57 -291 -57q-104 0 -197 27.5t-165 85.5q-70 78 -95.5 183t-25.5 241zM88 1040q14 -96 20.5 -112.5t38.5 -30.5q6 12 12.5 35.5t2.5 52.5q12 53 26 107q14 33 48 43 q23 -10 25.5 -39t6.5 -56q27 14 39 93t45 98h76q2 25 37 36t37 13q12 -8 28.5 -30.5t36.5 -49.5q6 -2 12 -2q21 0 45 24q32 32 42 35q23 -35 44 -105.5t31 -92.5q14 -14 27 -15q12 0 34.5 18.5t37.5 16.5q37 -78 73 -155l13 -6q-8 16 -8 40q0 18 2 36l4 36q0 16 -2 25 q14 6 14 28q0 31 8 37l-8 82q-12 49 -55 62q-31 -8 -40.5 -29t-9.5 -51q0 -41 -8 -60q-29 -10 -28 15q6 31 6 47q0 20 -17 26q0 39 -16 67t-66.5 82t-72.5 54q-16 0 -50 -13t-49 -13l-69 59q-27 6 -48.5 10t-37.5 4q-23 0 -47.5 -11t-57.5 -54q-33 -49 -43 -66q-10 2 -26 2 q-94 0 -94.5 -130t-18.5 -163zM270 1325q13 44 53 44q10 0 23 -3zM422 260q0 -25 10 -59.5t21 -63.5l67 51q12 -33 51 -48t54 -19q16 18 19 54t7 71q-18 33 -30.5 56.5t-38.5 33.5l-21 43q-25 27 -43 27q-20 0 -44.5 -41t-35.5 -50q-16 -25 -16 -55zM494 268q-1 3 -1 6 q0 8 6 14q9 10 21 9q10 4 12.5 -3t4.5 -15q-7 3 -19 -7q-7 -6 -15 -6q-4 0 -9 2zM545 1323l4 6l20 -10zM647 1294q-1 3 -1 6q0 11 20 11q25 0 30 -11v-12h-2q-6 0 -20 9q-16 11 -27 -3z" />
<glyph unicode="d" horiz-adv-x="1116" d="M55 1376q4 37 24.5 56.5t74.5 56.5q61 -23 96 -40t63 -54q18 -2 33.5 18.5t28 24.5t31.5 4q25 0 71.5 -16.5t69.5 -16.5q45 0 69 55q14 8 34 16.5t40 8.5q25 0 39 -14q33 -16 56.5 -39t31.5 -54q14 -14 35 -14q6 0 28.5 6t37.5 4q37 -16 76.5 -104t45.5 -94 q18 -150 28.5 -304.5t10.5 -310.5q0 -227 -22 -413q-35 -74 -48.5 -90.5t-43.5 -30.5l-95 -27h-720l-21 19q0 186 -4 616t-4 446q0 70 -22.5 145t-43.5 146zM104 1341q0 -37 29 -108.5t29 -99.5q0 -18 -6 -37q6 23 13 39t24 30q8 -4 34.5 -6t34.5 -12q2 25 22.5 47.5 t47.5 42.5q20 23 39 23q16 0 35.5 -18.5t39.5 -37.5q16 16 37 34.5t41 18.5q18 -18 36 -29t104 -61q20 43 31.5 65.5t27.5 37.5q8 -10 32.5 -26.5t30.5 -29.5l45 27q51 0 92.5 -74.5t47.5 -81.5q-2 12 -2 41q0 23 3 62t3 41q0 33 -9.5 59.5t-33.5 48.5q-14 25 -35 25 q-12 0 -35.5 -10.5t-32.5 -10.5q-8 0 -18 7q-49 81 -133 120q-35 -10 -58.5 -29.5t-54.5 -58.5h-37q-39 0 -55 3t-37 20q-31 -2 -55.5 -4t-15.5 -35q-25 -12 -41 -12q-29 0 -80 52q-44 45 -82 45q-6 0 -12 -1q-16 -8 -24.5 -26.5t-15 -39t-6.5 -41.5zM492 1090 q0 -127 6 -377t6 -369l39 18q27 -10 61 -10q20 0 42 2l44 4q0 152 -7 388.5t-7 306.5q-14 33 -44 41t-54 8q-20 0 -44 -4t-42 -8zM508 223q0 -23 16.5 -47t32.5 -45q35 6 48 44t16 42q16 -6 50 -45t54 -45q-4 14 0 42t4 32q0 23 -25.5 48t-63.5 46.5t-85 21.5 q-20 -6 -20 -24q2 -18 2 -27q0 -18 -23 -18q-6 -12 -6 -25z" />
<glyph unicode="e" horiz-adv-x="1116" d="M61 1356v24q4 16 5 23q25 4 64.5 40t72.5 36q2 -2 59 -34t96 -32q27 0 50 14q8 16 41.5 38t39.5 28q14 -8 77 -27.5t87 -50.5h39q86 0 146.5 12.5t105.5 57.5q72 0 94 -53q-8 -82 -10 -159t-2 -183l-25 -17l-333 -4q-14 -31 -45 -31q-12 0 -25 6q-6 25 -47 25 q-33 0 -47 6l-23 -24q8 -102 17 -205l61 59q41 0 70.5 -7t58.5 -26q16 -2 31.5 18.5t28.5 20.5q6 0 18 -6q14 -23 19.5 -45t5.5 -57q0 -27 -6.5 -82t-6.5 -84q0 -27 2 -39q-8 -2 -24 -2q-41 0 -49.5 -3t-17.5 -40t-23 -92q-29 10 -42.5 64.5t-20.5 61.5t-40 7 q-20 0 -35.5 -1t-25.5 -1q-8 -31 -8 -72q0 -33 4 -59.5t6 -42.5q20 20 67 20q16 0 49 -4t50 -4q25 -18 45 -32.5t39 -14.5q14 0 22 2q12 14 29 14q10 0 30.5 -10t30.5 -10q45 -10 90 -19q51 -16 52 -61q4 -10 20 -10q25 0 31 -6q0 -41 2 -85t4 -87q0 -63 -10 -105h-117h-100 h-90h-80h-68h-61h-54h-45h-43h-37h-30h-25h-24h-71t-71 2h-18l-10 17q0 274 -2.5 541.5t-4.5 535.5q-23 127 -43 254zM96 1354l90 -404q0 18 -4 59.5t-4 65.5q0 31 7.5 56.5t20.5 41t23 15.5q6 0 23.5 -12.5t30.5 -6.5q5 12 37 44q26 27 27 52q0 5 -1 9q6 8 25 8q25 0 30 4 q33 -25 38 -87t14 -79q12 16 28.5 61.5t32.5 63.5q35 -6 53 -49q12 -41 27 -80q20 -20 33 -20q12 0 27.5 59t45.5 72q23 12 50 -6q29 -27 38 -35q0 20 11.5 48t27.5 62q16 4 25 4q25 0 45.5 -10t40.5 -30q10 20 28.5 40.5t30 31.5t15.5 40t4 33q0 20 -2 29q-33 28 -68 28 q-45 -55 -132 -62t-165 -14q-31 25 -55.5 39.5t-56.5 16.5q-16 4 -25 4q-27 0 -65.5 -30t-54 -34t-21.5 -4q-25 0 -83.5 28t-86.5 28q-16 0 -27 -2q-34 -20 -58 -33q-20 -11 -21 -36q0 -4 1 -9zM512 328q2 -47 4 -92q8 -53 51 -62q33 -6 48.5 9.5t50.5 62.5 q35 -4 61.5 -55.5t40.5 -63.5q12 -6 23 -6q23 0 57 51q28 41 55 41q6 0 12 -2l60 -119q18 16 18 41q-4 33 -4 47q0 23 27 37q5 11 5 20q0 10 -6 17q-11 14 -42 37q-10 47 -80 54t-86 13q-29 -14 -70 -14q-35 0 -65 12q-4 35 -30 41t-77 6q-25 -2 -37 -36.5t-16 -38.5z M518 748l86 -62q12 -18 25.5 -74.5t32.5 -72.5q8 35 51 123t43 147q4 5 4 16q0 5 -1 11q-3 20 -11 28q-18 -35 -46 -35q-16 -1 -53 21q-34 20 -53 20h-4q-53 0 -61.5 -58t-12.5 -64z" />
<glyph unicode="f" horiz-adv-x="1007" d="M49 1319q0 16 4 45q33 37 57.5 63.5t47.5 40.5q27 -16 111.5 -22t117.5 -41q43 0 117 42t110 42q29 0 52 -10q8 -4 71.5 -17.5t71.5 -58.5q31 12 54.5 17t51.5 5q20 0 43 -6q20 -12 27 -39q4 -35 6 -49q-8 -20 -12 -54t-4 -60v-43.5t2 -40.5q0 -45 -8 -78 q-100 -8 -185.5 -11.5t-222.5 -3.5q-14 -12 -14 -41v-26v-12q-4 -8 -4 -11q-29 -14 -44.5 11.5t-24.5 42t-13 23.5t-10 7q-8 -18 -10.5 -33.5t-2.5 -37.5q0 -25 3 -63t3 -40q18 20 50 21q20 0 59 -14.5t45 -16.5t17.5 -20.5t27.5 -14.5q16 18 33 19q16 0 37 -11l20 -37 l-6 -258l-270 -2l-8 -16v-131v-49q0 -127 -3.5 -177.5t-13.5 -146.5h-352l-17 33v403.5t1.5 407.5t3.5 410q-12 14 -15.5 28.5t-3.5 30.5zM74 1333q18 -25 41.5 -39t72.5 -37q18 -18 40 -37.5t40 -19.5q10 10 29.5 14.5t38.5 4.5q33 -2 47 -2l88 -115q20 -49 41 -98 q12 18 14 65t9 66q8 10 15 60t42 58q12 -8 22.5 -28.5t18.5 -28.5q18 6 78.5 7t74.5 42q14 8 29 8q23 0 58.5 -50t41.5 -54l7 2q-2 10 -2 31q0 27 17 85t17 76q0 31 -14 54q-8 -4 -50 -9.5t-63 -21.5q-12 -6 -20 -6q-18 0 -35.5 29.5t-23.5 42.5h-62q-34 22 -65 22h-3 q-33 0 -106.5 -43t-110.5 -43q-16 0 -24 2q-29 37 -109 39t-110 29q-49 -43 -64.5 -58.5t-19.5 -46.5zM451 733q0 -14 19 -27.5t30 -19.5q18 12 32 12q23 0 53.5 -46t61.5 -46q10 39 18.5 65.5t39.5 41.5q6 12 6 28q0 41 -33 47q-25 -18 -45 -18q-23 0 -59.5 35t-61.5 35 l-23 -4l-30 -78q-8 -14 -8 -25z" />
<glyph unicode="g" horiz-adv-x="1103" d="M51 1028q25 57 36 129t24 143q39 51 50 59.5t38 2.5q18 -8 39 -8q43 0 94 61.5t92 71.5q6 1 12 1q30 0 54 -34q30 -41 57 -41q18 0 37 8q16 16 37 17q20 0 55 -18.5t43 -20.5q18 -25 51 -33t66 -14q84 -98 135 -198.5t51 -209.5q0 -33 -6 -67q-35 -6 -72 -7q-20 0 -61 2 t-62 2q-33 0 -56.5 -2t-45.5 -10q20 -20 44.5 -29.5t55.5 -9.5q25 0 60.5 7.5t68.5 15.5q92 -51 111 -148q6 -16 6 -28q0 -18 -18.5 -51t-18.5 -54q0 -10 6 -26l-16 -37l-4 -484q-12 -10 -47 -10q-29 0 -45.5 3t-22.5 3q-8 8 -27.5 50t-44.5 53q-53 -61 -127.5 -89 t-164.5 -28q-53 0 -113 10t-151 44t-134 141.5t-43 273.5q0 35 2 108.5t2 110.5q0 49 -2 85t-10 73q-16 23 -18 89t-17 93zM72 1028q18 -18 20 -77.5t33 -71.5q84 184 170 368q20 10 37.5 -1t23.5 -38q8 -16 9 -45q-2 -37 -3 -53q0 -16 3 -25q35 6 58 56.5t33.5 58.5t24.5 8 q16 0 42 -29.5t42 -31.5q18 16 51 74.5t70 78.5q49 -12 71.5 -56t33.5 -107q12 -23 47.5 -53.5t44.5 -55.5q24 38 24 88q0 51 -16.5 95t-38 79t-78.5 47.5t-69 44.5q-16 0 -45 13.5t-37 13.5q-16 0 -31 -14q-18 -6 -37 -6q-76 0 -94 61q-9 2 -18 2q-43 0 -81 -40 q-47 -48 -86 -91l-90 14q-43 -10 -57 -80.5t-29 -87.5v-24q0 -66 -28 -115zM399 1378q2 8 4.5 14.5t12.5 8.5q12 -4 24 -6q0 -12 -18.5 -12.5t-22.5 -4.5zM461 1053q0 -135 6 -387t6 -385q4 -25 22.5 -42.5t63.5 -17.5h25q43 12 59 48t16 89q0 23 -1 46.5t-1 46.5q0 25 2 36 q-12 23 -60 25t-62 10q-2 12 -2 29.5v28.5v92q0 27 -3 35l7 24q29 12 65.5 68.5t61.5 64.5q-4 16 -6.5 46t-2.5 32v36.5t2 37.5q0 45 -7 71.5t-38 57.5q-14 -31 -43 -31q-32 0 -57 41q-29 -12 -39 -37.5t-14 -64.5zM604 707q18 -51 28.5 -77t26.5 -34q4 4 14.5 30.5 t33.5 35.5q29 -4 47 -25t29.5 -66t18.5 -85t25 -64q8 20 16.5 93t49.5 110q7 2 14 2q27 0 49 -31q27 -39 41 -45q6 43 13.5 66.5t25.5 37.5q1 10 1 20q0 37 -19 70q-23 41 -66 66q-29 -10 -88 -12t-71 -4q-8 4 -45 25q-34 20 -58 20h-4q-39 -16 -54.5 -47t-27.5 -86z" />
<glyph unicode="h" horiz-adv-x="1079" d="M47 1319v18q8 47 35 83t70 67q9 2 18 2q28 -1 52 -19q32 -24 63 -47q25 4 37 4q68 0 88 -55q12 -55 18 -229t8 -189q25 16 68 17q14 0 39 -4q51 -29 67 -78q0 70 7.5 220.5t7.5 197.5q16 66 86 90q86 18 125 30q53 0 80.5 -6t52.5 -32l20 -52l-5 -1308l-9 -23 q-49 -6 -98 -6q-51 0 -142.5 5t-109.5 5q0 100 -4.5 345t-4.5 253q-4 10 -18 11.5t-27 3.5q-25 -20 -24 -60q2 -31 2 -45q0 -23 -4 -35t-23 -24q-14 31 -23.5 58.5t-9.5 53.5q0 18 7 37q-8 10 -23.5 11.5t-28.5 3.5l-12 -23q0 -94 -6 -284.5t-6 -290.5q-29 -4 -67 -6.5 t-72 -2.5q-111 0 -232 19v166v141v123v110v99v86v74v61v55v49v43v37v31v31v24q0 37 -1 76t-1 78zM76 1360q0 -68 21.5 -130.5t58.5 -115.5q14 37 26.5 61.5t40.5 22.5q25 -31 37 -78q14 -74 31 -145q12 35 55 131t57 139q-4 43 -8 90t-55 58q-23 -12 -39 -13q-27 0 -69 45 q-36 38 -69 38q-6 0 -11 -1q-25 -12 -37.5 -31.5t-38.5 -70.5zM252 1323q2 0 29.5 -15.5t46.5 -9.5q8 -8 -1.5 -20t-9.5 -16q-14 -4 -32.5 13t-26.5 25zM422 791q0 -27 16 -50q39 -10 61.5 -48t30.5 -81v19q31 23 44.5 53.5t13.5 69.5q0 33 -8.5 72.5t-14.5 76.5 q-10 23 -32.5 30t-55.5 7q-12 2 -24.5 -13.5t-18.5 -17.5q2 -8 2 -24q0 -12 -7 -45t-7 -49zM664 1288q0 -36 36 -116q31 -69 32 -110q0 -7 -1 -13h17q8 51 22 72.5t39 33.5l55 -59q27 8 39 63t35 69.5t25 50.5t4 69q-16 33 -46 48t-67 15t-70.5 -9.5t-72.5 -25.5 q-47 -39 -47 -88zM803 1212l47 45l-37 -53z" />
<glyph unicode="i" horiz-adv-x="477" d="M55 33l2 1288q14 12 20.5 49t14.5 47q35 66 117 72q16 -8 43 -8q20 0 42.5 2t45.5 4q47 0 74 -39q10 -45 14 -112.5t4 -131.5v-112v-136v-118v-105v-92v-80v-67v-62v-55v-47v-43v-37v-31v-24v-25q0 -35 -1 -71t-1 -70v-19q-29 -6 -74 -8t-53 -2q-41 0 -119 4t-112 4z M102 1331q0 -25 2 -37q18 -20 24.5 -77.5t25.5 -77.5q8 -16 8 -41q0 -14 -6 -43t-6 -43q0 -20 9 -35.5t31 -28.5q8 14 12.5 39t4.5 41v45q0 37 7 58.5t34 39.5q25 -10 42 -61t48 -51l68 155l6 199q-6 29 -28 41t-52 12q-25 0 -49.5 -6t-32.5 -8q-12 -2 -27.5 6t-17.5 8 q-10 0 -19 -10q37 -18 23 -37q-6 2 -20.5 -2t-20.5 -2q-8 8 -4 20.5t6 18.5h-10q-31 -18 -44.5 -52t-13.5 -71zM246 1335q-2 10 12 13.5t18 9.5q10 0 28 -8.5t30 -28.5l-37 2z" />
<glyph unicode="j" horiz-adv-x="983" d="M47 567v7q0 20 11 31q12 13 50.5 35t55.5 22q20 0 43 -13q16 -51 65 -51q18 0 47 5t33 5q33 0 52.5 -26.5t30.5 -65.5t11 -121v-106q4 -53 17.5 -82t37 -31t25.5 -2q25 14 35 21.5t12 19.5q0 244 5.5 624t5.5 441q-8 14 -9 29q0 12 4.5 21t23 43t90.5 52.5t95 59.5 q18 6 35 6q35 0 63.5 -20.5t45.5 -53.5l18 -182l2 -989q0 -66 -42 -118t-109.5 -75.5t-147.5 -38t-159 -14.5q-117 0 -219.5 35t-172.5 110q-31 70 -35 216.5t-20 205.5zM70 567q-1 -6 -1 -13q0 -50 56 -98q63 -55 74 -87q27 -8 46 11l38 38q37 0 64.5 -47t35.5 -54l10 11 q10 41 18.5 75.5t8.5 63.5q0 33 -8.5 58.5t-32.5 47.5q-14 8 -35 9q-18 0 -35 -9q-20 -4 -30 -4q-53 1 -84 58q-10 2 -20 2q-27 0 -52 -13q-33 -18 -53 -49zM156 481q16 -4 36.5 -7t30.5 -1v-14q-10 -6 -18 -6q-14 0 -23.5 6t-25.5 22zM600 1319q16 -57 28.5 -94t37.5 -60 q20 25 43 19q29 -16 47 -56q12 -35 26 -69q2 -37 4 -78t33 -49q57 174 115 348q0 49 -21 98l-36 76q-25 10 -50 10q-8 0 -24 -4q-20 -39 -104.5 -62.5t-98.5 -78.5zM795 1386q-2 4 8 12.5t18 8.5t15 -10q-12 2 -23.5 1.5t-17.5 -12.5z" />
<glyph unicode="k" horiz-adv-x="1138" d="M53 1296q0 29 19.5 69t43 82t91.5 42q16 0 24 -2q16 -39 97.5 -75t97.5 -77q27 6 23 -35q8 -35 8 -75q0 -27 -4 -76t-4 -72q0 -33 6 -67q8 35 69.5 67.5t69.5 67.5q23 70 45.5 110.5t59 104t50 70t33.5 6.5q14 0 42 -5.5t34 -5.5q29 0 39 10t18 33q20 14 43 15 q53 0 78 -53q10 -10 18 -60q8 -45 45 -46q4 0 9 1q-12 -37 -88 -172t-76 -223l-18 -23h-7q-43 1 -75 -69q-35 -76 -49 -90q82 -184 173 -385t148 -355q-70 0 -138.5 -2t-135.5 -4q-70 0 -144 6q-121 268 -241 537q-8 -31 -11.5 -218.5t-3.5 -240.5v-59.5v-14.5l-352 -6 l-14 17v1214q-23 25 -23 59zM84 1315q0 -41 55.5 -121t57.5 -90q25 12 43 12q39 0 59 -74.5t35 -87.5q47 53 66.5 125t19.5 156v49q-4 20 -4 29q-16 41 -80 57t-80 47l-35 51q-8 2 -20 2q-37 0 -62.5 -53t-48.5 -65q-6 -18 -6 -37zM174 1401q2 8 19 8q27 0 30 -20 q-24 6 -49 12zM467 920q0 -27 12 -43q-6 -10 -6 -19q0 -12 9.5 -35.5t13.5 -40t8 -35t26 -18.5q55 156 111 311q6 6 12 8.5t11 2.5q10 0 32.5 -12.5t34.5 -4.5q27 63 47.5 106.5t71.5 43.5q6 -57 30.5 -123t41.5 -109q16 35 31.5 119t47.5 123q0 23 23 66t23 67q0 18 -13 41 q-6 31 -18 54.5t-35 31.5q-61 0 -84 -28.5t-45 -28.5q-12 0 -36.5 8t-37.5 8q-23 0 -56.5 -50t-70.5 -123t-55 -146q0 -43 -37 -43q-20 2 -31 2q-31 0 -41 -31q0 -16 -10 -51t-10 -51zM870 983l4 14zM887 1378q4 6 8 15q14 8 18 -7q-13 -8 -23 -8h-3zM944 1417q0 9 9 9h1 q10 -1 13 -5q-2 -4 -10.5 -4h-12.5z" />
<glyph unicode="l" horiz-adv-x="1054" d="M51 45l17 1356q18 41 60 65.5t85 24.5q66 0 98 -53q35 -4 59.5 -11.5t32.5 -44.5q20 -37 26.5 -78.5t6.5 -97.5q0 -25 -2 -74t-2 -73l2 -617q12 -8 29.5 3.5t34.5 23.5q12 -4 83.5 -9t94.5 -44q37 8 120 52t136 44q20 0 31 -2q37 -35 44 -94.5t11 -98.5l-2 -305l-17 -14 q-82 0 -165.5 2t-167.5 4q-23 -33 -62 -33q-12 0 -24 6l-15 23h-506zM88 1391q0 -18 26.5 -87t24.5 -96q10 -35 25 -34q8 0 35.5 23.5t48.5 16.5q6 -10 17 -103t59 -116q29 29 30.5 75t3.5 75q0 31 26 90t26 84q0 43 -41 70l-74 20q-23 20 -47.5 43t-52.5 23q-16 0 -33 -9 q-39 -12 -56.5 -31.5t-17.5 -43.5zM152 1425q24 25 56 25q8 0 17 -2q-6 -6 -33.5 -11t-39.5 -12zM434 324q0 -53 76 -131q69 -71 69 -131q0 -6 -1 -13q6 -25 12 -40t26 -15q31 53 62 108q37 57 90 86q16 6 29 7q31 0 71.5 -49.5t67.5 -49.5q27 41 38 89t11 108q0 29 -4 67.5 t-8 69.5q-1 27 -23 43q-15 11 -35 11q-10 0 -22 -3q-37 0 -104.5 -49t-100.5 -49q-37 0 -67 37l-127 18q-20 -12 -31.5 -29.5t-20 -43t-8.5 -41.5zM567 276q10 -16 51 -40.5t48 -51.5q-29 0 -57 28.5t-42 63.5zM866 330l23 41q18 -2 27.5 -13.5t9.5 -42.5q0 -37 8 -49 q-6 4 -24.5 36t-43.5 28z" />
<glyph unicode="m" horiz-adv-x="1368" d="M63 1305q0 35 34 78.5t42 60.5q35 45 82 45q35 0 62 -27q29 -12 46 -55t36 -55l118 102q36 24 69 24q7 0 13 -1q35 -8 54.5 -35t29.5 -68q-8 -31 -8 -67q0 -27 8 -82.5t8 -81.5q12 -6 21 -6h39q18 29 32.5 106.5t41.5 104.5q0 39 34.5 78t79.5 59q16 4 25 4q33 0 89 -44 t83 -44q25 0 47 16q27 10 43 15.5t29 5.5q12 0 33.5 -10.5t33.5 -45.5q12 -53 27 -106l-4 -1262l-8 -10q-35 0 -100.5 -2t-98.5 -2q-45 0 -80 2t-78 10q0 90 -2 328t-2 352l-12 -18q-29 -141 -57.5 -297t-63.5 -361q-27 -8 -52.5 -10t-60.5 -2q-25 0 -76 2t-75 2l-17 27 q-61 309 -120 620l-9 -12v-80v-67v-62v-51v-45v-43v-37v-31v-24v-25q0 -35 -1 -70.5t-1 -72.5v-19q-49 0 -100 -2l-102 -4q-55 0 -105 6l-12 37l4 1198q-10 14 -14.5 27.5t-4.5 26.5zM102 1317q0 -14 7.5 -37t7.5 -33q16 -25 43 -24q18 0 48 11t34 11q27 -10 50 -34.5 t46 -59.5q16 6 49 8t57 6q31 -18 54.5 -78.5t56.5 -74.5q4 33 9 53t22 37q12 33 12 72q0 18 -1 38.5t-1 40.5q29 12 29 50q0 14 -5.5 42.5t-5.5 34.5q-4 34 -34 52q-23 14 -48 13q-8 0 -16 -1q-12 -4 -65.5 -58.5t-79.5 -54.5q-14 0 -31 6q-4 10 -26.5 23.5t-22.5 25.5 q0 8 6 19q-16 23 -38.5 37t-51.5 22q-33 -8 -51.5 -34.5t-36 -62.5t-17.5 -50zM176 1415q12 16 29 17q20 0 31 -19v-8q-4 14 -33 14q-19 0 -27 -4zM508 1382q2 10 20 11q17 -1 27 -7l-2 -10q-8 2 -25 2q-14 0 -20 4zM659 1044q0 -43 23 -80.5t57 -72.5l4 131l-22 41 q-8 4 -8 16q0 25 -15 31q-6 2 -19 -4t-13 -19q-6 -23 -7 -43zM807 1239q0 -35 16 -61q2 2 16.5 28.5t30.5 34.5l27 -22q45 -39 59 -113q8 -88 15 -123q10 96 16 161.5t43 110.5q33 0 41 -6q10 -27 15.5 -45t5.5 -41q0 -16 -2 -24q4 -31 32 -49q23 -15 50 -16q6 0 12 1 q41 27 56 65t40 126q8 18 8 39q0 27 -13 51t-36 47q-12 6 -25 6q-16 0 -41.5 -11.5t-45 -19.5t-33.5 -8q-31 0 -82 45t-88 45q-13 0 -21 -2q-29 -10 -49 -37.5t-35 -46.5q2 -10 2 -31q0 -18 -7 -55t-7 -49zM891 1401q20 20 35 20q10 0 16 -10zM1163 1370q3 6 10 6q3 0 5 -1 q12 -3 30 -7z" />
<glyph unicode="n" horiz-adv-x="1042" d="M47 47l4 1253q20 6 21 25q-4 25 -6 37q10 66 18 90.5t49 24.5q25 8 52.5 -21t43.5 -26q4 2 37 30.5t56 28.5q39 -12 85 -64.5t60 -62.5q14 -72 30.5 -152t53.5 -127q23 14 36 23.5t23 9.5q14 0 33 -18q20 10 16 18q4 16 4.5 33.5t0.5 28.5q0 14 -2.5 48t-2.5 50 q0 47 11.5 80t48.5 61q16 23 33 45q6 1 12 1q61 0 100 -56q4 -27 21 -29q14 -2 26.5 0t26.5 6q8 0 18 -6q0 -176 4 -424.5t8.5 -499.5t4.5 -444l-21 -10h-346q-113 279 -225 559l-6 -18l-6 -521l-13 -14q-47 0 -147 2t-152 2zM84 1348q0 -41 16.5 -126t18.5 -108 q20 18 36.5 40t16.5 44q14 14 27 14q16 0 35.5 -43t41.5 -51q6 18 19.5 70.5t23.5 81.5q27 0 48.5 -19.5t34 -32t16.5 -45t22 -36.5q10 33 23 65q14 20 14 43q0 18 -13 51t-28 72q-27 0 -58.5 47t-60.5 47q-18 -4 -38.5 -22.5t-30.5 -26.5t-19 -8q-16 0 -46.5 27.5 t-45.5 27.5q-18 0 -37 -16q-8 -18 -12 -45t-4 -51zM205 1335q12 16 25.5 21.5t25.5 1.5q-10 -10 -24.5 -22.5t-26.5 -0.5zM561 936q0 -14 4 -24.5t4 -26.5q0 -14 -2 -29.5t-4 -30.5q0 -29 21 -39q-6 33 5 43.5t36 10.5q25 -2 34 -2q33 0 33 30q0 109 -51 201q-14 20 -37 21 q-18 0 -29 -19q6 -16 7 -31q0 -18 -10.5 -56t-10.5 -48zM686 1305q47 -35 72.5 -73t111.5 -198q8 18 17 37q0 41 29.5 119t29.5 108q0 27 -12 58q-23 -14 -39 -15q-18 0 -48.5 44.5t-55.5 46.5q-5 1 -9 1q-39 1 -65 -59q-29 -66 -31 -69z" />
<glyph unicode="o" horiz-adv-x="1042" d="M49 596q0 68 6 197t6 186q29 55 29 129q0 39 -5 72.5t-17 85.5q18 35 50 62.5t77 57.5q10 -8 24 -8q16 0 54 20.5t51 20.5q23 0 37 -18.5t26 -30.5q20 4 53 40t58 36q14 4 40.5 -13.5t39.5 -17.5q16 0 26 17q23 23 49.5 40t51.5 17q28 0 53 -23q25 0 51.5 -19.5 t42.5 -43.5q31 -88 68.5 -191.5t54 -257t16.5 -333.5v-31v-31v-24q0 -39 -1 -77t-1 -75v-18q-12 -115 -90 -213.5t-186 -128.5q-68 -12 -115 -17.5t-102 -5.5q-98 0 -181.5 26.5t-142.5 86.5q-72 90 -97.5 208.5t-25.5 274.5zM90 1249q8 -43 14.5 -70.5t24.5 -50.5 q18 -6 33 -6q39 0 63 35q20 -14 41 -14q33 0 61.5 37t47.5 59q12 6 20 6q18 0 44 -18.5t34 -20.5q12 -20 51 -20h31q-1 8 -1 16q0 35 28 68q5 1 11 1q54 0 93 -76q43 -83 72 -99q8 6 11 44t32 38q49 -57 75.5 -190.5t36.5 -160.5q2 12 2 26.5v20.5q0 33 -2 64t-4 61 q0 39 3 55.5t16 47.5q-14 14 -23.5 70.5t-48.5 62.5q-6 23 -10 78t-18.5 83.5t-77 48t-72.5 25.5l-96 -94q-18 -4 -37 27q-16 14 -37 14q-23 0 -43 -18q-31 -35 -59 -68q-23 0 -35.5 10.5t-30.5 34.5q-12 6 -25 6q-14 0 -49 -22.5t-51 -22.5t-29 11q-33 -6 -57.5 -35 t-38.5 -64zM203 1266l6 8q10 0 21.5 -6t25.5 -25q-12 -10 -23.5 -3t-29.5 26zM434 639q0 -104 3 -147t14 -132q31 18 51 13q10 -18 53 -36t51 -42v774l-22 59q-14 0 -26.5 -24.5t-29.5 -24.5q-12 8 -21.5 35t-27.5 27q-12 -8 -21 -25.5t-14 -25.5q0 -111 -5 -273t-5 -178z M453 180q0 -18 12 -18q27 10 37 12q18 -51 37 -102l28 2q4 23 13.5 60.5t9.5 51.5q0 35 -23 60q1 6 1 11q0 27 -34 49q-41 26 -45 32q-34 -12 -34 -51q0 -16 3 -41t3 -27q0 -23 -8 -39zM643 1339l4 9q14 -29 43 -29q14 0 31 12q-4 -29 -27 -37q-23 0 -34 15.5t-17 29.5z" />
<glyph unicode="p" horiz-adv-x="1019" d="M51 1305q33 14 68 78.5t74 64.5q12 0 25 -4t44 -27.5t57 -13.5q27 35 58 60.5t65 25.5q29 0 58 -25q27 -12 47 -41.5t39 -56.5q20 0 76 32q47 26 75 26q6 0 11 -1q74 -16 120.5 -74.5t59.5 -136.5q45 -57 59 -131.5t14 -175.5q0 -92 -33.5 -169t-109.5 -113 q-100 -37 -210.5 -41t-217.5 -4l-10 -19q8 -92 8 -221q0 -61 -1 -141t-3 -179l-16 -18h-336l-17 12zM86 1284q0 -55 45 -90q18 -6 27.5 24.5t27.5 32.5q63 -16 75.5 -114.5t19.5 -108.5q10 47 40.5 91t75.5 91q25 47 52 47q18 0 64 -43t69 -43q41 18 58 28.5t32 33.5 q29 14 53 14q53 0 89 -103.5t73 -123.5q10 -10 18 -42t23 -38q-6 41 -15.5 153.5t-15.5 166.5q-51 96 -143 135q-16 4 -25 4q-25 0 -68 -31t-69 -35q-27 14 -41 28.5t-14 35.5l-41 45q-23 14 -47 14q-39 0 -84 -41q-31 -33 -46 -45q-4 -1 -8 -1q-26 0 -70 23q-51 25 -65 25 l-82 -90q-8 -18 -8 -43zM426 1001q0 -55 14 -67q23 39 45 39q14 0 52 -39q30 -31 54 -31q5 0 11 2q10 18 10 51q0 16 -3 38t-7 48q-14 23 -40.5 34t-61.5 11q-23 0 -35 -2t-35 -8q-2 -23 -3 -42t-1 -34zM438 813q0 -78 33 -133q25 0 36 23.5t21 46.5q12 10 25 10 q14 0 23.5 -26.5t15.5 -31.5q0 18 11 56.5t11 52.5q0 29 -16 47q-16 -6 -25 -6q-20 0 -34.5 33t-28.5 39q-4 4 -11 6t-12 2q-14 0 -28 -21q-20 -41 -21 -98zM440 1325l2 12l29 -4v-18q-4 -4 -9 -4q-2 0 -5 1q-8 3 -17 13z" />
<glyph unicode="q" horiz-adv-x="1019" d="M49 541q0 86 5 231.5t5 167.5q25 59 27 177t23 173q23 31 45 64q31 37 63 37q12 6 23 6q12 0 45.5 -13.5t54.5 -5.5q10 8 48 51.5t75 49.5q39 2 59 2q31 0 49.5 -7.5t26.5 -33t11 -41t9 -21.5q2 2 37 21.5t58 19.5q16 0 24 -2q-2 -8 2 -11t11 -5l12 6l102 -143 q31 -12 55.5 -64.5t30.5 -60.5q18 -113 25.5 -230.5t7.5 -263.5v-37v-35v-30v-25q0 -39 -1 -77t-1 -76v-25q-12 -94 -65.5 -171t-139.5 -118l-135 -49q20 -41 46 -77t138 -183l-4 -18h-366q-16 55 -27.5 125.5t-21.5 136.5q-12 14 -50.5 18t-85.5 19.5t-112.5 78t-81 132 t-21.5 151.5t-6 156zM104 1169q0 -20 2 -30q72 -29 98 -38q19 -6 45 -6q12 0 25 1q23 41 38.5 61.5t45.5 44.5q20 -6 44 -39t35.5 -41t22.5 -39.5t34 -35.5q12 23 27.5 90t64.5 88q33 -12 67.5 -82t42.5 -76q10 18 11 45q0 12 -2.5 28.5t-2.5 24.5q6 33 31 33q27 0 55 -29 q8 -49 38 -111.5t38 -73.5t16.5 -60.5t22.5 -69.5q8 14 10 30.5t2 37.5v43t5 34q18 47 18 82q0 74 -88 177.5t-102 132.5q-8 2 -25 2q-59 0 -92 -45q-31 -4 -44.5 37.5t-21.5 56.5q-29 12 -53 12q-47 0 -85 -29t-91 -86q-20 -8 -56 8.5t-49 16.5q-12 0 -69.5 -30.5 t-57.5 -164.5zM383 1286q9 28 25 28q7 0 16 -7q2 1 4 1q8 0 8 -14zM428 801q0 -74 4 -246t4 -186q20 12 43 24q11 4 21 4q27 0 46 -29q27 -38 52 -73q0 178 5 445.5t5 314.5q-10 25 -22 37t-39 18q-2 -8 -2 -27q0 -31 -3 -44t-26 -23q-25 -6 -36 0t-42 28q-6 -57 -8 -144 t-2 -99zM446 242q0 -43 48.5 -127t48.5 -115q0 106 65 182q2 8 2 14q0 14 -8 24q-12 16 -33 30q-27 53 -43 79.5t-32 26.5h-1q-20 0 -42 -32q-6 -6 -1 -21.5t5 -17.5q-8 -18 -9 -43z" />
<glyph unicode="r" horiz-adv-x="1032" d="M51 1335q4 6 29.5 61.5t50.5 73.5q39 2 57 3q31 0 49.5 -9.5t31 -41t30.5 -25.5q5 -1 11 -1q36 0 92 34q64 38 90 38q41 0 67 -49q8 -25 22.5 -42t32.5 -25q14 14 51 71.5t76 65.5q49 0 77 -47t52 -90q8 10 21 10q33 0 41 -35q12 -31 20.5 -58.5t9.5 -58.5v-20 q23 -57 31 -123t8 -147q0 -74 -45 -137.5t-118 -92.5q78 -33 104.5 -111.5t26.5 -199.5q0 -33 -2 -100.5t-2 -100.5q0 -51 3 -81.5t11 -59.5q-18 -25 -35 -29q-25 -2 -49 -8l-227 8q-6 6 -31 11.5t-27 23.5t-4 60t-2 110v92q0 84 -5 139.5t-21 108.5q-8 8 -28 12t-34 4h-76 l-14 -22q0 -66 4 -210t4 -149v-112q-6 -47 -8 -70l-352 -6l-13 8q0 301 -5 778.5t-5 548.5zM76 1307q0 -33 33 -58q39 0 54 -15t15 -46q0 -14 -4 -48t-4 -36q0 -25 10 -37l19 8q4 31 58 84t60 80q16 14 35 14q27 0 65 -43t50 -49q12 -12 35.5 -55t50.5 -51q8 55 27.5 95 t62.5 103q25 -35 51.5 -68.5t57.5 -62.5l45 72q76 0 103.5 -106.5t41.5 -122.5q6 14 8 27.5t2 27.5q0 12 -2 36.5t-2 39.5q0 25 8 49q-27 23 -28.5 92.5t-32.5 91.5q-20 -4 -27 -4q-33 0 -54 62.5t-54 72.5q-51 0 -87 -64.5t-59 -78.5q-37 0 -61.5 41t-44.5 78q-6 1 -12 1 q-40 0 -94 -33q-64 -38 -101 -38q-16 0 -31.5 4t-29 35t-31.5 39q-20 4 -44 -4t-44 -15q-23 -59 -45 -118zM238 1300q-1 2 -1 5q0 5 3 12l32 -4q-2 -2 -13 -10.5t-15 -8.5t-6 6zM430 981q0 -29 1 -46t7 -69q6 8 15.5 16.5t20.5 20.5t28 12q10 0 31.5 -9t29.5 -13q8 8 19 8 q6 0 32 -16q6 35 7 63q0 49 -23 101q-18 -47 -35 -48q-2 0 -39 40t-61 40q-11 0 -23 -6q-6 -20 -8 -55t-2 -39zM451 803q0 -20 4 -37.5t6 -28.5q18 0 33.5 23.5t27.5 21.5q14 -10 31 -34q14 12 14 34q0 39 11 47l-5 15q-12 2 -38.5 12t-38.5 10q-25 0 -35 -21.5t-10 -41.5z " />
<glyph unicode="s" horiz-adv-x="1247" d="M57 236q20 45 65.5 105t102.5 134q33 -4 66 -6q16 20 35 41q12 -10 91 -26.5t91 -69.5q18 6 58 31.5t61.5 29.5t29.5 4q31 0 65 -42t62 -42l23 4q14 25 -4.5 41.5t-52.5 34.5q-231 53 -461 109q-139 59 -175 156.5t-36 156.5q0 41 3 60.5t21 93.5q-26 51 -26 112 q0 39 10 86q20 49 46 82t71 47q18 -6 30 -6q33 0 65 56q29 51 67 52q4 0 8 -1q18 12 33 12q20 0 47.5 -25.5t38.5 -25.5q18 0 40 33q86 -25 173 -50q27 12 61.5 23.5t71.5 17.5q45 -27 71.5 -51t91.5 -94q25 -68 95 -107q-8 -12 -6 -18q4 -6 13 0t11 4q-16 -53 -74.5 -136 t-68.5 -104q-12 4 -23 5q-33 -4 -49 -5q-20 0 -31.5 9.5t-11.5 40.5q-63 29 -127.5 48t-124.5 19q-39 0 -72.5 -10t-62.5 -35q6 -10 6 -18t-6 -28.5t-6 -31.5l63 -32q207 -47 416 -93q233 -84 250.5 -209.5t17.5 -154.5q0 -98 -43 -185.5t-120 -160.5q-72 -61 -169.5 -89 t-213.5 -28q-82 0 -162 14.5t-152 38.5q-96 41 -167.5 83t-125.5 100zM92 1155q6 -29 9 -42t14 -15q8 18 24 18q12 0 27.5 -6t36.5 -12q0 27 27.5 42t60.5 15q14 -10 23.5 -41t17.5 -41q33 -63 46 -82.5t40 -23.5q-4 18 12 22l14 232q20 37 39 36q17 0 63 -44q36 -34 63 -34 q8 0 16 3q0 39 13 70.5t44 47.5q100 0 149.5 -135t75.5 -157q0 33 -8 76.5t-14 86.5q-12 18 -13 46q0 29 15 40q16 4 22 5q29 0 65 -30t50 -42l-4 8q8 8 8 19q0 20 -27 38q-12 55 -63 103q-51 39 -100 80q-16 0 -38 -8.5t-40 -14.5q-28 -26 -60 -26h-2q-23 0 -81 26.5 t-80 26.5q-18 -16 -30.5 -24.5t-27.5 -8.5q-8 0 -20 6q-8 27 -49 30t-43 5q-18 -8 -37 -16q-14 -10 -17 -25q0 -47 -51 -59q-43 -6 -84 -13q-47 -27 -66.5 -73.5t-19.5 -108.5zM297 399q41 -37 71.5 -90t59.5 -104h16q2 2 19.5 47t42.5 45q14 0 33.5 -11.5t26.5 -27.5 t22 -63q33 -8 42 31.5t21 47.5q43 0 100.5 -72.5t63.5 -74.5q-8 27 -8 61q0 25 8 74t8 76q-10 18 -29.5 27.5t-45.5 13.5q-26 0 -50 37q-21 31 -47 31q-5 0 -10 -1q-2 -2 -38 -16t-48 -35q-14 -8 -31 -8q-10 0 -27.5 5t-27.5 7q-6 49 -53 56.5t-90 13.5q-14 -12 -20.5 -34.5 t-8.5 -35.5zM317 1239q5 -10 21 1q11 7 16 7q3 0 6 -2q-2 -6 -14 -12q-5 -3 -10 -3l-14 5z" />
<glyph unicode="t" horiz-adv-x="1187" d="M55 1354q0 -29 27 -41l-10 86q-16 -23 -17 -45zM72 1399l10 -86q-8 -66 -8 -144q0 -74 14 -139h154q49 0 99 -2t99 -8q0 -92 -1 -184.5t-1 -184.5q0 -174 4 -322.5t19 -297.5l10 -29l320 -2l20 18l-14 983l12 33l209 8q20 -16 36.5 -48.5t32.5 -61.5q27 4 31 56t33 61 l6 217q-6 41 -35.5 76.5t-77.5 66.5q-27 10 -53 10q-41 0 -69 -28q-12 -6 -21 -7q-23 0 -44 27t-46 62q-6 2 -23 2h-30q-29 0 -41 8q-33 -12 -62.5 -44t-42 -45.5t-22.5 -13.5t-22.5 13.5t-22.5 25.5q-23 12 -47.5 28.5t-36.5 39.5q-12 2 -22 2q-15 0 -27 -5 q-20 -9 -66.5 -43t-66.5 -34q-18 0 -55.5 29.5t-57.5 29.5q-14 0 -37 -12q-14 -4 -29.5 -20.5t-27.5 -34.5zM88 1362q0 18 9 31.5t30 29.5q12 6 25 7q16 0 38.5 -15.5t34.5 -23.5q23 -6 41 -7q35 0 68.5 16.5t60.5 43.5q14 14 27 14q10 0 25.5 -12t29.5 -23h3q28 0 52 -40 q26 -42 43 -42q12 0 31 13q49 43 82 70.5t68 27.5q23 0 41 -8q41 -55 55 -69.5t53 -14.5q20 2 54 15.5t51 13.5q14 0 30 -7q4 -4 40 -51t36 -71q0 -23 -16 -46q6 -16 -7.5 -30.5t-13.5 -22.5t8 -16q2 -23 5.5 -42.5t3.5 -41.5q0 -31 -9 -53q-25 25 -49 80t-53 120 q8 18 -4 30.5t-31 21.5q-31 -8 -58.5 -30t-39.5 -50q8 -8 8 -19q-8 -29 -8 -41q-6 2 -37 20.5t-51 18.5t-37 -14q-31 -37 -39 -129t-22 -123q-39 41 -74 147.5t-82 149.5q-14 6 -34.5 11t-31.5 5q-16 0 -30 -8l-35 -31q-25 10 -67 60.5t-66 50.5q-25 0 -49 -23 q-16 -4 -21 -4q-31 0 -53.5 48.5t-34.5 62.5zM551 1290l74 -24q12 0 34 12q0 -29 -53 -39h-4q-22 1 -32 23q-11 24 -19 28zM678 1305h14q-2 -14 -6 -15zM748 1374q23 -10 37 -18t24 -27q-3 -4 -9 -4q-9 0 -26 10q-14 19 -26 39z" />
<glyph unicode="u" horiz-adv-x="995" d="M45 1298q8 70 17.5 119t50.5 72q25 -4 51 -8t33 -27v-27q0 -23 10 -32q14 8 18 0v-9q-16 -4 -20 -4q-25 0 -27 48.5t-31 48.5q-8 0 -24 -6q-18 6 -27.5 -8.5t-15.5 -26.5q0 -20 -1 -41t-1 -39q0 -41 12 -66q-14 -12 -14 -28t13 -43t13 -31l11 -12q14 16 14 32 q0 10 -4 27.5t0 32.5q14 -6 31.5 6t21.5 12q8 0 32.5 -24.5t47.5 -59.5t27 -80q10 -8 26.5 -38.5t32.5 -34.5q14 20 19.5 43.5t5.5 60.5q-2 45 -2 66q0 35 8 59q-4 16 1 35.5t5 25.5q-23 8 -47.5 39t-44.5 60q-18 -2 -30.5 -7.5t-20.5 -17.5q-8 8 4 22.5t26.5 18.5t22.5 4 q23 0 49.5 -39t54.5 -39l13 -45q0 -170 1 -350t7 -327.5t24 -321.5q6 6 21.5 45t32 42t23.5 3h9q33 0 56.5 -47t40.5 -57q0 188 1 436t3 555q4 4 32.5 66.5t67.5 78.5q18 -4 39 -8q23 -8 37 -27q0 -23 3 -36t15 -25q18 -2 33.5 25.5t38.5 19.5q29 -43 33 -116.5t8 -139.5 q0 -104 8 -303t8 -295q0 -106 -6 -195.5t-24 -191.5q-45 -98 -134.5 -137t-218.5 -39q-51 0 -134 7t-126 11q-72 0 -125 34t-82.5 82t-39 69.5t-9.5 48.5q0 219 -1 435t-1 417.5t-2 201.5zM256 1323q12 2 21.5 -5t19.5 -13q-2 -4 -12.5 -4.5t-14.5 -0.5zM444 279 q10 -31 24.5 -64t43.5 -47q14 -30 24 -50q8 -16 22 -15q4 0 9 1q13 54 23 94q7 28 7 52q0 10 -1 20q-35 72 -74 127q-37 0 -51 -41t-27 -77zM664 1323q74 -88 105.5 -138t31.5 -118q6 -6 23.5 -27.5t21.5 -29.5q20 31 24 117.5t18.5 106t17.5 27t3 15.5q0 16 -14 46t-12 48 q-14 0 -30.5 -21.5t-33.5 -17.5q-23 8 -36 27.5t-5 42.5q-4 20 -21 25.5t-48 5.5q-18 -25 -31.5 -52.5t-13.5 -56.5z" />
<glyph unicode="v" horiz-adv-x="1054" d="M49 1329q0 59 23.5 102.5t74.5 57.5q29 0 57.5 -22.5t55.5 -45.5q10 0 30.5 14.5t33.5 14.5q12 0 22 -10q47 -14 53 -60q0 -55 29 -73l70 -322q12 -6 33.5 3t29.5 9t21 -6l22 -57q37 88 64.5 223t52.5 258q0 27 18.5 41t42.5 14q9 3 18 3q26 -1 44 -23q24 -30 47 -57 q20 2 45 35.5t53 33.5q27 -16 27 -53q0 -23 -4 -33t-8.5 -20t-8.5 -27q20 -6 21 -26q-2 -23 -4 -43q-47 -190 -97.5 -409.5t-105.5 -466.5t-88 -384l-393 6q-55 264 -99.5 461t-93.5 424t-86 438zM80 1372q0 -70 27.5 -124t87.5 -91q8 2 16 26.5t29 22.5q39 -49 63.5 -106.5 t24.5 -114.5h10q0 35 18.5 118t18.5 116q14 20 14 43q0 18 -10 56t-10 48q-12 23 -24.5 37t-35.5 10q-20 -31 -43 -31q-18 0 -61 39t-47 41q-20 0 -39 -11t-35 -30q-4 -33 -4 -49zM512 940q8 -8 8 -39q0 -45 10 -57q10 -39 11 -92q0 -37 -2 -76t-4 -76q0 -41 7 -71.5 t27 -65.5q18 23 27.5 51.5t9.5 56.5q0 27 -11 94.5t-11 90.5q-6 12 -6 26q0 16 2 34l4 36q0 12 -2 18q-10 10 -15 53.5t-28 49.5q-27 -18 -27 -33zM727 1307q14 -16 22.5 -38t8.5 -59q0 -31 -5 -78t-5 -53q0 -27 4 -46t18 -38l25 168q16 14 25 58.5t30 54.5q0 -37 35 -90 t39 -76q27 49 43 159.5t26 143.5l-22 23l-51 -66q-16 -10 -33 -10q-23 0 -46.5 40t-35.5 48q-20 4 -27 4q-27 0 -34 -19.5t-7 -54.5q0 -25 -1 -42t-9 -29z" />
<glyph unicode="w" horiz-adv-x="1730" d="M87 1312.5q5 8.5 20.5 63t50.5 64.5q20 6 50 -10.5t66 -34.5q23 0 31 51q37 6 53.5 -10.5t42.5 -53.5q8 -6 13.5 -36.5t34.5 -24.5q25 -59 62.5 -219t45.5 -182q12 2 37 2q18 0 34.5 -1t30.5 -1l93 409q-16 10 -17 37q0 23 19.5 51.5t50.5 48.5q25 0 47 -12t43 -33 q12 4 45.5 36t60.5 32q63 0 82 -74t40.5 -174t78.5 -307q10 6 30.5 26.5t33.5 20.5l41 -8q25 84 51 179t26 167q0 31 -2 45q18 33 34 60.5t38 37.5q6 1 11 1q33 0 41 -45q10 -52 26 -52q10 0 33 12q16 25 37.5 41.5t48.5 16.5q12 0 18 -2q43 -43 43 -105q0 -37 -22.5 -114.5 t-22.5 -114.5q-39 -152 -81 -341.5t-90 -414.5t-75 -334q-63 -8 -149 -8q-37 0 -111 2t-106 2l-13 14l-131 594l-20 -22l-119 -582h-364q-35 125 -76 297t-79 338t-75 303q-6 2 -23.5 -4t-22.5 18.5t-5 61.5q0 20 2 62t2 63q0 41 -5 64.5t-22 54.5q-22 0 -22 22q0 14 5 22.5 zM113 1323q53 -113 53 -250q0 -31 -2 -45q35 31 43 70t8 106q8 31 20.5 40t28.5 1q45 -178 92 -354q20 94 33.5 142t27 69.5t14.5 33t3 19.5q0 16 -12 49t-12 51q0 12 6 25q-18 18 -36 69.5t-46 71.5q-16 -4 -38 -31.5t-24 -29.5q-7 -2 -13 -2q-25 0 -48 30q-24 33 -51 34 q-4 0 -8 -1q-23 -12 -27 -50t-12 -48zM582 885q8 -98 15 -167t42 -120q20 18 31.5 45t11.5 55q0 35 -15.5 87.5t-27.5 99.5q-10 8 -31 8q-18 0 -26 -8zM772 1378q0 -39 48 -114.5t48 -116.5q18 2 35 39t43 37q45 -119 90 -236q14 29 19.5 64.5t5.5 85.5v75q0 31 1 62t11 63 q-14 49 -24 82t-43 43q-29 0 -43.5 -15t-44.5 -61q-10 -6 -19 -6q-18 0 -44 28t-42 28q-12 0 -27 -9q-14 -23 -14 -49zM1210 874q33 -117 68 -231q8 41 15 61.5t7 38.5q0 23 -9 58t-9 47q0 14 6 31q-12 14 -16 37.5t-12 35.5q-18 -8 -30.5 -35.5t-19.5 -42.5zM1411 1356 q0 -20 10 -47q-8 -10 -8 -25q0 -16 15.5 -43t15.5 -37q16 2 16 29q6 10 15 10q12 -4 20 -4q31 -20 23 -51q16 -31 20 -106.5t21 -106.5q0 68 60 188.5t60 179.5q0 16 -9 41t-28 25q-10 0 -41.5 -31.5t-58.5 -31.5q-12 0 -18 2h-6q-30 0 -37 41q-8 45 -33 45q-37 -35 -37 -78 z" />
<glyph unicode="x" horiz-adv-x="1177" d="M53 12q156 324 314 647v31q-154 303 -306 606q-6 35 -6 68q0 58 25 111q12 14 41 14h55q14 -35 25.5 -57.5t38.5 -28.5q25 12 47 15t61 3h19q9 -4 39 -41q26 -33 52 -33q3 0 7 1q-2 -10 -2 -31q0 -43 25.5 -90t50.5 -90q33 16 51 16t31 -10q20 31 46.5 89t39.5 81 q-16 18 -17 47v41q10 29 18.5 47t28.5 27q8 2 15 2q28 0 50 -36q28 -46 38 -46q16 0 41 45q16 8 30 8q20 0 51 -34t56 -34q10 -27 21.5 -57.5t11.5 -52.5q0 -29 -17 -47q6 -80 13 -158q0 -63 -17 -113q-20 -10 -31.5 9.5t-19.5 37.5q-4 27 -7 46.5t-11 35.5l-33 -32 l-154 -322l8 -37q186 -315 367 -674q-70 0 -233.5 -4t-176.5 -4q-27 37 -87 158t-77 147l-32 -34l-121 -269q-39 -6 -100.5 -8t-69.5 -2h-25h-73.5t-73.5 2h-19zM84 1395q0 -84 53 -135q16 10 31 10q16 0 28.5 -45t41.5 -49q25 -4 35 26.5t36 26.5q37 -27 74 -68t72 -88 q-10 25 -12.5 45.5t-2.5 57.5v37.5t2 39.5q0 41 -8 72q-23 8 -55.5 42t-36.5 36q-18 0 -34.5 -1t-31.5 -18q-12 -6 -26 -6q-18 0 -36.5 9.5t-37.5 27.5q0 18 -11 39t-40 21q-17 -1 -33 -13q-8 -31 -8 -67zM555 1061q0 -35 15.5 -81t21.5 -69q0 31 7 67t19 71q-8 23 -17 47 t-36 24q-6 -14 -8 -35.5t-2 -23.5zM711 1386v-8q0 -23 10 -41q12 -22 35 -43q-8 -10 -8 -24q0 -12 16 -37t14 -41q10 8 40 21.5t54 25.5q84 -23 98.5 -104.5t24.5 -133.5l19 -18q2 10 7 27.5t3 27.5q8 23 8 54q0 29 -11 83t-11 74q0 31 12 56q0 29 -43 63.5t-47 48.5 q-10 3 -19 3q-21 0 -41 -18q-28 -24 -38 -34h-3q-31 0 -47 42q-16 40 -46 40h-5q-12 -8 -16 -27.5t-6 -36.5z" />
<glyph unicode="y" horiz-adv-x="1177" d="M55 1257q0 20 5.5 35t19.5 35q25 51 40 78t44 43q43 0 63 -35q20 -49 29 -70q14 4 38.5 41t44 43.5t28.5 6.5q16 0 40.5 -28t34.5 -30q49 -104 99 -207q10 -12 18 -12q6 0 22.5 12.5t28.5 12.5q6 1 12 1q28 0 44 -24q18 -43 26 -59q35 25 57.5 74t43.5 94q-8 20 -9 41 q1 16 9 24q25 14 63.5 85t67.5 71q25 0 57 -35q6 -23 12 -36t21 -19q20 10 35.5 17t29.5 1q35 -10 44.5 -57t25.5 -55q-20 -41 -38.5 -163t-25.5 -138q-14 -8 -32.5 9t-28.5 15l-221 -422l-12 -598q-35 -6 -91.5 -8t-64.5 -2q-29 0 -89.5 2t-90.5 2q-8 51 -10.5 99.5 t-2.5 113.5v110.5t2 112.5v43q0 63 -6 123q-45 92 -115.5 217t-156.5 281q-10 2 -25.5 -12.5t-27.5 -10.5q-4 16 -31 81t-27 97zM86 1260q0 -68 33 -125h12q10 18 14.5 27t4.5 24q0 8 -7 18q16 20 28.5 32.5t29.5 14.5q20 -23 42.5 -46t45.5 -29q22 32 63 32h2q18 0 41 -10 t35 -66.5t33 -70.5q6 33 10 60.5t4 56.5q0 39 -8 69.5t-33 63.5q8 27 -26.5 49t-34.5 43q-16 4 -23 4q-27 0 -47 -44t-45 -48q-25 -6 -31 18.5t-9 47t-17.5 32.5t-32.5 10q-51 0 -57 -49q-27 -53 -27 -114zM575 1098q47 -29 61.5 -129.5t70.5 -124.5q8 49 12 84t4 63 q0 20 -2 31q-20 14 -51 71.5t-70 61.5q-25 -18 -25 -57zM821 1286q0 -20 23.5 -76.5t23.5 -74.5q41 51 84 104q37 -10 59.5 -62.5t51.5 -115.5q10 10 15 32.5t12 43.5q-4 16 -5 24q0 23 12.5 68t12.5 67q0 29 -14 56q-6 33 -33 32q-12 0 -28.5 -6t-24.5 -8q-33 0 -48 47 q-13 43 -45 43h-6q-59 -43 -65 -121q-25 -23 -25 -53z" />
<glyph unicode="z" horiz-adv-x="1128" d="M51 156v62.5t2 64.5q119 166 269.5 364.5t293.5 388.5q0 20 -25.5 24.5t-27.5 4.5l-166 2q-14 -6 -26.5 -38t-28.5 -38q-12 6 -26 47q-13 37 -44 37h-6h-147q-8 39 -8 92q0 39 2 79t4 81q25 53 41 92t37 68q4 1 9 1q22 0 50 -26q32 -30 53 -30q12 0 30.5 11t46.5 21.5 t52 10.5q29 0 49.5 -9.5t24.5 -37t12 -37.5q92 47 187 94q32 0 61 -31q23 4 41 -14.5t37 -34.5q25 20 53.5 29.5t95.5 9.5h37q41 -49 55.5 -106.5t14.5 -135.5q0 -37 -1 -67.5t-1 -55.5q-41 -39 -49.5 -117.5t-14.5 -150.5q-14 6 -25.5 31.5t-21.5 48.5q-51 -53 -132 -161.5 t-175 -237.5q-6 -14 11.5 -21.5t19.5 -13.5v-7q1 -32 33 -48q36 -16 71 -31q25 14 56.5 23t58.5 5q40 -35 70 -56q21 -15 46 -15q9 0 19 2q25 -23 34 -55.5t9 -79.5q0 -33 -2 -68l-4 -70q0 -29 2 -43l-25 -14l-1017 14q-10 33 -12.5 62.5t-2.5 79.5zM164 1337q0 -27 18 -39 q59 -18 88 -90q20 -63 43 -127q18 -20 37 -20q18 0 35 14q-14 29 -14 64q0 33 10 66.5t31 72.5q18 8 34 8q25 0 57 -34.5t48 -43.5q14 -14 27 -14q12 0 36.5 28.5t44.5 22.5q18 -20 66.5 -28.5t65.5 -24.5q0 16 29.5 37.5t35.5 38.5q41 -20 61.5 -67.5t36.5 -115.5 q29 -25 37 -82t35 -75q10 96 16.5 142t16.5 87q-4 20 -4 27q0 16 4 26.5t26 46.5q6 16 7 31q0 20 -16.5 45t-37.5 58q-6 29 -34 28q-6 0 -19 -4q-14 8 -31 8q-18 0 -63 -26.5t-51 -28.5q-31 39 -57.5 52.5t-96.5 33.5l-121 -72q-10 4 -31.5 -4t-27.5 -8q-14 0 -23 14 q8 14 9 25q0 16 -19.5 25.5t-38.5 13.5q-7 3 -15 3q-25 0 -53 -33q-36 -42 -49 -44q-27 -8 -49 21.5t-32 36.5q-10 6 -19 6q-20 0 -39 -27q-8 -37 -14 -74zM543 268q37 -37 54 -50t44 -13q8 29 14.5 40t26.5 15h5q35 0 59 -48q24 -52 47 -60q18 8 27 21t17.5 39t31 37 t55.5 11h24q16 -4 25 -4q9 -60 62 -60q6 0 12 1q8 35 16 71q0 25 -19 35q-8 -2 -17 -2q-29 1 -61 25q-42 32 -61 39q-7 3 -14 3q-21 0 -47 -20q-36 -26 -43 -26q-23 0 -39 38q-8 -2 -14 -2q-36 0 -52 44q-20 52 -49 53l-22 -4q-37 -29 -59.5 -79t-22.5 -104z" />
<glyph unicode="&#xa2;" horiz-adv-x="661" d="M33 567q0 63 4 133t14 172q-10 6 -10 15q0 6 9 26.5t1 32.5q2 10 11.5 18.5t25.5 16.5q-33 -45 -33 -115q0 -49 15 -80q2 -10 18 -10q14 0 21 -2q10 12 20 51t29 54q6 -2 20.5 -14.5t28.5 -8.5q6 8 18.5 41t30.5 41q20 -8 44 11.5t34 21.5q8 -4 28.5 -28.5t36.5 -24.5 q10 0 21 8l22 26q35 -10 45.5 -71.5t28.5 -61.5q12 0 41 19q10 -12 21.5 -45t29.5 -43q4 12 7 30.5t8 44.5q8 -23 10 -57.5t2 -79.5q-23 -6 -46.5 -8t-56.5 -2h-56t-56 2q-6 12 -8 34.5t-2 43.5q0 57 -7.5 81.5t-46.5 37.5q-45 0 -65 -46q-4 -25 -6 -58.5t-2 -65.5 q0 -59 5 -154.5t5 -112.5q18 12 37 13q18 0 39.5 -9.5t23.5 -21.5t10 -10q10 25 11.5 53.5t3.5 56.5q41 8 82 8q31 0 80 -3t55 -3q2 -25 3 -44t1 -34q0 -82 -23.5 -141t-58.5 -77.5t-67.5 -29t-35.5 -23.5t-3 -34q2 -27 2 -39q0 -39 -19 -51l-196 6q-8 12 -9 45v29 q0 25 -5 41t-21 29q-96 27 -140 104q-16 53 -23 117.5t-7 144.5zM98 985l19 -53q-10 -4 -13.5 4t-3.5 25q0 20 -2 24zM125 989q4 2 10.5 27t18.5 33l18 -7q2 -8 -17.5 -24.5t-19.5 -28.5h-10zM186 1063q8 8 33 13t29 20q16 -25 28.5 -49.5t6.5 -45.5q14 -14 20 -4.5t8 17.5 l-14 -8q-6 39 -14.5 62.5t-28.5 47.5q0 10 -10.5 35t-10.5 37q0 23 35 31q16 -14 39 -15q23 0 42.5 12.5t37.5 30.5q14 -12 30.5 -28.5t16.5 -40.5q-14 -23 -22.5 -70t-18.5 -70q-18 0 -28.5 9.5t-30.5 31.5v-22q12 -4 33.5 -23.5t44.5 -15.5l-13 16l4.5 36t20.5 26l4 -4 q0 -20 -4 -25q33 -6 63.5 -46t44.5 -58l13 -84q4 35 9 52t19 25q10 4 24.5 1t23.5 -17q2 -10 11 -31.5t9 -31.5q0 -14 -8 -25l8 37q-4 35 -8 57.5t-35 20.5q-25 -12 -39 -13q-25 0 -50.5 55.5t-57.5 63.5l-5 96h-12l6 62l-16 12q-14 14 -29 14q-12 0 -38.5 -18t-41.5 -22 q-29 14 -47 14q-33 0 -42 -74t-40 -94zM262 350q0 -18 17.5 -36.5t33.5 -32.5q14 0 45 -13.5t45 -11.5q14 12 15 45v22.5v16.5l-56 78q-14 14 -28 14t-33.5 -28.5t-32.5 -34.5q-6 -10 -6 -19z" />
<glyph unicode="&#xad;" d="M25 623q0 96 20 161.5t88 100.5q29 2 48.5 -19.5t33.5 -52.5q-2 -6 2 -11t10 -11q23 0 41.5 19t36.5 38q31 -4 66 -7t49 -26q-8 -16 -8 -29q0 -16 33.5 -34.5t33.5 -44.5v-153t2 -146q-88 -8 -190 -9q-45 0 -106.5 1t-141.5 3q-10 23 -12 41.5t-2 51.5v36.5t2 36.5 q0 29 -6 54zM63 756q14 -57 30 -87t57 -46q4 -4 11 -6.5t11 -2.5q18 0 49 40t60 32q27 -37 41 -92t28 -105q6 41 47 120t43 87q-23 27 -39 50.5t-16 60.5q-18 6 -37 6q-57 0 -102 -55q-16 -4 -23 -4q-25 0 -45 49t-53 49q-23 -10 -36 -34.5t-26 -61.5z" />
<glyph unicode="&#xb1;" horiz-adv-x="1124" d="M20 0v113h1084v-113h-1084zM20 723v113h486v485h112v-485h486v-113h-486v-485h-112v485h-486z" />
<glyph unicode="&#xb5;" horiz-adv-x="1179" d="M66 -309q0 25 6 58.5t29.5 117.5t23.5 149v1008h176v-682q0 -80 24.5 -135t75 -79t95.5 -24q39 0 82 19.5t85 56.5t62 82v762h176v-786q0 -39 12.5 -80t38 -66.5t60.5 -25.5q20 0 50 16t40 54t18 71h41q-18 -80 -42.5 -127t-88 -81t-117.5 -34q-33 0 -60.5 9.5t-61 35 t-47 78.5t-17.5 78q-31 -43 -63.5 -76t-74.5 -62.5t-92.5 -46t-105.5 -16.5q-59 0 -121 41q-57 47 -71 57v-47q0 -68 27.5 -151.5t33.5 -117.5t6 -58q0 -68 -30.5 -107t-69.5 -39t-69.5 39t-30.5 109z" />
<glyph unicode="&#xf7;" horiz-adv-x="1124" d="M20 483v113h1078v-113h-1078zM434 260q0 49 33 82t82 33t82 -33t33 -82t-33 -82t-82 -33t-82 33t-33 82zM434 819q0 49 33 82t82 33t82 -33t33 -82t-33 -81.5t-82 -32.5t-82 32.5t-33 81.5z" />
<glyph unicode="&#x2000;" horiz-adv-x="746" />
<glyph unicode="&#x2001;" horiz-adv-x="1493" />
<glyph unicode="&#x2002;" horiz-adv-x="746" />
<glyph unicode="&#x2003;" horiz-adv-x="1493" />
<glyph unicode="&#x2004;" horiz-adv-x="497" />
<glyph unicode="&#x2005;" horiz-adv-x="373" />
<glyph unicode="&#x2006;" horiz-adv-x="248" />
<glyph unicode="&#x2007;" horiz-adv-x="248" />
<glyph unicode="&#x2008;" horiz-adv-x="186" />
<glyph unicode="&#x2009;" horiz-adv-x="298" />
<glyph unicode="&#x200a;" horiz-adv-x="82" />
<glyph unicode="&#x2010;" d="M25 623q0 96 20 161.5t88 100.5q29 2 48.5 -19.5t33.5 -52.5q-2 -6 2 -11t10 -11q23 0 41.5 19t36.5 38q31 -4 66 -7t49 -26q-8 -16 -8 -29q0 -16 33.5 -34.5t33.5 -44.5v-153t2 -146q-88 -8 -190 -9q-45 0 -106.5 1t-141.5 3q-10 23 -12 41.5t-2 51.5v36.5t2 36.5 q0 29 -6 54zM63 756q14 -57 30 -87t57 -46q4 -4 11 -6.5t11 -2.5q18 0 49 40t60 32q27 -37 41 -92t28 -105q6 41 47 120t43 87q-23 27 -39 50.5t-16 60.5q-18 6 -37 6q-57 0 -102 -55q-16 -4 -23 -4q-25 0 -45 49t-53 49q-23 -10 -36 -34.5t-26 -61.5z" />
<glyph unicode="&#x2011;" d="M25 623q0 96 20 161.5t88 100.5q29 2 48.5 -19.5t33.5 -52.5q-2 -6 2 -11t10 -11q23 0 41.5 19t36.5 38q31 -4 66 -7t49 -26q-8 -16 -8 -29q0 -16 33.5 -34.5t33.5 -44.5v-153t2 -146q-88 -8 -190 -9q-45 0 -106.5 1t-141.5 3q-10 23 -12 41.5t-2 51.5v36.5t2 36.5 q0 29 -6 54zM63 756q14 -57 30 -87t57 -46q4 -4 11 -6.5t11 -2.5q18 0 49 40t60 32q27 -37 41 -92t28 -105q6 41 47 120t43 87q-23 27 -39 50.5t-16 60.5q-18 6 -37 6q-57 0 -102 -55q-16 -4 -23 -4q-25 0 -45 49t-53 49q-23 -10 -36 -34.5t-26 -61.5z" />
<glyph unicode="&#x2012;" d="M25 623q0 96 20 161.5t88 100.5q29 2 48.5 -19.5t33.5 -52.5q-2 -6 2 -11t10 -11q23 0 41.5 19t36.5 38q31 -4 66 -7t49 -26q-8 -16 -8 -29q0 -16 33.5 -34.5t33.5 -44.5v-153t2 -146q-88 -8 -190 -9q-45 0 -106.5 1t-141.5 3q-10 23 -12 41.5t-2 51.5v36.5t2 36.5 q0 29 -6 54zM63 756q14 -57 30 -87t57 -46q4 -4 11 -6.5t11 -2.5q18 0 49 40t60 32q27 -37 41 -92t28 -105q6 41 47 120t43 87q-23 27 -39 50.5t-16 60.5q-18 6 -37 6q-57 0 -102 -55q-16 -4 -23 -4q-25 0 -45 49t-53 49q-23 -10 -36 -34.5t-26 -61.5z" />
<glyph unicode="&#x2013;" horiz-adv-x="669" d="M31 623q0 92 27.5 160.5t109.5 101.5q35 0 59.5 -21.5t42.5 -50.5q-4 -4 0 -10q12 -8 15 -12q27 0 50 19l46 38q14 -4 69.5 -7t75.5 -26q-8 -16 -8 -31q0 -12 40 -33.5t40 -43.5q0 -59 1 -134t3 -165q-90 0 -270 -2.5t-279 -2.5q-8 14 -12 40t-4 49v33.5t2 35.5 q0 37 -8 62zM80 756q16 -53 36.5 -85t69.5 -48q14 -8 29 -9q23 0 61.5 40t75.5 32q31 -37 49.5 -92t36.5 -105q6 39 53.5 107t57.5 100q-25 25 -46.5 49.5t-21.5 61.5q-23 6 -43 6q-76 0 -131 -55q-20 -4 -26 -4q-31 0 -57.5 49t-67.5 49q-29 -10 -44.5 -33.5t-31.5 -62.5z " />
<glyph unicode="&#x2014;" horiz-adv-x="915" d="M41 623q0 90 40 159.5t155 102.5q49 0 82.5 -20.5t60.5 -51.5q-4 -4 0 -10q16 -8 20 -12q39 0 72 19t64 38q53 -4 113.5 -7t88.5 -26q-14 -16 -14 -31q0 -16 56.5 -34.5t56.5 -42.5q2 -23 3 -71t3 -85v-143q-127 0 -377 -2.5t-389 -2.5q-18 23 -21.5 48.5t-3.5 46.5v55 q0 41 -10 70zM113 756q23 -49 53.5 -84t93.5 -49q23 -8 43 -9q29 0 80 37t86 37q16 0 25 -2q43 -37 68.5 -92t49.5 -105q10 39 77 108t79 99q-37 27 -64.5 50.5t-27.5 60.5q-35 6 -66 6q-102 0 -180 -55q-29 -4 -37 -4q-41 0 -83 49t-91 49q-43 -10 -62.5 -32.5t-43.5 -63.5 z" />
<glyph unicode="&#x2018;" horiz-adv-x="411" d="M39 1120q8 74 14 123t45 84q20 6 37 9t31 3q22 0 45 -12q27 49 84 66q74 14 108 20q-2 -20 1.5 -55t7.5 -78q0 -33 -11.5 -58.5t-40.5 -43.5q25 -43 34 -91.5t9 -111.5q0 -35 -4 -118t-4 -89l-20 -14l-301 8q-6 61 -6 127q0 39 2 106.5t2 91.5q-2 2 -18.5 10.5 t-14.5 22.5zM74 1116q0 -10 10 -18t29.5 -12.5t29.5 1.5q10 33 62.5 99.5t58.5 79.5l33 -23q10 8 15 24.5t14 37.5v43q-16 8 -31 8q-20 0 -41 -45t-49 -45q-8 0 -25 6q-10 10 -21.5 20.5t-25.5 3.5q-29 -6 -41 -18t-8 -27q4 -8 4 -28v-37v-21q2 -10 -6 -25.5t-8 -23.5z M283 1071q14 -27 18 -74t8 -86q27 23 41.5 73t20.5 75l-31 78q-45 -12 -57 -66z" />
<glyph unicode="&#x2019;" horiz-adv-x="432" d="M51 621l4 147q57 74 117 150q-12 8 -45 8h-25q-41 0 -41 37q8 41 9 98q0 25 -1 51.5t-1 52.5q0 88 20 141.5t88 86.5q2 0 27.5 -39t52.5 -39l23 4q25 14 49 29q10 0 18 -9q29 -18 36 -61t17 -57v-121v-25q0 -76 -10 -174q-156 -150 -311 -297q-12 4 -20.5 6t-6.5 11z M94 1270q0 -18 10 -29q-6 -12 -6 -24q0 -20 16.5 -44t32.5 -45q18 -10 35 12.5t21 24.5q29 -4 42 -41t31 -43q33 20 58.5 50t30.5 65q-2 8 -9.5 56t-38.5 61q-23 -33 -71 -33q-27 0 -46.5 21.5t-29.5 54.5q-14 4 -27.5 -3t-31.5 -38q-16 -20 -17 -45z" />
<glyph unicode="&#x201c;" horiz-adv-x="870" d="M39 1120q8 74 14 123t45 84q20 6 37 9t31 3q22 0 45 -12q27 49 84 66q74 14 108 20q-2 -20 1.5 -55t7.5 -78q0 -33 -11.5 -58.5t-40.5 -43.5q25 -43 34 -91.5t9 -111.5q0 -35 -4 -118t-4 -89l-20 -14l-301 8q-6 61 -6 127q0 39 2 106.5t2 91.5q-2 2 -18.5 10.5 t-14.5 22.5zM74 1116q0 -10 10 -18t29.5 -12.5t29.5 1.5q10 33 62.5 99.5t58.5 79.5l33 -23q10 8 15 24.5t14 37.5v43q-16 8 -31 8q-20 0 -41 -45t-49 -45q-8 0 -25 6q-10 10 -21.5 20.5t-25.5 3.5q-29 -6 -41 -18t-8 -27q4 -8 4 -28v-37v-21q2 -10 -6 -25.5t-8 -23.5z M283 1071q14 -27 18 -74t8 -86q27 23 41.5 73t20.5 75l-31 78q-45 -12 -57 -66zM440 1120q10 74 16.5 123t45.5 84q20 6 36.5 9t30.5 3q20 0 43 -12q27 47 86 66q74 14 109 20q-2 -8 -2 -24t4 -60.5t4 -52.5q0 -35 -9 -57.5t-40 -40.5q23 -43 32 -91.5t9 -109.5 q0 -35 -4 -120t-4 -89l-21 -14l-299 8q-8 63 -8 149q0 35 2 94.5t2 81.5q-14 10 -23.5 14.5t-9.5 18.5zM475 1114q0 -8 8 -16q35 -23 62 -11q10 33 62 99.5t59 79.5l32 -23q14 10 19.5 33.5t9.5 28.5v43q-16 8 -31 8q-20 0 -40.5 -45t-47.5 -45q-8 0 -24 6q-12 10 -23.5 19 t-25.5 5q-20 -4 -36 -15t-14 -30q6 -12 7 -28q-2 -29 -1 -49.5t-7.5 -38t-8.5 -21.5zM686 1071q16 -31 19.5 -84t5.5 -76q27 23 41 73t20 75l-29 78q-49 -12 -57 -66z" />
<glyph unicode="&#x201d;" horiz-adv-x="827" d="M51 621l4 147q57 74 117 150q-12 8 -45 8h-25q-41 0 -41 37q8 41 9 98q0 25 -1 51.5t-1 52.5q0 88 20 141.5t88 86.5q2 0 27.5 -39t52.5 -39l23 4q25 14 49 29q10 0 18 -9q29 -18 36 -61t17 -57v-121v-25q0 -76 -10 -174q-156 -150 -311 -297q-12 4 -20.5 6t-6.5 11z M94 1270q0 -18 10 -29q-6 -12 -6 -24q0 -20 16.5 -44t32.5 -45q18 -10 35 12.5t21 24.5q29 -4 42 -41t31 -43q33 20 58.5 50t30.5 65q-2 8 -9.5 56t-38.5 61q-23 -33 -71 -33q-27 0 -46.5 21.5t-29.5 54.5q-14 4 -27.5 -3t-31.5 -38q-16 -20 -17 -45zM430 621l6 147 q57 74 115 150q-12 8 -43 8h-25q-43 0 -43 37q6 20 8.5 43.5t2.5 56.5q0 25 -1 51.5t-1 52.5q0 88 20 140.5t88 85.5q23 -31 39 -54.5t41 -23.5l22 4q25 14 50 29q10 0 18 -9q27 -18 34 -60t19 -58v-121v-25q0 -84 -12 -174q-156 -150 -309 -297q-12 4 -21.5 6t-7.5 11z M475 1268q0 -16 8 -27q-6 -12 -6 -24q0 -20 16.5 -44t32.5 -45q16 -8 27 0q14 18 31 37q27 -4 41 -41t32 -43q35 23 59.5 51.5t28.5 63.5q-4 10 -9 57t-38 60q-10 -16 -30.5 -24.5t-42.5 -8.5q-23 0 -40.5 15.5t-35.5 60.5q-14 4 -27.5 -3t-30 -34t-16.5 -51z" />
<glyph unicode="&#x202f;" horiz-adv-x="298" />
<glyph unicode="&#x205f;" horiz-adv-x="373" />
</font>
</defs>
</svg>
